<svg width="95" height="17" viewBox="0 0 95 17" fill="none" xmlns="http://www.w3.org/2000/svg">
<rect y="3" width="16" height="4" fill="#FFA920"/>
<rect y="8" width="16" height="3" fill="#FF7701"/>
<rect y="12" width="16" height="4" fill="#FFA920"/>
<path d="M28.3062 6.35107H24.3389V8.13477H27.9888V9.9375H24.3389V14H21.9775V4.54834H28.3062V6.35107ZM33.3335 12.1401V10.6548C32.9569 10.6929 32.6522 10.7267 32.4194 10.7563C32.1867 10.7817 31.9582 10.8346 31.7339 10.915C31.5392 10.9827 31.3869 11.0864 31.2769 11.2261C31.1711 11.3615 31.1182 11.5435 31.1182 11.772C31.1182 12.1063 31.207 12.3369 31.3848 12.4639C31.5667 12.5866 31.8333 12.6479 32.1846 12.6479C32.3792 12.6479 32.5781 12.6035 32.7812 12.5146C32.9844 12.4258 33.1685 12.3009 33.3335 12.1401ZM33.3335 13.2446C33.1812 13.3716 33.0436 13.4858 32.9209 13.5874C32.8024 13.689 32.6416 13.7905 32.4385 13.8921C32.2396 13.9894 32.0449 14.0635 31.8545 14.1143C31.6683 14.165 31.4059 14.1904 31.0674 14.1904C30.4368 14.1904 29.9121 13.9788 29.4932 13.5557C29.0785 13.1325 28.8711 12.5993 28.8711 11.9561C28.8711 11.4271 28.9769 10.9997 29.1885 10.6738C29.4001 10.348 29.7048 10.0898 30.1025 9.89941C30.5046 9.70475 30.9849 9.56934 31.5435 9.49316C32.1021 9.41699 32.703 9.35775 33.3462 9.31543V9.27734C33.3462 8.88379 33.2002 8.61296 32.9082 8.46484C32.6204 8.3125 32.1867 8.23633 31.6069 8.23633C31.3446 8.23633 31.0378 8.28499 30.6865 8.38232C30.3353 8.47542 29.9925 8.59603 29.6582 8.74414H29.4678V7.02393C29.6878 6.96045 30.0433 6.88639 30.5342 6.80176C31.0251 6.71289 31.5202 6.66846 32.0195 6.66846C33.2467 6.66846 34.1396 6.8737 34.6982 7.28418C35.2611 7.69043 35.5425 8.3125 35.5425 9.15039V14H33.3335V13.2446ZM45.7051 14V10.439C45.7051 10.0877 45.6987 9.7915 45.686 9.55029C45.6733 9.30908 45.6353 9.1123 45.5718 8.95996C45.5083 8.80762 45.4089 8.69759 45.2734 8.62988C45.1423 8.55794 44.9561 8.52197 44.7148 8.52197C44.5456 8.52197 44.3784 8.56006 44.2134 8.63623C44.0483 8.70817 43.8685 8.81185 43.6738 8.94727V14H41.4395V10.439C41.4395 10.092 41.431 9.79785 41.4141 9.55664C41.4014 9.3112 41.3633 9.1123 41.2998 8.95996C41.2363 8.80762 41.1369 8.69759 41.0015 8.62988C40.8703 8.55794 40.6862 8.52197 40.4492 8.52197C40.2673 8.52197 40.0895 8.56429 39.916 8.64893C39.7425 8.73356 39.5732 8.83301 39.4082 8.94727V14H37.1865V6.87158H39.4082V7.65869C39.7721 7.34977 40.1149 7.10856 40.4365 6.93506C40.7581 6.76156 41.12 6.6748 41.522 6.6748C41.9578 6.6748 42.3408 6.77848 42.6709 6.98584C43.001 7.1932 43.2528 7.50212 43.4263 7.9126C43.8537 7.51481 44.2557 7.21012 44.6323 6.99854C45.0132 6.78271 45.3983 6.6748 45.7876 6.6748C46.1177 6.6748 46.4139 6.7277 46.6763 6.8335C46.9386 6.93929 47.1608 7.09798 47.3428 7.30957C47.5417 7.53809 47.6898 7.81104 47.7871 8.12842C47.8887 8.44157 47.9395 8.85205 47.9395 9.35986V14H45.7051ZM51.8115 14H49.5898V6.87158H51.8115V14ZM51.875 5.85596H49.5264V4.12305H51.875V5.85596ZM55.7344 14H53.5127V4.12305H55.7344V14ZM64.0879 6.87158L60.4888 16.6152H58.1021L59.1812 13.8286L56.5659 6.87158H58.9019L60.3999 11.3403L61.8027 6.87158H64.0879ZM74.7075 14H72.3462V7.73486L70.626 11.7783H69.0073L67.2871 7.73486V14H65.0527V4.54834H67.7886L69.8833 9.21387L71.9717 4.54834H74.7075V14ZM80.4712 12.1401V10.6548C80.0946 10.6929 79.7899 10.7267 79.5571 10.7563C79.3244 10.7817 79.0959 10.8346 78.8716 10.915C78.6769 10.9827 78.5246 11.0864 78.4146 11.2261C78.3088 11.3615 78.2559 11.5435 78.2559 11.772C78.2559 12.1063 78.3447 12.3369 78.5225 12.4639C78.7044 12.5866 78.971 12.6479 79.3223 12.6479C79.5169 12.6479 79.7158 12.6035 79.9189 12.5146C80.1221 12.4258 80.3062 12.3009 80.4712 12.1401ZM80.4712 13.2446C80.3188 13.3716 80.1813 13.4858 80.0586 13.5874C79.9401 13.689 79.7793 13.7905 79.5762 13.8921C79.3773 13.9894 79.1826 14.0635 78.9922 14.1143C78.806 14.165 78.5436 14.1904 78.2051 14.1904C77.5745 14.1904 77.0498 13.9788 76.6309 13.5557C76.2161 13.1325 76.0088 12.5993 76.0088 11.9561C76.0088 11.4271 76.1146 10.9997 76.3262 10.6738C76.5378 10.348 76.8424 10.0898 77.2402 9.89941C77.6423 9.70475 78.1226 9.56934 78.6812 9.49316C79.2397 9.41699 79.8407 9.35775 80.4839 9.31543V9.27734C80.4839 8.88379 80.3379 8.61296 80.0459 8.46484C79.7581 8.3125 79.3244 8.23633 78.7446 8.23633C78.4823 8.23633 78.1755 8.28499 77.8242 8.38232C77.473 8.47542 77.1302 8.59603 76.7959 8.74414H76.6055V7.02393C76.8255 6.96045 77.181 6.88639 77.6719 6.80176C78.1628 6.71289 78.6579 6.66846 79.1572 6.66846C80.3844 6.66846 81.2773 6.8737 81.8359 7.28418C82.3988 7.69043 82.6802 8.3125 82.6802 9.15039V14H80.4712V13.2446ZM89.1104 8.97266H88.9263C88.8416 8.94303 88.7189 8.92188 88.5581 8.90918C88.3973 8.89225 88.2196 8.88379 88.0249 8.88379C87.7922 8.88379 87.5467 8.91764 87.2886 8.98535C87.0347 9.05306 86.7871 9.13346 86.5459 9.22656V14H84.3242V6.87158H86.5459V7.89355C86.6475 7.80046 86.7871 7.68408 86.9648 7.54443C87.1468 7.40055 87.3118 7.2863 87.46 7.20166C87.6208 7.10433 87.807 7.02181 88.0186 6.9541C88.2344 6.88216 88.4375 6.84619 88.6279 6.84619C88.6999 6.84619 88.7803 6.84831 88.8691 6.85254C88.958 6.85677 89.0384 6.86312 89.1104 6.87158V8.97266ZM92.6904 14.1396C91.7848 14.1396 91.1247 13.9535 90.71 13.5811C90.2995 13.2087 90.0942 12.5993 90.0942 11.7529V8.42041H89.2437V6.87158H90.0942V4.83398H92.3159V6.87158H94.4551V8.42041H92.3159V10.9468C92.3159 11.1965 92.318 11.4144 92.3223 11.6006C92.3265 11.7868 92.3604 11.9539 92.4238 12.1021C92.4831 12.2502 92.5868 12.3687 92.7349 12.4575C92.8872 12.5422 93.1073 12.5845 93.395 12.5845C93.5135 12.5845 93.668 12.5591 93.8584 12.5083C94.0531 12.4575 94.1885 12.411 94.2646 12.3687H94.4551V13.9365C94.2139 14 93.9578 14.0487 93.687 14.0825C93.4162 14.1206 93.084 14.1396 92.6904 14.1396Z" fill="#FF7701"/>
</svg>
