<svg width="89" height="24" viewBox="0 0 89 24" fill="none" xmlns="http://www.w3.org/2000/svg">
<g clip-path="url(#clip0_245_2034)">
<path fill-rule="evenodd" clip-rule="evenodd" d="M9.88027 5.74902H4.42495C4.42495 5.74902 2.9931 5.80129 2.7403 6.95319C2.48739 8.10497 2.17871 10.2116 2.17871 10.2116L12.9288 16.2325L14.2123 13.5408L9.88027 5.74902Z" fill="#8F4898"/>
<path fill-rule="evenodd" clip-rule="evenodd" d="M9.87988 5.67773L12.9284 16.2321L14.2922 13.4696L9.87988 5.67773Z" fill="#A256AC"/>
<path fill-rule="evenodd" clip-rule="evenodd" d="M17.3415 6.17394C17.3415 6.17394 16.8135 5.74902 15.9776 5.74902C15.1418 5.74902 11.084 5.74902 11.084 5.74902L14.6138 12.1241L17.3415 6.17394Z" fill="#A5CF63"/>
<path fill-rule="evenodd" clip-rule="evenodd" d="M17.9824 7.37793L14.7734 14.7447L19.5869 16.6572L17.9824 7.37793Z" fill="#0081C7"/>
<path fill-rule="evenodd" clip-rule="evenodd" d="M18.865 12.2656L14.6934 14.8157L19.7474 16.7283L18.865 12.2656Z" fill="#0095DA"/>
<path fill-rule="evenodd" clip-rule="evenodd" d="M7.95481 14.8867L9.63957 23.3869H1.45669C1.45669 23.3869 -0.158072 23.1846 0.0126411 21.616C0.69956 20.9953 7.95481 14.8867 7.95481 14.8867Z" fill="#E81D64"/>
<path fill-rule="evenodd" clip-rule="evenodd" d="M7.875 14.958L9.63993 23.3618L12.2873 17.508L7.875 14.958Z" fill="#D01858"/>
<path fill-rule="evenodd" clip-rule="evenodd" d="M14.3724 15.7363L10.9229 23.3865H18.9453C18.9453 23.3865 20.8981 23.2234 20.6299 21.6156C20.3619 20.0079 19.9882 17.9322 19.9882 17.9322L14.3724 15.7363Z" fill="#F78F22"/>
<path fill-rule="evenodd" clip-rule="evenodd" d="M19.9079 17.8619L10.9229 23.4578L14.2923 15.666L19.9079 17.8619Z" fill="#F8A043"/>
<path fill-rule="evenodd" clip-rule="evenodd" d="M6.99167 14.249L0.333008 19.9866L1.85733 11.3447L6.99167 14.249Z" fill="#F89023"/>
<path fill-rule="evenodd" clip-rule="evenodd" d="M6.99211 14.249L1.13574 15.1698L1.85777 11.3447L6.99211 14.249Z" fill="#E58117"/>
<path fill-rule="evenodd" clip-rule="evenodd" d="M14.7451 4.78441C14.7454 4.80948 14.7469 4.83433 14.7469 4.8595H14.7337C14.6919 5.02103 14.5466 5.14089 14.372 5.14089H14.2652C14.0907 5.14089 13.9453 5.02103 13.9035 4.8595H13.9002C13.9002 4.85564 13.8999 4.85179 13.8999 4.84793C13.894 4.82137 13.8903 4.79405 13.8903 4.76567C13.8903 4.74489 13.8931 4.72486 13.8964 4.70504C13.8157 2.60542 12.1008 0.927921 9.99608 0.927921C7.89122 0.927921 6.17639 2.60542 6.09569 4.70504C6.099 4.72486 6.10179 4.74489 6.10179 4.76567C6.10179 4.79405 6.09815 4.82137 6.09215 4.84793C6.09215 4.85179 6.09183 4.85564 6.09183 4.8595H6.08862C6.04677 5.02103 5.90143 5.14089 5.72686 5.14089H5.62004C5.44558 5.14089 5.30024 5.02103 5.25839 4.8595H5.24512C5.24512 4.83433 5.24662 4.80948 5.24704 4.78441C5.24672 4.77809 5.24512 4.7721 5.24512 4.76567C5.24512 4.75496 5.24736 4.745 5.24822 4.7345C5.31426 2.15019 7.41376 0.0751953 9.99608 0.0751953C12.5783 0.0751953 14.6778 2.15019 14.7438 4.7345C14.7447 4.745 14.7469 4.75496 14.7469 4.76567C14.7469 4.7721 14.7454 4.77809 14.7451 4.78441Z" fill="white"/>
</g>
<path d="M88.7933 6.42773V19.0908H87.1699V6.42773H88.7933Z" fill="white"/>
<path d="M84.4476 6.42773V19.0908H82.8242V6.42773H84.4476Z" fill="white"/>
<path d="M78.538 17.5648V12.9728C78.538 12.621 78.4623 12.316 78.311 12.0577C78.1656 11.7939 77.9445 11.5905 77.6477 11.4476C77.351 11.3047 76.9844 11.2333 76.5481 11.2333C76.1408 11.2333 75.7829 11.2992 75.4746 11.4311C75.172 11.563 74.9334 11.7362 74.7589 11.9505C74.5901 12.1649 74.5058 12.3957 74.5058 12.643H72.8912C72.8912 12.3242 72.9784 12.0082 73.153 11.6949C73.3275 11.3817 73.5777 11.0986 73.9036 10.8458C74.2352 10.5875 74.6309 10.3841 75.0905 10.2357C75.556 10.0818 76.0739 10.0049 76.6441 10.0049C77.3306 10.0049 77.9358 10.1148 78.4594 10.3346C78.9889 10.5545 79.402 10.887 79.6987 11.3322C80.0013 11.7719 80.1526 12.3242 80.1526 12.9893V17.1443C80.1526 17.4411 80.1788 17.7572 80.2311 18.0924C80.2893 18.4277 80.3737 18.7162 80.4842 18.9581V19.09H78.7998C78.7183 18.9141 78.6543 18.6805 78.6078 18.3892C78.5612 18.0924 78.538 17.8176 78.538 17.5648ZM78.8172 13.6818L78.8347 14.7535H77.2026C76.743 14.7535 76.3328 14.7893 75.972 14.8607C75.6113 14.9267 75.3087 15.0283 75.0644 15.1657C74.82 15.3031 74.6338 15.4763 74.5058 15.6851C74.3778 15.8885 74.3138 16.1276 74.3138 16.4024C74.3138 16.6827 74.3807 16.9382 74.5145 17.1691C74.6483 17.3999 74.8491 17.584 75.1167 17.7214C75.3902 17.8533 75.7247 17.9193 76.1204 17.9193C76.615 17.9193 77.0513 17.8204 77.4295 17.6225C77.8077 17.4246 78.1074 17.1828 78.3285 16.897C78.5554 16.6112 78.6776 16.3337 78.6951 16.0644L79.3845 16.7981C79.3438 17.0289 79.2333 17.2845 79.0529 17.5648C78.8725 17.8451 78.6311 18.1144 78.3285 18.3727C78.0318 18.6255 77.6768 18.8371 77.2637 19.0075C76.8564 19.1724 76.3968 19.2548 75.8848 19.2548C75.2447 19.2548 74.6832 19.1367 74.2003 18.9003C73.7232 18.664 73.3508 18.348 73.0832 17.9523C72.8213 17.5511 72.6904 17.1031 72.6904 16.6085C72.6904 16.1303 72.7893 15.7099 72.9872 15.3471C73.185 14.9789 73.4701 14.6738 73.8425 14.432C74.2149 14.1847 74.6629 13.9978 75.1865 13.8714C75.7102 13.745 76.295 13.6818 76.9408 13.6818H78.8172Z" fill="white"/>
<path d="M58.1418 7.08691H59.7738L63.9369 16.8728L68.0913 7.08691H69.7321L64.5653 19.0904H63.2911L58.1418 7.08691ZM57.6094 7.08691H59.0494L59.2851 14.4077V19.0904H57.6094V7.08691ZM68.8157 7.08691H70.2558V19.0904H68.58V14.4077L68.8157 7.08691Z" fill="white"/>
<path d="M55.4709 10.1702V11.3408H50.3652V10.1702H55.4709ZM52.0933 8.00195H53.7079V16.8809C53.7079 17.1832 53.7574 17.4113 53.8563 17.5652C53.9552 17.7191 54.0832 17.8208 54.2403 17.8702C54.3974 17.9197 54.5661 17.9444 54.7465 17.9444C54.8803 17.9444 55.02 17.9334 55.1654 17.9115C55.3167 17.884 55.4302 17.862 55.5058 17.8455L55.5146 19.0904C55.3865 19.1288 55.2178 19.1646 55.0083 19.1975C54.8047 19.236 54.5574 19.2553 54.2665 19.2553C53.8708 19.2553 53.5072 19.1811 53.1755 19.0327C52.8439 18.8843 52.5791 18.6369 52.3813 18.2907C52.1893 17.9389 52.0933 17.4663 52.0933 16.8727V8.00195Z" fill="white"/>
<path d="M43.2523 12.0742V19.09H41.6377V10.1698H43.165L43.2523 12.0742ZM42.8683 14.2919L42.1963 14.2671C42.2021 13.6571 42.2981 13.0937 42.4843 12.5771C42.6705 12.0549 42.9323 11.6015 43.2698 11.2168C43.6072 10.832 44.0087 10.5353 44.4742 10.3264C44.9455 10.1121 45.4662 10.0049 46.0364 10.0049C46.5019 10.0049 46.9208 10.0653 47.2932 10.1863C47.6656 10.3017 47.9827 10.4885 48.2445 10.7469C48.5122 11.0052 48.7158 11.3404 48.8555 11.7526C48.9951 12.1594 49.0649 12.6568 49.0649 13.2448V19.09H47.4416V13.2284C47.4416 12.7612 47.3689 12.3874 47.2234 12.1071C47.0779 11.8213 46.8656 11.6152 46.5863 11.4888C46.307 11.3569 45.9637 11.291 45.5564 11.291C45.1549 11.291 44.7884 11.3707 44.4567 11.5301C44.1309 11.6894 43.8487 11.9093 43.6101 12.1896C43.3774 12.4699 43.1941 12.7914 43.0603 13.1542C42.9323 13.5114 42.8683 13.8906 42.8683 14.2919Z" fill="white"/>
<path d="M34.9261 8.15041L30.7193 19.0904H29L33.8438 7.08691H34.9523L34.9261 8.15041ZM38.4521 19.0904L34.2366 8.15041L34.2104 7.08691H35.3188L40.1801 19.0904H38.4521ZM38.2339 14.6468V15.9494H31.0946V14.6468H38.2339Z" fill="white"/>
<defs>
<clipPath id="clip0_245_2034">
<rect width="20.6568" height="23.4577" fill="white"/>
</clipPath>
</defs>
</svg>
