<svg width="120" height="34" viewBox="0 0 120 34" fill="none" xmlns="http://www.w3.org/2000/svg">
<path d="M46.2813 12.7536H37.712V34H46.2813V12.7536Z" fill="url(#paint0_linear_3310_40971)"/>
<path fill-rule="evenodd" clip-rule="evenodd" d="M83.1407 12.7536H72.8539L65.9961 23.086L59.1382 12.7536H48.8515L61.279 31.4814C62.3252 33.0525 64.0911 34 65.99 34C67.8889 34 69.6609 33.0525 70.701 31.4814L83.1407 12.7536Z" fill="url(#paint1_linear_3310_40971)"/>
<path d="M8.56928 12.7536H0V34H8.56928V12.7536Z" fill="url(#paint2_linear_3310_40971)"/>
<path fill-rule="evenodd" clip-rule="evenodd" d="M25.7139 12.7536V19.9737H11.1394V26.7739H25.7139V34H34.2832V12.7536H25.7139Z" fill="url(#paint3_linear_3310_40971)"/>
<path d="M102.856 12.7536H86.5698L82.6208 18.7023H98.9067L102.856 12.7536Z" fill="url(#paint4_linear_3310_40971)"/>
<path d="M72.467 33.9997H98.9065L102.856 28.051H76.4159L72.467 33.9997Z" fill="url(#paint5_linear_3310_40971)"/>
<path d="M102.855 20.3994H81.4897L77.5407 26.3482H98.9064L102.855 20.3994Z" fill="url(#paint6_linear_3310_40971)"/>
<path fill-rule="evenodd" clip-rule="evenodd" d="M117.134 2.50513C117.134 2.25327 117.007 2.03139 116.783 1.90546L113.614 0.0944485C113.39 -0.0314828 113.136 -0.0314828 112.913 0.0944485L111.673 0.802063C112.846 1.4737 114.019 2.13933 115.193 2.81097C115.416 2.9369 115.543 3.15278 115.543 3.41064V7.02667C115.543 7.22456 115.676 7.35049 115.864 7.24255L116.783 6.72083C117.007 6.5949 117.134 6.37902 117.134 6.12116V2.50513Z" fill="url(#paint7_linear_3310_40971)"/>
<path fill-rule="evenodd" clip-rule="evenodd" d="M110.627 1.65339C110.403 1.52746 110.149 1.52746 109.931 1.65339L106.762 3.4644C106.538 3.59033 106.411 3.80621 106.411 4.06407V5.4793L109.931 3.4704C110.155 3.34446 110.409 3.34446 110.627 3.4704L113.795 5.27541C113.971 5.37736 114.146 5.32339 114.146 5.1075V4.05808C114.146 3.80621 114.019 3.58433 113.795 3.4584L110.627 1.65339Z" fill="url(#paint8_linear_3310_40971)"/>
<path fill-rule="evenodd" clip-rule="evenodd" d="M106.629 6.80458C106.405 6.93051 106.278 7.14639 106.278 7.40425V11.0203C106.278 11.2721 106.405 11.488 106.629 11.62L107.869 12.3276V8.31575C107.869 8.06389 107.996 7.84201 108.22 7.71608L111.389 5.90507C111.564 5.80312 111.6 5.62922 111.419 5.52128L110.5 4.99956C110.276 4.87363 110.022 4.87363 109.804 4.99956L106.629 6.80458Z" fill="url(#paint9_linear_3310_40971)"/>
<path fill-rule="evenodd" clip-rule="evenodd" d="M109.145 12.8013C109.145 13.0532 109.272 13.275 109.496 13.401L112.665 15.212C112.888 15.3379 113.142 15.3379 113.366 15.212L114.606 14.5044L111.086 12.4955C110.862 12.3695 110.735 12.1537 110.735 11.8958V8.27978C110.735 8.08188 110.602 7.95595 110.415 8.06389L109.496 8.58561C109.272 8.71154 109.145 8.92742 109.145 9.18528V12.8013Z" fill="url(#paint10_linear_3310_40971)"/>
<path fill-rule="evenodd" clip-rule="evenodd" d="M115.652 13.6466C115.876 13.7725 116.13 13.7725 116.347 13.6466L119.516 11.8416C119.74 11.7156 119.867 11.4998 119.867 11.2419V9.82667C118.694 10.4923 117.521 11.1639 116.353 11.8356C116.13 11.9615 115.876 11.9615 115.658 11.8356L112.489 10.0306C112.314 9.92862 112.138 9.98259 112.138 10.1985V11.2479C112.138 11.4998 112.265 11.7216 112.489 11.8476L115.652 13.6466Z" fill="url(#paint11_linear_3310_40971)"/>
<path fill-rule="evenodd" clip-rule="evenodd" d="M119.649 8.50144C119.873 8.37551 120 8.15963 120 7.90177V4.28574C120 4.03388 119.873 3.818 119.649 3.68607L118.41 2.97845V6.99027C118.41 7.24213 118.283 7.46401 118.059 7.58994L114.89 9.40095C114.714 9.50289 114.678 9.6768 114.86 9.78474L115.779 10.3065C116.003 10.4324 116.257 10.4324 116.474 10.3065L119.649 8.50144Z" fill="url(#paint12_linear_3310_40971)"/>
<defs>
<linearGradient id="paint0_linear_3310_40971" x1="2.79991" y1="34.0777" x2="96.8383" y2="34.0777" gradientUnits="userSpaceOnUse">
<stop stop-color="#113B8D"/>
<stop offset="1" stop-color="#57B268"/>
</linearGradient>
<linearGradient id="paint1_linear_3310_40971" x1="2.79991" y1="34.0777" x2="96.8383" y2="34.0777" gradientUnits="userSpaceOnUse">
<stop stop-color="#113B8D"/>
<stop offset="1" stop-color="#57B268"/>
</linearGradient>
<linearGradient id="paint2_linear_3310_40971" x1="2.79991" y1="34.0777" x2="96.8383" y2="34.0777" gradientUnits="userSpaceOnUse">
<stop stop-color="#113B8D"/>
<stop offset="1" stop-color="#57B268"/>
</linearGradient>
<linearGradient id="paint3_linear_3310_40971" x1="2.79991" y1="34.0777" x2="96.8383" y2="34.0777" gradientUnits="userSpaceOnUse">
<stop stop-color="#113B8D"/>
<stop offset="1" stop-color="#57B268"/>
</linearGradient>
<linearGradient id="paint4_linear_3310_40971" x1="2.79991" y1="34.0777" x2="96.8383" y2="34.0777" gradientUnits="userSpaceOnUse">
<stop stop-color="#113B8D"/>
<stop offset="1" stop-color="#57B268"/>
</linearGradient>
<linearGradient id="paint5_linear_3310_40971" x1="2.79991" y1="34.0777" x2="96.8383" y2="34.0777" gradientUnits="userSpaceOnUse">
<stop stop-color="#113B8D"/>
<stop offset="1" stop-color="#57B268"/>
</linearGradient>
<linearGradient id="paint6_linear_3310_40971" x1="2.79991" y1="34.0777" x2="96.8383" y2="34.0777" gradientUnits="userSpaceOnUse">
<stop stop-color="#113B8D"/>
<stop offset="1" stop-color="#57B268"/>
</linearGradient>
<linearGradient id="paint7_linear_3310_40971" x1="2.79991" y1="34.0777" x2="96.8383" y2="34.0777" gradientUnits="userSpaceOnUse">
<stop stop-color="#113B8D"/>
<stop offset="1" stop-color="#57B268"/>
</linearGradient>
<linearGradient id="paint8_linear_3310_40971" x1="2.79991" y1="34.0777" x2="96.8383" y2="34.0777" gradientUnits="userSpaceOnUse">
<stop stop-color="#113B8D"/>
<stop offset="1" stop-color="#57B268"/>
</linearGradient>
<linearGradient id="paint9_linear_3310_40971" x1="2.79991" y1="34.0777" x2="96.8383" y2="34.0777" gradientUnits="userSpaceOnUse">
<stop stop-color="#113B8D"/>
<stop offset="1" stop-color="#57B268"/>
</linearGradient>
<linearGradient id="paint10_linear_3310_40971" x1="2.79991" y1="34.0777" x2="96.8383" y2="34.0777" gradientUnits="userSpaceOnUse">
<stop stop-color="#113B8D"/>
<stop offset="1" stop-color="#57B268"/>
</linearGradient>
<linearGradient id="paint11_linear_3310_40971" x1="2.79991" y1="34.0777" x2="96.8383" y2="34.0777" gradientUnits="userSpaceOnUse">
<stop stop-color="#113B8D"/>
<stop offset="1" stop-color="#57B268"/>
</linearGradient>
<linearGradient id="paint12_linear_3310_40971" x1="2.79991" y1="34.0777" x2="96.8383" y2="34.0777" gradientUnits="userSpaceOnUse">
<stop stop-color="#113B8D"/>
<stop offset="1" stop-color="#57B268"/>
</linearGradient>
</defs>
</svg>
