<svg width="1024" height="311" viewBox="0 0 1024 311" fill="none" xmlns="http://www.w3.org/2000/svg">
<path d="M134.345 217.084V121.953H199.561V138.046H153.553V160.564H193.267V176.657H153.553V217.084H134.345ZM228.957 169.194L212.41 166.209C214.27 159.547 217.471 154.615 222.014 151.414C226.556 148.213 233.305 146.612 242.26 146.612C250.393 146.612 256.45 147.585 260.43 149.532C264.41 151.436 267.2 153.88 268.801 156.865C270.445 159.807 271.266 165.236 271.266 173.153L271.072 194.437C271.072 200.494 271.353 204.971 271.915 207.87C272.521 210.725 273.624 213.797 275.225 217.084H257.185C256.709 215.873 256.125 214.078 255.433 211.698C255.13 210.617 254.914 209.903 254.784 209.557C251.669 212.585 248.338 214.857 244.791 216.371C241.243 217.885 237.458 218.642 233.435 218.642C226.34 218.642 220.737 216.717 216.628 212.867C212.561 209.016 210.528 204.149 210.528 198.266C210.528 194.372 211.458 190.911 213.318 187.883C215.178 184.812 217.774 182.476 221.105 180.875C224.479 179.231 229.325 177.803 235.641 176.592C244.163 174.991 250.069 173.499 253.356 172.114V170.297C253.356 166.793 252.491 164.306 250.761 162.835C249.03 161.321 245.764 160.564 240.962 160.564C237.717 160.564 235.187 161.213 233.37 162.51C231.553 163.765 230.082 165.993 228.957 169.194ZM253.356 183.99C251.02 184.768 247.321 185.698 242.26 186.78C237.198 187.862 233.889 188.921 232.331 189.96C229.952 191.647 228.762 193.788 228.762 196.384C228.762 198.936 229.714 201.143 231.618 203.003C233.521 204.863 235.944 205.793 238.885 205.793C242.173 205.793 245.31 204.712 248.295 202.549C250.501 200.905 251.95 198.893 252.643 196.514C253.118 194.956 253.356 191.993 253.356 187.624V183.99ZM287.944 148.169H304.751V157.579C310.764 150.268 317.924 146.612 326.23 146.612C330.642 146.612 334.471 147.52 337.716 149.337C340.96 151.154 343.621 153.901 345.697 157.579C348.726 153.901 351.992 151.154 355.496 149.337C359 147.52 362.742 146.612 366.722 146.612C371.784 146.612 376.067 147.65 379.571 149.727C383.075 151.76 385.692 154.767 387.423 158.747C388.677 161.688 389.305 166.447 389.305 173.023V217.084H371.07V177.695C371.07 170.86 370.443 166.447 369.188 164.457C367.501 161.862 364.905 160.564 361.401 160.564C358.849 160.564 356.448 161.342 354.198 162.9C351.949 164.457 350.326 166.75 349.331 169.778C348.336 172.763 347.839 177.5 347.839 183.99V217.084H329.604V179.317C329.604 172.612 329.28 168.286 328.631 166.339C327.982 164.392 326.965 162.943 325.581 161.991C324.24 161.04 322.401 160.564 320.065 160.564C317.253 160.564 314.722 161.321 312.473 162.835C310.223 164.349 308.601 166.534 307.606 169.389C306.654 172.244 306.178 176.981 306.178 183.6V217.084H287.944V148.169ZM407.539 138.825V121.953H425.774V138.825H407.539ZM407.539 217.084V148.169H425.774V217.084H407.539ZM444.528 217.084V121.953H462.762V217.084H444.528ZM472.885 148.169H492.288L508.77 197.098L524.864 148.169H543.747L519.413 214.489L515.065 226.494C513.464 230.517 511.929 233.589 510.458 235.708C509.03 237.828 507.365 239.537 505.461 240.835C503.601 242.176 501.286 243.214 498.518 243.95C495.792 244.685 492.699 245.053 489.238 245.053C485.734 245.053 482.295 244.685 478.92 243.95L477.298 229.673C480.153 230.236 482.727 230.517 485.02 230.517C489.26 230.517 492.396 229.263 494.429 226.753C496.463 224.287 498.02 221.129 499.102 217.279L472.885 148.169ZM586.057 197.422L604.356 194.632C605.135 198.179 606.714 200.883 609.093 202.743C611.473 204.56 614.804 205.469 619.087 205.469C623.802 205.469 627.349 204.604 629.729 202.873C631.329 201.662 632.13 200.04 632.13 198.006C632.13 196.622 631.697 195.476 630.832 194.567C629.924 193.702 627.89 192.901 624.732 192.166C610.023 188.921 600.701 185.958 596.764 183.276C591.313 179.555 588.587 174.386 588.587 167.767C588.587 161.797 590.945 156.778 595.661 152.712C600.376 148.645 607.687 146.612 617.594 146.612C627.025 146.612 634.033 148.148 638.619 151.219C643.205 154.291 646.363 158.833 648.093 164.847L630.897 168.026C630.161 165.344 628.755 163.289 626.679 161.862C624.646 160.434 621.726 159.72 617.919 159.72C613.117 159.72 609.677 160.391 607.601 161.732C606.216 162.684 605.524 163.916 605.524 165.431C605.524 166.728 606.13 167.832 607.341 168.74C608.985 169.951 614.652 171.66 624.343 173.867C634.077 176.073 640.869 178.777 644.719 181.978C648.526 185.223 650.429 189.743 650.429 195.54C650.429 201.857 647.79 207.286 642.513 211.828C637.235 216.371 629.426 218.642 619.087 218.642C609.699 218.642 602.258 216.738 596.764 212.931C591.313 209.124 587.744 203.955 586.057 197.422ZM684.627 121.953V156.93C690.511 150.051 697.541 146.612 705.717 146.612C709.913 146.612 713.699 147.391 717.073 148.948C720.448 150.505 722.978 152.495 724.666 154.918C726.396 157.341 727.564 160.023 728.17 162.965C728.819 165.906 729.143 170.471 729.143 176.657V217.084H710.908V180.68C710.908 173.456 710.562 168.87 709.87 166.923C709.178 164.976 707.945 163.441 706.171 162.316C704.441 161.148 702.256 160.564 699.617 160.564C696.589 160.564 693.885 161.299 691.506 162.77C689.126 164.241 687.374 166.469 686.25 169.454C685.168 172.396 684.627 176.765 684.627 182.562V217.084H666.393V121.953H684.627ZM743.484 181.654C743.484 175.597 744.977 169.735 747.962 164.068C750.947 158.401 755.165 154.075 760.616 151.09C766.11 148.104 772.231 146.612 778.98 146.612C789.406 146.612 797.95 150.008 804.612 156.8C811.275 163.549 814.606 172.093 814.606 182.432C814.606 192.858 811.231 201.51 804.483 208.389C797.777 215.224 789.319 218.642 779.11 218.642C772.794 218.642 766.759 217.214 761.005 214.359C755.295 211.504 750.947 207.329 747.962 201.835C744.977 196.297 743.484 189.57 743.484 181.654ZM762.173 182.627C762.173 189.462 763.795 194.697 767.04 198.331C770.285 201.965 774.286 203.782 779.045 203.782C783.804 203.782 787.784 201.965 790.985 198.331C794.23 194.697 795.852 189.419 795.852 182.497C795.852 175.748 794.23 170.557 790.985 166.923C787.784 163.289 783.804 161.472 779.045 161.472C774.286 161.472 770.285 163.289 767.04 166.923C763.795 170.557 762.173 175.792 762.173 182.627ZM828.428 148.169H845.429V158.292C847.636 154.832 850.621 152.02 854.384 149.857C858.148 147.693 862.323 146.612 866.908 146.612C874.912 146.612 881.704 149.748 887.284 156.021C892.865 162.294 895.655 171.033 895.655 182.238C895.655 193.745 892.843 202.7 887.22 209.103C881.596 215.462 874.782 218.642 866.779 218.642C862.972 218.642 859.511 217.885 856.396 216.371C853.324 214.857 850.08 212.261 846.662 208.584V243.301H828.428V148.169ZM846.467 181.459C846.467 189.203 848.003 194.935 851.075 198.655C854.146 202.332 857.888 204.171 862.301 204.171C866.541 204.171 870.066 202.484 872.878 199.109C875.69 195.692 877.096 190.111 877.096 182.367C877.096 175.143 875.647 169.778 872.749 166.274C869.85 162.77 866.259 161.018 861.977 161.018C857.521 161.018 853.822 162.748 850.88 166.209C847.938 169.627 846.467 174.71 846.467 181.459Z" fill="#F47500"/>
<path d="M932 31H94V89H932V31Z" fill="#ED9C19"/>
<path d="M932 269H94V281H932V269Z" fill="#F47500"/>
</svg>
