<svg width="20" height="16" viewBox="0 0 20 16" fill="none" xmlns="http://www.w3.org/2000/svg">
<path d="M4.53273 3.92672L9.16419 1.0681C9.7009 0.736952 10.4076 0.898057 10.7431 1.42789C10.857 1.60779 10.9173 1.81564 10.9173 2.02762V13.9727C10.9173 14.5979 10.4042 15.1043 9.77148 15.1043C9.55675 15.1043 9.34638 15.0447 9.16419 14.9325L4.53273 12.0736H2.43815C1.55219 12.0736 0.833984 11.3643 0.833984 10.4894V5.51095C0.833984 4.63599 1.55219 3.92672 2.43815 3.92672H4.53273ZM5.09419 5.18141C4.98464 5.2489 4.85849 5.28461 4.72982 5.28454H2.43815C2.31165 5.28454 2.20898 5.38583 2.20898 5.51095V10.4896C2.20898 10.6145 2.31165 10.716 2.43815 10.716H4.72982C4.85861 10.716 4.98488 10.7518 5.09419 10.8191L9.54232 13.5643V2.43599L5.09419 5.18141ZM16.2076 14.8247C16.0758 14.95 15.9001 15.0185 15.7182 15.0154C15.5364 15.0124 15.3631 14.9381 15.2355 14.8085C15.1728 14.7448 15.1234 14.6692 15.0902 14.5861C15.057 14.5031 15.0407 14.4143 15.0423 14.3249C15.0438 14.2355 15.0631 14.1473 15.0992 14.0655C15.1352 13.9836 15.1871 13.9098 15.252 13.8483C18.6391 10.6156 18.6391 5.38422 15.252 2.1516C15.1872 2.09007 15.1352 2.01625 15.0992 1.93443C15.0632 1.85261 15.0439 1.76444 15.0424 1.67507C15.0408 1.5857 15.0571 1.49692 15.0903 1.41391C15.1234 1.3309 15.1728 1.25533 15.2355 1.19162C15.3631 1.06203 15.5364 0.98772 15.7182 0.984677C15.9001 0.981634 16.0758 1.0501 16.2076 1.17535C20.1539 4.9417 20.1539 11.0584 16.2076 14.8247ZM13.9109 12.1137C13.7778 12.2377 13.6013 12.3044 13.4195 12.2995C13.2377 12.2946 13.0651 12.2185 12.9388 12.0876C12.8768 12.0232 12.8283 11.9471 12.796 11.8638C12.7637 11.7804 12.7484 11.6915 12.7509 11.6021C12.7533 11.5128 12.7736 11.4248 12.8104 11.3434C12.8472 11.262 12.8999 11.1887 12.9654 11.1278C14.818 9.39602 14.818 6.60408 12.9654 4.87204C12.8999 4.81118 12.8472 4.7379 12.8104 4.65646C12.7736 4.57503 12.7533 4.48708 12.7509 4.39773C12.7484 4.30839 12.7637 4.21945 12.796 4.13611C12.8283 4.05276 12.8768 3.97667 12.9388 3.91229C13.0651 3.78135 13.2377 3.70524 13.4195 3.70035C13.6013 3.69547 13.7778 3.76219 13.9109 3.88616C16.3362 6.15376 16.3362 9.84633 13.9109 12.1139V12.1137Z" fill="#FFD632"/>
</svg>
