<svg width="19" height="16" viewBox="0 0 19 16" fill="none" xmlns="http://www.w3.org/2000/svg">
<path d="M1.75 6.03594V10.3514H4.95375L8.72331 13.3606V3.10788L5.07544 6.03594H1.75ZM4.59144 4.66094L8.98044 1.13819C9.08151 1.05705 9.20346 1.00614 9.33222 0.991324C9.46098 0.976507 9.59131 0.99839 9.70817 1.05445C9.82503 1.11051 9.92366 1.19846 9.99269 1.30815C10.0617 1.41785 10.0983 1.54483 10.0983 1.67444V14.7892C10.0983 14.9186 10.0617 15.0454 9.99276 15.1549C9.92385 15.2645 9.82541 15.3524 9.70877 15.4085C9.59214 15.4646 9.46203 15.4866 9.33343 15.472C9.20483 15.4575 9.08295 15.4069 8.98181 15.3261L4.47181 11.7264H1.0625C0.880164 11.7264 0.705295 11.6539 0.576364 11.525C0.447433 11.3961 0.375 11.2212 0.375 11.0389V5.34844C0.375 5.1661 0.447433 4.99123 0.576364 4.8623C0.705295 4.73337 0.880164 4.66094 1.0625 4.66094H4.59144ZM15.1563 6.85406L17.7 3.46263C17.8094 3.31676 17.9723 3.22032 18.1528 3.19454C18.2421 3.18177 18.3332 3.18673 18.4206 3.20914C18.5081 3.23154 18.5903 3.27096 18.6625 3.32513C18.7347 3.3793 18.7956 3.44716 18.8416 3.52485C18.8876 3.60254 18.9178 3.68852 18.9306 3.7779C18.9434 3.86727 18.9384 3.95829 18.916 4.04575C18.8936 4.13321 18.8542 4.2154 18.8 4.28763L16.0156 8.00013L18.8 11.7126C18.9094 11.8585 18.9564 12.0418 18.9306 12.2224C18.9048 12.4029 18.8084 12.5657 18.6625 12.6751C18.5166 12.7845 18.3333 12.8315 18.1528 12.8057C17.9723 12.7799 17.8094 12.6835 17.7 12.5376L15.1563 9.14619L12.6125 12.5376C12.5031 12.6835 12.3402 12.7799 12.1597 12.8057C11.9792 12.8315 11.7959 12.7845 11.65 12.6751C11.5041 12.5657 11.4077 12.4029 11.3819 12.2224C11.3561 12.0418 11.4031 11.8585 11.5125 11.7126L14.2969 8.00013L11.5125 4.28763C11.4031 4.14176 11.3561 3.9584 11.3819 3.7779C11.4077 3.59739 11.5041 3.43453 11.65 3.32513C11.7959 3.21572 11.9792 3.16875 12.1597 3.19454C12.3402 3.22032 12.5031 3.31676 12.6125 3.46263L15.1563 6.85406Z" fill="#FFD631"/>
</svg>
