<svg width="16" height="17" viewBox="0 0 16 17" fill="none" xmlns="http://www.w3.org/2000/svg">
<path d="M7.99551 17C7.48297 16.9887 6.97856 16.8763 6.51457 16.67C6.05058 16.4636 5.63724 16.1679 5.30102 15.8017C5.24243 15.7362 5.19823 15.6603 5.171 15.5784C5.14377 15.4965 5.13405 15.4104 5.14241 15.3249C5.15078 15.2395 5.17705 15.1564 5.2197 15.0807C5.26236 15.005 5.32053 14.938 5.39083 14.8838C5.45932 14.8286 5.53881 14.7869 5.62459 14.7613C5.71038 14.7356 5.80072 14.7265 5.8903 14.7344C5.97988 14.7423 6.06687 14.7672 6.14615 14.8074C6.22542 14.8477 6.29537 14.9025 6.35187 14.9688C6.55859 15.186 6.80863 15.3623 7.08762 15.4878C7.36661 15.6132 7.66905 15.6852 7.97755 15.6997C8.59539 15.6539 9.17246 15.3899 9.59424 14.9603C9.65202 14.8953 9.72296 14.8418 9.80288 14.8031C9.8828 14.7644 9.97009 14.7412 10.0596 14.7348C10.1492 14.7285 10.2391 14.7392 10.3243 14.7662C10.4094 14.7933 10.4879 14.8361 10.5553 14.8923C10.6289 14.9434 10.691 15.008 10.7378 15.0822C10.7845 15.1564 10.8151 15.2387 10.8277 15.3243C10.8403 15.4099 10.8345 15.497 10.8109 15.5804C10.7872 15.6639 10.7461 15.742 10.69 15.8102C10.3492 16.1705 9.93466 16.4617 9.47154 16.6662C9.00842 16.8707 8.5063 16.9843 7.99551 17ZM15.3066 14.1954H0.68445C0.564709 14.194 0.447347 14.1636 0.34357 14.107C0.239792 14.0505 0.153062 13.9697 0.0916614 13.8725C0.0316452 13.7758 0 13.6658 0 13.5537C0 13.4417 0.0316452 13.3317 0.0916614 13.235L1.99577 9.83554V5.33968C2.04738 3.88037 2.70748 2.49973 3.83175 1.49961C4.95603 0.499476 6.45303 -0.0387971 7.99551 0.00245435C9.53952 -0.0410864 11.0388 0.496165 12.1651 1.49654C13.2913 2.49691 13.9526 3.87885 14.0042 5.33968V9.86103L15.9083 13.2605C15.9684 13.3571 16 13.4672 16 13.5792C16 13.6913 15.9684 13.8013 15.9083 13.8979C15.8429 13.9917 15.7533 14.0682 15.6481 14.1203C15.5428 14.1723 15.4253 14.1982 15.3066 14.1954ZM1.8341 12.8951H14.1569L12.7109 10.3455C12.658 10.2512 12.6302 10.1462 12.63 10.0395V5.33968C12.5718 4.22599 12.0532 3.17859 11.1862 2.4234C10.3192 1.6682 9.17327 1.26572 7.99551 1.30277C6.81775 1.26572 5.67179 1.6682 4.8048 2.4234C3.9378 3.17859 3.41925 4.22599 3.36098 5.33968V10.031C3.3608 10.1377 3.33305 10.2427 3.28015 10.337L1.8341 12.8951Z" fill="white"/>
</svg>
