<svg width="135" height="22" viewBox="0 0 135 22" fill="none" xmlns="http://www.w3.org/2000/svg">
<g clip-path="url(#clip0_518_1891)">
<path fill-rule="evenodd" clip-rule="evenodd" d="M24.3719 6.8866L21.6676 8.90219L14.781 3.88001L5.37491 10.7498L14.7978 17.8044L39.472 0L54.5889 10.9178L39.64 21.8356L30.0659 14.7978L32.7534 12.7822L39.472 17.8044L49.0461 10.9346L39.64 3.88001L14.7978 21.8356L0 10.9178L14.781 0L24.3719 6.8866Z" fill="white"/>
</g>
<path d="M127.698 4.1123V17.6745H125.365L118.545 8.43657H118.425V17.6745H115.802V4.1123H118.149L124.963 13.3568H125.09V4.1123H127.698Z" fill="white"/>
<path d="M113.323 10.8933C113.323 12.3546 113.031 13.6061 112.447 14.648C111.867 15.6855 111.076 16.4802 110.072 17.032C109.073 17.5839 107.94 17.8598 106.672 17.8598C105.405 17.8598 104.269 17.5839 103.265 17.032C102.266 16.4757 101.475 15.6789 100.89 14.6414C100.311 13.5995 100.021 12.3501 100.021 10.8933C100.021 9.43198 100.311 8.1826 100.89 7.14513C101.475 6.10324 102.266 5.30637 103.265 4.75453C104.269 4.20268 105.405 3.92676 106.672 3.92676C107.94 3.92676 109.073 4.20268 110.072 4.75453C111.076 5.30637 111.867 6.10324 112.447 7.14513C113.031 8.1826 113.323 9.43198 113.323 10.8933ZM110.687 10.8933C110.687 9.86463 110.515 8.99712 110.171 8.29076C109.832 7.57998 109.36 7.04359 108.757 6.68158C108.154 6.31515 107.459 6.13194 106.672 6.13194C105.885 6.13194 105.19 6.31515 104.587 6.68158C103.984 7.04359 103.51 7.57998 103.166 8.29076C102.827 8.99712 102.658 9.86463 102.658 10.8933C102.658 11.9219 102.827 12.7916 103.166 13.5024C103.51 14.2088 103.984 14.7452 104.587 15.1116C105.19 15.4736 105.885 15.6546 106.672 15.6546C107.459 15.6546 108.154 15.4736 108.757 15.1116C109.36 14.7452 109.832 14.2088 110.171 13.5024C110.515 12.7916 110.687 11.9219 110.687 10.8933Z" fill="white"/>
<path d="M82.3505 4.1123H85.5594L89.8568 13.9396H90.0264L94.3239 4.1123H97.5328V17.6745H95.0165V8.35711H94.8822L90.8817 17.6348H89.0016L85.001 8.33724H84.8667V17.6745H82.3505V4.1123Z" fill="white"/>
<path d="M79.5111 4.1123V17.6745H76.8888V4.1123H79.5111Z" fill="white"/>
<path d="M71.8298 7.84045C71.7638 7.26212 71.4858 6.81181 70.9958 6.48953C70.5104 6.16726 69.879 6.00612 69.1015 6.00612C68.5549 6.00612 68.0861 6.08337 67.6949 6.23789C67.3038 6.39241 67.0046 6.60211 66.7973 6.867C66.59 7.13188 66.4839 7.4343 66.4792 7.77423C66.4792 8.05678 66.5476 8.3018 66.6842 8.50929C66.8256 8.71679 67.0164 8.89338 67.2567 9.03907C67.497 9.18034 67.7633 9.29954 68.0554 9.39666C68.3476 9.49379 68.6421 9.57546 68.9389 9.64168L70.296 9.95955C70.8426 10.0787 71.368 10.2399 71.8722 10.443C72.3811 10.646 72.8358 10.9021 73.2364 11.2111C73.6416 11.5202 73.962 11.8932 74.1976 12.3303C74.4332 12.7673 74.551 13.2795 74.551 13.8666C74.551 14.6613 74.3343 15.361 73.9008 15.9658C73.4672 16.5663 72.8405 17.0364 72.0206 17.3764C71.2054 17.7119 70.2183 17.8796 69.0591 17.8796C67.9329 17.8796 66.9552 17.7163 66.1258 17.3896C65.3012 17.0629 64.6557 16.5861 64.1892 15.9592C63.7274 15.3323 63.4776 14.5686 63.4399 13.668H66.0198C66.0575 14.1403 66.213 14.5332 66.4863 14.8467C66.7596 15.1601 67.1154 15.3941 67.5536 15.5486C67.9965 15.7032 68.4913 15.7804 69.0379 15.7804C69.6081 15.7804 70.1075 15.701 70.5363 15.542C70.9698 15.3787 71.3091 15.1535 71.5541 14.8666C71.7992 14.5752 71.924 14.2353 71.9287 13.8468C71.924 13.4936 71.8133 13.2022 71.5965 12.9726C71.3798 12.7386 71.0759 12.5444 70.6848 12.3899C70.2984 12.2309 69.846 12.0897 69.3277 11.9661L67.6808 11.5687C66.4887 11.2818 65.5462 10.8469 64.8536 10.2642C64.1656 9.677 63.8216 8.89779 63.8216 7.92654C63.8216 7.12747 64.0525 6.42773 64.5143 5.82732C64.9808 5.22691 65.6146 4.76115 66.4156 4.43004C67.2167 4.09452 68.1237 3.92676 69.1368 3.92676C70.1641 3.92676 71.0641 4.09452 71.8369 4.43004C72.6144 4.76115 73.2246 5.22249 73.6675 5.81407C74.1104 6.40124 74.339 7.0767 74.3531 7.84045H71.8298Z" fill="white"/>
<path d="M131.23 7.08708V5.07646H132.225C132.337 5.07646 132.444 5.10189 132.546 5.15275C132.65 5.20178 132.733 5.27534 132.797 5.37342C132.862 5.4715 132.895 5.59228 132.895 5.73577C132.895 5.87926 132.861 6.00186 132.794 6.10357C132.727 6.20346 132.64 6.27975 132.532 6.33242C132.427 6.38509 132.316 6.41143 132.2 6.41143H131.505V6.04908H132.08C132.151 6.04908 132.216 6.02274 132.276 5.97007C132.336 5.9174 132.366 5.8393 132.366 5.73577C132.366 5.62679 132.336 5.55051 132.276 5.50692C132.216 5.46333 132.154 5.44153 132.088 5.44153H131.726V7.08708H131.23ZM132.492 6.15261L132.966 7.08708H132.421L131.971 6.15261H132.492ZM132.012 8.28582C131.711 8.28582 131.428 8.22952 131.165 8.11691C130.901 8.0043 130.67 7.8481 130.47 7.64831C130.27 7.44852 130.114 7.21695 130.001 6.95358C129.889 6.69022 129.833 6.40779 129.833 6.10629C129.833 5.80479 129.889 5.52236 130.001 5.259C130.114 4.99564 130.27 4.76406 130.47 4.56427C130.67 4.36448 130.901 4.20828 131.165 4.09567C131.428 3.98306 131.711 3.92676 132.012 3.92676C132.314 3.92676 132.596 3.98306 132.859 4.09567C133.123 4.20828 133.354 4.36448 133.554 4.56427C133.754 4.76406 133.91 4.99564 134.023 5.259C134.135 5.52236 134.192 5.80479 134.192 6.10629C134.192 6.40779 134.135 6.69022 134.023 6.95358C133.91 7.21695 133.754 7.44852 133.554 7.64831C133.354 7.8481 133.123 8.0043 132.859 8.11691C132.596 8.22952 132.314 8.28582 132.012 8.28582ZM132.012 7.72732C132.31 7.72732 132.581 7.65467 132.827 7.50937C133.072 7.36406 133.267 7.16881 133.412 6.92362C133.56 6.6766 133.633 6.40416 133.633 6.10629C133.633 5.80842 133.56 5.53689 133.412 5.29169C133.267 5.04468 133.072 4.84852 132.827 4.70322C132.581 4.55791 132.31 4.48526 132.012 4.48526C131.712 4.48526 131.44 4.55791 131.195 4.70322C130.95 4.84852 130.753 5.04468 130.606 5.29169C130.461 5.53689 130.388 5.80842 130.388 6.10629C130.388 6.40416 130.461 6.67569 130.606 6.92089C130.753 7.16609 130.95 7.36225 131.195 7.50937C131.44 7.65467 131.712 7.72732 132.012 7.72732Z" fill="white"/>
<defs>
<clipPath id="clip0_518_1891">
<rect width="54.5889" height="21.8356" fill="white"/>
</clipPath>
</defs>
</svg>
