<svg width="176" height="24" viewBox="0 0 176 24" fill="none" xmlns="http://www.w3.org/2000/svg">
<path d="M121.839 17.3671V18.6185H115.693V17.3671H121.839ZM116.004 7.0127V18.6185H114.466V7.0127H116.004ZM121.026 12.0026V13.254H115.693V12.0026H121.026ZM121.759 7.0127V8.27212H115.693V7.0127H121.759Z" fill="white"/>
<path d="M112.703 17.3671V18.6185H106.901V17.3671H112.703ZM107.203 7.0127V18.6185H105.665V7.0127H107.203Z" fill="white"/>
<path d="M99.3127 8.04096L95.4707 18.6185H93.9004L98.3243 7.0127H99.3366L99.3127 8.04096ZM102.533 18.6185L98.683 8.04096L98.6591 7.0127H99.6714L104.111 18.6185H102.533ZM102.334 14.3221V15.5816H95.8134V14.3221H102.334Z" fill="white"/>
<path d="M91.51 15.6854C91.51 15.4144 91.4675 15.1753 91.3825 14.968C91.3028 14.7555 91.1593 14.5642 90.9521 14.3941C90.7501 14.2241 90.4685 14.062 90.1071 13.9079C89.7511 13.7538 89.2994 13.597 88.7521 13.4376C88.1781 13.2676 87.66 13.0789 87.1977 12.8717C86.7354 12.6591 86.3395 12.4173 86.01 12.1463C85.6805 11.8753 85.4281 11.5644 85.2528 11.2137C85.0774 10.863 84.9897 10.4617 84.9897 10.0101C84.9897 9.55836 85.0827 9.14121 85.2687 8.7586C85.4547 8.37599 85.7204 8.04386 86.0658 7.76222C86.4165 7.47526 86.8337 7.25207 87.3173 7.09265C87.8008 6.93323 88.3402 6.85352 88.9354 6.85352C89.8069 6.85352 90.5455 7.02091 91.1513 7.35569C91.7625 7.68516 92.2274 8.11826 92.5463 8.65497C92.8651 9.18638 93.0245 9.75498 93.0245 10.3608H91.4941C91.4941 9.92503 91.4011 9.53976 91.2151 9.20497C91.0291 8.86488 90.7475 8.59918 90.3702 8.40787C89.9929 8.21125 89.5146 8.11294 88.9354 8.11294C88.388 8.11294 87.9363 8.19531 87.5803 8.36004C87.2243 8.52478 86.9586 8.74797 86.7832 9.02961C86.6132 9.31126 86.5281 9.63275 86.5281 9.99411C86.5281 10.2386 86.5786 10.4617 86.6796 10.6637C86.7859 10.8603 86.9479 11.0436 87.1658 11.2137C87.389 11.3837 87.6706 11.5405 88.0107 11.684C88.3562 11.8274 88.768 11.9656 89.2463 12.0985C89.9052 12.2845 90.4738 12.4917 90.9521 12.7202C91.4303 12.9487 91.8236 13.2064 92.1318 13.4934C92.4453 13.775 92.6765 14.0965 92.8253 14.4579C92.9794 14.8139 93.0564 15.2178 93.0564 15.6695C93.0564 16.1424 92.9608 16.5702 92.7695 16.9528C92.5782 17.3354 92.3045 17.6623 91.9484 17.9333C91.5924 18.2043 91.1646 18.4142 90.6651 18.563C90.1709 18.7065 89.6182 18.7782 89.0071 18.7782C88.4704 18.7782 87.9417 18.7038 87.4209 18.555C86.9054 18.4062 86.4351 18.183 86.01 17.8854C85.5902 17.5879 85.2528 17.2212 84.9977 16.7854C84.7479 16.3444 84.623 15.8342 84.623 15.255H86.1535C86.1535 15.6536 86.2305 15.9963 86.3846 16.2833C86.5388 16.5649 86.7487 16.7987 87.0144 16.9847C87.2854 17.1707 87.5909 17.3089 87.931 17.3992C88.2764 17.4842 88.6351 17.5267 89.0071 17.5267C89.5438 17.5267 89.9982 17.4524 90.3702 17.3036C90.7422 17.1548 91.0238 16.9422 91.2151 16.6659C91.4117 16.3895 91.51 16.0627 91.51 15.6854Z" fill="white"/>
<path d="M83.4181 17.3671V18.6185H77.2725V17.3671H83.4181ZM77.5833 7.0127V18.6185H76.0449V7.0127H77.5833ZM82.6051 12.0026V13.254H77.2725V12.0026H82.6051ZM83.3384 7.0127V8.27212H77.2725V7.0127H83.3384Z" fill="white"/>
<path d="M74.2826 17.3671V18.6185H68.4797V17.3671H74.2826ZM68.7826 7.0127V18.6185H67.2441V7.0127H68.7826Z" fill="white"/>
<path d="M64.9415 12.4492V13.1825C64.9415 14.054 64.8326 14.8352 64.6147 15.526C64.3968 16.2168 64.0833 16.804 63.6741 17.2876C63.2649 17.7712 62.7734 18.1405 62.1995 18.3956C61.6309 18.6507 60.9932 18.7782 60.2864 18.7782C59.6009 18.7782 58.9712 18.6507 58.3973 18.3956C57.8287 18.1405 57.3345 17.7712 56.9147 17.2876C56.5002 16.804 56.1787 16.2168 55.9502 15.526C55.7217 14.8352 55.6074 14.054 55.6074 13.1825V12.4492C55.6074 11.5777 55.719 10.7992 55.9422 10.1137C56.1707 9.42285 56.4922 8.83565 56.9067 8.35207C57.3212 7.86318 57.8127 7.4912 58.3813 7.23613C58.9553 6.98105 59.585 6.85352 60.2705 6.85352C60.9773 6.85352 61.6149 6.98105 62.1835 7.23613C62.7575 7.4912 63.249 7.86318 63.6582 8.35207C64.0727 8.83565 64.3889 9.42285 64.6067 10.1137C64.8299 10.7992 64.9415 11.5777 64.9415 12.4492ZM63.4191 13.1825V12.4332C63.4191 11.7424 63.3473 11.1313 63.2038 10.5999C63.0657 10.0685 62.8611 9.62213 62.5901 9.26077C62.319 8.89942 61.9869 8.62575 61.5937 8.43975C61.2058 8.25376 60.7647 8.16077 60.2705 8.16077C59.7922 8.16077 59.3591 8.25376 58.9712 8.43975C58.5886 8.62575 58.2591 8.89942 57.9828 9.26077C57.7118 9.62213 57.5019 10.0685 57.3531 10.5999C57.2043 11.1313 57.1299 11.7424 57.1299 12.4332V13.1825C57.1299 13.8787 57.2043 14.4951 57.3531 15.0318C57.5019 15.5632 57.7144 16.0122 57.9908 16.3789C58.2724 16.7403 58.6045 17.0139 58.9871 17.1999C59.3751 17.3859 59.8082 17.4789 60.2864 17.4789C60.7859 17.4789 61.2297 17.3859 61.6176 17.1999C62.0055 17.0139 62.3323 16.7403 62.598 16.3789C62.869 16.0122 63.0736 15.5632 63.2118 15.0318C63.35 14.4951 63.4191 13.8787 63.4191 13.1825Z" fill="white"/>
<path d="M51.933 12.0026V13.254H45.6518V12.0026H51.933ZM45.891 7.0127V18.6185H44.3525V7.0127H45.891ZM53.2721 7.0127V18.6185H51.7417V7.0127H53.2721Z" fill="white"/>
<path d="M32.9138 15.1113L35.2174 7.0127H36.3334L35.6877 10.1613L33.2087 18.6185H32.1007L32.9138 15.1113ZM30.5304 7.0127L32.3638 14.9519L32.9138 18.6185H31.8138L29 7.0127H30.5304ZM39.3145 14.9439L41.108 7.0127H42.6464L39.8406 18.6185H38.7406L39.3145 14.9439ZM36.5008 7.0127L38.7406 15.1113L39.5537 18.6185H38.4457L36.0544 10.1613L35.4008 7.0127H36.5008Z" fill="white"/>
<path d="M170.55 14.7655H167.243V12.4792H170.55C171.038 12.4792 171.43 12.3979 171.725 12.2352C172.026 12.0725 172.246 11.8496 172.385 11.5665C172.529 11.2773 172.602 10.952 172.602 10.5905C172.602 10.217 172.529 9.87062 172.385 9.55132C172.246 9.22601 172.026 8.96394 171.725 8.76514C171.43 8.56633 171.038 8.46693 170.55 8.46693H168.309V19.338H165.363V6.18066H170.55C171.599 6.18066 172.496 6.37043 173.243 6.74997C173.996 7.12951 174.572 7.65062 174.969 8.31331C175.373 8.96997 175.575 9.72302 175.575 10.5725C175.575 11.4219 175.373 12.1599 174.969 12.7864C174.572 13.413 173.996 13.9009 173.243 14.2504C172.496 14.5938 171.599 14.7655 170.55 14.7655Z" fill="white"/>
<path d="M163.556 12.4702V13.0576C163.556 14.0577 163.417 14.9553 163.14 15.7505C162.869 16.5457 162.481 17.2235 161.975 17.7838C161.475 18.344 160.878 18.7748 160.185 19.076C159.499 19.3712 158.737 19.5188 157.899 19.5188C157.062 19.5188 156.297 19.3712 155.604 19.076C154.911 18.7748 154.309 18.344 153.796 17.7838C153.29 17.2235 152.899 16.5457 152.622 15.7505C152.345 14.9553 152.206 14.0577 152.206 13.0576V12.4702C152.206 11.4702 152.345 10.5725 152.622 9.77731C152.899 8.97606 153.287 8.2953 153.787 7.73503C154.294 7.17476 154.893 6.74703 155.586 6.45183C156.279 6.15061 157.044 6 157.881 6C158.718 6 159.484 6.15061 160.176 6.45183C160.869 6.74703 161.466 7.17476 161.966 7.73503C162.472 8.2953 162.863 8.97606 163.14 9.77731C163.417 10.5725 163.556 11.4702 163.556 12.4702ZM160.583 13.0576V12.4521C160.583 11.7834 160.523 11.193 160.402 10.681C160.282 10.1629 160.107 9.72911 159.878 9.3797C159.649 9.03028 159.366 8.76822 159.029 8.59351C158.691 8.41278 158.309 8.32241 157.881 8.32241C157.435 8.32241 157.047 8.41278 156.715 8.59351C156.384 8.76822 156.104 9.03028 155.875 9.3797C155.652 9.72911 155.48 10.1629 155.36 10.681C155.245 11.193 155.188 11.7834 155.188 12.4521V13.0576C155.188 13.7203 155.245 14.3107 155.36 14.8288C155.48 15.3409 155.655 15.7746 155.884 16.1301C156.113 16.4855 156.393 16.7536 156.724 16.9343C157.062 17.115 157.453 17.2054 157.899 17.2054C158.327 17.2054 158.706 17.115 159.038 16.9343C159.375 16.7536 159.658 16.4855 159.887 16.1301C160.116 15.7746 160.288 15.3409 160.402 14.8288C160.523 14.3107 160.583 13.7203 160.583 13.0576Z" fill="white"/>
<path d="M148.366 11.4761V13.7534H141.552V11.4761H148.366ZM142.483 6.18066V19.338H139.537V6.18066H142.483ZM150.399 6.18066V19.338H147.462V6.18066H150.399Z" fill="white"/>
<path d="M134.865 15.868C134.865 15.6451 134.832 15.4463 134.766 15.2716C134.699 15.0908 134.579 14.9252 134.404 14.7746C134.229 14.6239 133.982 14.4733 133.663 14.3227C133.344 14.1661 132.925 14.0064 132.407 13.8438C131.817 13.651 131.253 13.4341 130.717 13.1931C130.187 12.9461 129.714 12.66 129.299 12.3347C128.883 12.0094 128.554 11.6298 128.314 11.1961C128.079 10.7623 127.961 10.2562 127.961 9.6779C127.961 9.11763 128.085 8.61158 128.332 8.15975C128.579 7.70792 128.925 7.32236 129.371 7.00306C129.817 6.67775 130.341 6.43075 130.943 6.26206C131.546 6.08735 132.208 6 132.931 6C133.895 6 134.742 6.1717 135.471 6.51509C136.205 6.85245 136.778 7.32838 137.187 7.94287C137.597 8.55134 137.802 9.25921 137.802 10.0665H134.874C134.874 9.71104 134.799 9.39777 134.648 9.12667C134.504 8.84955 134.281 8.63267 133.979 8.47603C133.684 8.3194 133.314 8.24108 132.868 8.24108C132.434 8.24108 132.07 8.30735 131.775 8.43989C131.485 8.5664 131.265 8.74111 131.115 8.96401C130.97 9.18691 130.898 9.4309 130.898 9.69598C130.898 9.90683 130.952 10.0996 131.061 10.2743C131.175 10.443 131.338 10.6027 131.549 10.7533C131.766 10.8978 132.031 11.0364 132.344 11.1689C132.657 11.3015 133.016 11.428 133.419 11.5485C134.124 11.7714 134.748 12.0184 135.29 12.2895C135.838 12.5606 136.299 12.8678 136.672 13.2112C137.046 13.5546 137.326 13.9432 137.513 14.3769C137.706 14.8107 137.802 15.3017 137.802 15.8499C137.802 16.4343 137.688 16.9524 137.459 17.4042C137.236 17.856 136.91 18.2416 136.483 18.5609C136.061 18.8742 135.555 19.1121 134.964 19.2748C134.374 19.4375 133.714 19.5188 132.985 19.5188C132.323 19.5188 131.669 19.4344 131.025 19.2658C130.38 19.0911 129.796 18.826 129.271 18.4705C128.753 18.1151 128.338 17.6633 128.024 17.115C127.717 16.5608 127.563 15.9041 127.563 15.1451H130.509C130.509 15.5427 130.567 15.88 130.681 16.1572C130.796 16.4283 130.958 16.6482 131.169 16.8168C131.386 16.9855 131.648 17.106 131.955 17.1783C132.263 17.2506 132.606 17.2867 132.985 17.2867C133.425 17.2867 133.781 17.2265 134.052 17.106C134.329 16.9795 134.534 16.8078 134.666 16.5909C134.799 16.374 134.865 16.1331 134.865 15.868Z" fill="white"/>
<circle cx="12" cy="12" r="12" fill="white"/>
<g clip-path="url(#clip0_274_2423)">
<path d="M7.84648 12.6148C7.74961 12.5241 7.62636 12.407 7.50188 12.2916C6.78588 11.6292 6.14449 10.9074 5.80318 9.97544C5.38108 8.82374 5.41447 7.6976 6.12676 6.65966C7.11358 5.22272 9.01632 4.91562 10.5155 5.92676C11.2867 6.44697 11.7257 7.19553 12.0011 8.05992C12.0147 8.10238 12.0312 8.14443 12.0947 8.18688C12.1013 8.11928 12.1132 8.05209 12.1136 7.98449C12.1149 7.23016 12.1182 6.47623 12.1116 5.7219C12.1099 5.55743 12.1516 5.48199 12.3296 5.49642C12.4999 5.51002 12.6726 5.50343 12.8436 5.49807C12.9599 5.49436 13.0069 5.54424 13.0003 5.65718C12.997 5.712 13.0003 5.76683 13.0003 5.82165C13.0003 10.0521 13.0003 14.2826 13.0003 18.513C13.0003 18.731 12.8949 18.8399 12.6841 18.8399C12.3043 18.8399 12.1145 18.651 12.1145 18.2731C12.1145 17.903 12.1145 17.5328 12.114 17.1622C12.114 17.0979 12.1083 17.0332 12.1054 16.9689C12.086 16.9636 12.067 16.9586 12.0477 16.9532C12.018 17.0147 11.9879 17.0757 11.9586 17.1371C11.45 18.1923 10.6342 18.8836 9.46645 19.0299C7.53114 19.2719 5.98208 18.2076 5.51299 16.3939C5.1082 14.8279 5.4899 13.4132 6.42602 12.1255C6.43385 12.1148 6.44746 12.1086 6.47714 12.0859C6.67293 12.2034 6.87615 12.3254 7.09833 12.4586C7.00393 12.6222 6.91655 12.7743 6.82875 12.926C6.27639 13.8794 6.10821 14.8955 6.32792 15.9763C6.63501 17.4883 7.98127 18.4046 9.48664 18.1239C10.4199 17.95 11.227 17.0464 11.3766 15.9982C11.5741 14.6169 11.1355 13.4396 10.1804 12.4536C9.65647 11.9124 9.07362 11.4281 8.54641 10.8897C8.20798 10.5443 7.88976 10.1696 7.621 9.76851C7.29454 9.28088 7.18489 8.72193 7.31803 8.13701C7.53527 7.18316 8.61071 6.76271 9.49365 7.28374C10.0192 7.59413 10.3469 8.06776 10.5666 8.62176C10.6421 8.81179 10.6849 9.01459 10.7492 9.20915C10.7892 9.33116 10.7698 9.40206 10.6293 9.43009C10.4434 9.46719 10.2608 9.52078 10.0798 9.56653C9.97181 9.27964 9.88896 9.00429 9.76694 8.74748C9.58475 8.36289 9.31311 8.06322 8.8737 7.96099C8.49199 7.87237 8.1915 8.10733 8.17542 8.50016C8.1511 9.08631 8.45819 9.52408 8.83825 9.90784C9.33949 10.4144 9.87288 10.8885 10.3914 11.3782C11.0864 12.034 11.6891 12.7545 12.011 13.6737C12.0184 13.6948 12.0415 13.7104 12.093 13.7694C12.1033 13.6622 12.1145 13.6 12.1145 13.5377C12.1153 12.1321 12.1157 10.7265 12.1145 9.32086C12.1145 9.07271 12.1041 9.06735 11.8527 9.12671C11.7595 9.14856 11.6664 9.1704 11.5728 9.1906C11.5609 9.19308 11.5464 9.18689 11.5522 9.18772C11.4203 8.79818 11.3164 8.40659 11.1569 8.03931C10.7975 7.21161 10.2286 6.58547 9.33124 6.32784C7.86132 5.90656 6.46765 6.96387 6.44375 8.49109C6.42808 9.4977 6.86378 10.3064 7.5163 11.0146C7.90543 11.4371 8.34813 11.8102 8.7591 12.2133C9.1305 12.5781 9.52787 12.9248 9.84939 13.3308C10.5077 14.1626 10.7884 15.1099 10.4813 16.1602C10.2946 16.7995 9.88195 17.2439 9.18656 17.3193C8.40337 17.4042 7.76074 17.1532 7.3778 16.4236C6.93015 15.5715 6.97796 14.6882 7.28753 13.8131C7.43015 13.4103 7.64821 13.034 7.84689 12.6152L7.84648 12.6148ZM8.42934 13.1713C8.2863 13.4779 8.13131 13.7393 8.03939 14.0212C7.82422 14.6832 7.76693 15.3514 8.14038 15.9846C8.36998 16.3741 8.74756 16.532 9.13132 16.4244C9.4479 16.3358 9.6709 15.9891 9.69234 15.5732C9.7451 14.5472 9.21377 13.8283 8.42893 13.1709L8.42934 13.1713Z" fill="#002FFF"/>
<path d="M17.4122 6.69909C17.4122 6.36314 17.4085 6.02719 17.4139 5.69125C17.4163 5.55357 17.373 5.48885 17.2251 5.49668C17.054 5.50575 16.8817 5.50575 16.711 5.49668C16.5672 5.48885 16.5239 5.54285 16.521 5.68589C16.4988 6.6859 16.4814 7.68632 16.4369 8.6855C16.392 9.6917 16.2758 10.6917 16.0231 11.6699C15.9777 11.8451 15.8957 12.0178 15.7968 12.1699C15.7011 12.3174 15.5569 12.3146 15.4621 12.1662C15.3718 12.0248 15.3005 11.8632 15.2576 11.7004C14.8776 10.2597 14.8042 8.78361 14.7621 7.30462C14.7469 6.76339 14.7353 6.22217 14.7316 5.68053C14.7304 5.53213 14.6715 5.48926 14.5338 5.49668C14.3833 5.50493 14.2308 5.51152 14.0816 5.49545C13.8825 5.47401 13.8367 5.55852 13.8446 5.74153C13.9048 7.13726 13.9423 8.53381 14.0202 9.9283C14.0585 10.6179 14.1562 11.3104 14.4262 11.9531C14.5618 12.2758 14.7522 12.5899 14.979 12.8566C15.3454 13.2874 15.932 13.2857 16.2865 12.8508C16.5202 12.5639 16.7424 12.2342 16.8512 11.8867C17.028 11.3228 17.1612 10.7333 17.2172 10.1455C17.2172 10.1455 17.4196 7.09728 17.4122 6.69909Z" fill="#002FFF"/>
<path d="M19.1646 12.1688C19.1646 14.3081 19.1621 16.447 19.1687 18.5864C19.1691 18.7789 19.1254 18.8634 18.9197 18.8428C18.7569 18.8263 18.5904 18.8329 18.4263 18.8411C18.2886 18.8481 18.2379 18.7904 18.2524 18.6593C18.2561 18.6255 18.2528 18.5909 18.2528 18.5567C18.2528 14.299 18.2528 10.041 18.2528 5.78329C18.2528 5.59395 18.3444 5.49914 18.5277 5.49886C18.665 5.49886 18.8031 5.50999 18.9391 5.49598C19.1254 5.47702 19.1691 5.55369 19.1683 5.73052C19.1621 7.273 19.1646 8.81588 19.1646 10.3584C19.1646 10.9618 19.1646 11.5649 19.1646 12.1683V12.1688Z" fill="#002FFF"/>
<path d="M17.4343 12.6473C17.4343 14.2434 17.4343 15.8394 17.4343 17.4355C17.4343 17.8399 17.4302 18.2442 17.4363 18.6486C17.4384 18.7879 17.3964 18.8506 17.2488 18.8415C17.0917 18.8316 16.9326 18.8279 16.776 18.8424C16.5818 18.8605 16.5175 18.7987 16.5192 18.5946C16.5287 17.3613 16.5237 16.1276 16.5237 14.8943C16.5237 14.8147 16.5237 14.7351 16.5237 14.6469C15.3823 15.0035 15.3609 14.8493 14.7525 14.6469C14.7438 14.7438 14.729 14.8345 14.729 14.9248C14.7273 16.1379 14.7282 17.3506 14.7277 18.5637C14.7277 18.7475 14.6329 18.8396 14.4433 18.8399C14.2925 18.8399 14.1399 18.8522 13.9915 18.8329C13.9371 18.8259 13.8889 18.7463 13.8456 18.6935C13.832 18.6771 13.8432 18.6404 13.8432 18.6132C13.8432 16.6531 13.8432 14.6935 13.8432 12.7335V12.6201C14.229 13.4272 14.7545 14.0327 15.6849 14.0043C16.5629 13.9775 17.0592 13.3848 17.4343 12.6486V12.6473Z" fill="#002FFF"/>
</g>
<defs>
<clipPath id="clip0_274_2423">
<rect width="13.8175" height="13.7297" fill="white" transform="translate(5.35156 5.33398)"/>
</clipPath>
</defs>
</svg>
