<svg width="14" height="14" viewBox="0 0 14 14" fill="none" xmlns="http://www.w3.org/2000/svg">
<path d="M7 0C8.85652 0 10.637 0.737498 11.9497 2.05025C13.2625 3.36301 14 5.14348 14 7C14 8.85652 13.2625 10.637 11.9497 11.9497C10.637 13.2625 8.85652 14 7 14C5.14348 14 3.36301 13.2625 2.05025 11.9497C0.737498 10.637 0 8.85652 0 7C0 5.14348 0.737498 3.36301 2.05025 2.05025C3.36301 0.737498 5.14348 0 7 0ZM7 6.151L5.374 4.525C5.26142 4.41242 5.10872 4.34917 4.9495 4.34917C4.79028 4.34917 4.63758 4.41242 4.525 4.525C4.41242 4.63758 4.34917 4.79028 4.34917 4.9495C4.34917 5.10872 4.41242 5.26142 4.525 5.374L6.151 7L4.525 8.626C4.46925 8.68175 4.42503 8.74793 4.39486 8.82076C4.36469 8.8936 4.34917 8.97166 4.34917 9.0505C4.34917 9.12934 4.36469 9.2074 4.39486 9.28024C4.42503 9.35307 4.46925 9.41925 4.525 9.475C4.58075 9.53075 4.64693 9.57497 4.71976 9.60514C4.7926 9.63531 4.87066 9.65083 4.9495 9.65083C5.02834 9.65083 5.1064 9.63531 5.17924 9.60514C5.25207 9.57497 5.31825 9.53075 5.374 9.475L7 7.849L8.626 9.475C8.68175 9.53075 8.74793 9.57497 8.82076 9.60514C8.8936 9.63531 8.97166 9.65083 9.0505 9.65083C9.12934 9.65083 9.2074 9.63531 9.28024 9.60514C9.35307 9.57497 9.41925 9.53075 9.475 9.475C9.53075 9.41925 9.57497 9.35307 9.60514 9.28024C9.63531 9.2074 9.65083 9.12934 9.65083 9.0505C9.65083 8.97166 9.63531 8.8936 9.60514 8.82076C9.57497 8.74793 9.53075 8.68175 9.475 8.626L7.849 7L9.475 5.374C9.53075 5.31825 9.57497 5.25207 9.60514 5.17924C9.63531 5.1064 9.65083 5.02834 9.65083 4.9495C9.65083 4.87066 9.63531 4.7926 9.60514 4.71976C9.57497 4.64693 9.53075 4.58075 9.475 4.525C9.41925 4.46925 9.35307 4.42503 9.28024 4.39486C9.2074 4.36469 9.12934 4.34917 9.0505 4.34917C8.97166 4.34917 8.8936 4.36469 8.82076 4.39486C8.74793 4.42503 8.68175 4.46925 8.626 4.525L7 6.151Z" fill="#999999"/>
</svg>
