<svg width="245" height="58" viewBox="0 0 245 58" fill="none" xmlns="http://www.w3.org/2000/svg">
<path fill-rule="evenodd" clip-rule="evenodd" d="M138.359 20.1944H131.362V41.564C131.362 43.5612 130.046 44.8845 128.06 44.8845C126.073 44.8845 124.463 43.5612 124.463 41.564V20.1944H117.76C115.684 20.1944 114 18.5016 114 16.4136C114 14.3256 115.684 12.6328 117.76 12.6328H138.359C140.436 12.6328 141.825 14.3256 141.825 16.4136C141.825 18.5016 140.436 20.1944 138.359 20.1944Z" fill="white"/>
<path fill-rule="evenodd" clip-rule="evenodd" d="M150.195 13.2646C152.208 13.2646 153.84 14.8851 153.84 16.8839V41.5608C153.84 43.5596 152.208 44.884 150.195 44.884C148.182 44.884 146.252 43.5596 146.252 41.5608V16.8839C146.252 14.8851 148.182 13.2646 150.195 13.2646Z" fill="white"/>
<path fill-rule="evenodd" clip-rule="evenodd" d="M150.833 13.2646H168.863C170.858 13.2646 172.18 15.1949 172.18 17.2081C172.18 19.2212 170.858 20.8533 168.863 20.8533H150.833C149.134 20.8533 147.516 19.2212 147.516 17.2081C147.516 15.1949 149.134 13.2646 150.833 13.2646Z" fill="white"/>
<path fill-rule="evenodd" clip-rule="evenodd" d="M187.124 15.6828L207.181 35.7009C209.401 37.916 209.261 40.9911 207.581 42.6675C205.901 44.3439 203.069 44.2354 200.85 42.0202L180.792 22.0021C178.902 20.1151 178.464 16.9602 180.144 15.2838C181.824 13.6074 185.233 13.7958 187.124 15.6828Z" fill="white"/>
<path fill-rule="evenodd" clip-rule="evenodd" d="M180.089 36.4032L200.146 16.385C202.365 14.1699 205.446 14.3097 207.126 15.9861C208.806 17.6625 208.697 20.4892 206.477 22.7043L186.42 42.7225C184.53 44.6094 181.369 45.0462 179.689 43.3698C178.009 41.6934 178.198 38.2901 180.089 36.4032Z" fill="white"/>
<path fill-rule="evenodd" clip-rule="evenodd" d="M151.466 37.2959H169.495C171.49 37.2959 172.812 39.2262 172.812 41.2393C172.812 43.2525 171.49 44.8845 169.495 44.8845H151.466C149.766 44.8845 148.149 43.2525 148.149 41.2393C148.149 39.2262 149.766 37.2959 151.466 37.2959Z" fill="white"/>
<path fill-rule="evenodd" clip-rule="evenodd" d="M217.068 12.6328H217.722C219.812 12.6328 221.506 14.252 221.506 15.9533V41.564C221.506 43.5612 219.812 44.8845 217.722 44.8845H217.068C215.288 44.8845 213.285 43.5612 213.285 41.564V15.9533C213.285 14.252 215.288 12.6328 217.068 12.6328Z" fill="white"/>
<path fill-rule="evenodd" clip-rule="evenodd" d="M239.834 12.6328H240.488C242.577 12.6328 244.272 14.252 244.272 15.9533V41.564C244.272 43.5612 242.577 44.8845 240.488 44.8845H239.834C238.054 44.8845 236.051 43.5612 236.051 41.564V15.9533C236.051 14.252 238.054 12.6328 239.834 12.6328Z" fill="white"/>
<path fill-rule="evenodd" clip-rule="evenodd" d="M216.108 13.4369L216.375 13.253C217.996 12.1358 220.199 12.5692 221.295 14.2212L231.648 29.5797C232.744 31.2321 232.319 33.4771 230.698 34.5946L230.431 34.7785C228.81 35.8957 226.607 35.4623 225.51 33.8103L215.158 18.4518C214.062 16.7994 214.487 14.5544 216.108 13.4369Z" fill="white"/>
<path fill-rule="evenodd" clip-rule="evenodd" d="M241.392 14.0688L241.116 13.885C239.437 12.7676 237.156 13.201 236.02 14.8531L225.298 30.2116C224.162 31.8637 224.603 34.109 226.282 35.2264L226.558 35.4102C228.237 36.5276 230.518 36.0942 231.654 34.4421L242.376 19.0836C243.512 17.4315 243.071 15.1862 241.392 14.0688Z" fill="white"/>
<path fill-rule="evenodd" clip-rule="evenodd" d="M151.721 25.2803H167.342C169.608 25.2803 170.915 27.2106 170.915 29.2237C170.915 31.2369 169.608 32.8689 167.342 32.8689H151.721C149.748 32.8689 148.149 31.2369 148.149 29.2237C148.149 27.2106 149.748 25.2803 151.721 25.2803Z" fill="white"/>
<path fill-rule="evenodd" clip-rule="evenodd" d="M20.0781 9.4211C20.0781 9.4211 18.8284 7.96688 15.7896 7.65723C15.4338 8.64539 14.5365 11.1475 16.5888 12.7529C17.0445 13.6767 16.7381 15.0596 15.5946 16.4766C14.4512 18.2464 11.5094 21.8909 12.3003 22.9441C13.2163 23.731 16.6496 26.0944 22.2223 25.0804C23.49 24.8581 27.5356 24.3517 27.6804 22.3366C27.4245 21.5195 26.6931 20.1782 25.9455 19.2008C25.5488 18.2234 23.3919 14.3208 23.3919 14.3208C23.3919 14.3208 22.7036 13.5505 23.9767 12.1649C24.5742 11.3896 25.4231 10.3752 24.3666 7.85321C23.634 8.02705 22.5798 7.39304 20.0781 9.4211Z" fill="white"/>
<path fill-rule="evenodd" clip-rule="evenodd" d="M30.039 12.3604C30.039 12.3604 29.1099 14.2415 29.6491 14.9083C30.5392 15.9278 31.9813 17.2191 32.768 16.6721C33.668 16.5461 33.9376 15.8882 33.9376 15.8882C33.9376 15.8882 33.6951 20.4484 32.1832 20.9642C31.8491 20.8778 31.0136 20.1803 31.0136 20.1803C31.0136 20.1803 29.5364 19.9349 29.844 20.9642C30.3932 21.7927 32.4296 23.5395 35.0877 24.1196C36.883 24.6931 41.6351 25.869 46.2183 22.7477C47.562 22.1925 48.2793 21.6361 48.538 21.1602C48.7967 20.6844 48.5895 20.3349 48.1676 20.1803C48.0967 20.0256 47.6427 19.8883 47.3684 20.1803C47.0941 20.4723 46.6904 21.0363 46.2183 20.1803C46.0971 19.3242 44.8538 16.2802 44.8538 16.2802C44.8538 16.2802 46.2565 15.3477 46.4132 14.3203C46.9208 13.6457 46.477 12.3595 45.614 11.7725C45.3302 12.0214 43.7643 13.7849 42.4951 13.7323C41.2259 14.0326 39.5226 14.6548 38.0117 11.5765C37.0468 10.2593 35.7462 8.00367 33.7427 8.22513C33.4076 8.42445 30.6234 11.4848 30.039 12.3604ZM35.8869 22.7477C35.8869 22.7477 39.0783 24.0179 42.1247 22.7477C42.3101 22.7577 41.3965 21.0757 39.961 20.9642C38.5255 20.8527 37.406 20.8033 35.8869 22.7477Z" fill="white"/>
<path fill-rule="evenodd" clip-rule="evenodd" d="M58.1092 20.5723C58.1092 20.5723 57.239 19.5465 56.5303 19.7884C55.8215 20.0302 50.7617 21.32 49.7077 22.7478C49.578 23.1946 49.711 24.1873 51.2866 24.3157C53.2131 24.7968 57.5429 25.3099 58.8889 24.1197C60.5858 23.2822 61.7242 22.573 64.1326 17.8481C64.664 17.1935 66.1767 16.2048 66.1014 18.2401C66.3771 20.6282 66.2808 24.1387 65.7116 24.5117C66.6696 24.5117 68.0312 24.5117 68.0312 24.5117C68.0312 24.5117 67.5613 18.9018 67.4659 17.2602C67.7215 15.9714 68.7365 12.6094 68.4406 11.9685C68.4956 11.6804 67.6047 9.12675 64.347 8.04883C63.9833 8.73302 63.0116 10.1088 62.7681 12.1645C62.5246 14.573 62.5067 19.359 58.1092 20.5723Z" fill="white"/>
<path fill-rule="evenodd" clip-rule="evenodd" d="M26.2182 35.2714H22.0467V48.0104C22.0467 49.2011 21.2621 49.9899 20.0779 49.9899C18.8937 49.9899 17.9336 49.2011 17.9336 48.0104V35.2714H13.9375C12.6995 35.2714 11.6958 34.2622 11.6958 33.0175C11.6958 31.7728 12.6995 30.7637 13.9375 30.7637H26.2182C27.4562 30.7637 28.2845 31.7728 28.2845 33.0175C28.2845 34.2622 27.4562 35.2714 26.2182 35.2714Z" fill="white"/>
<path fill-rule="evenodd" clip-rule="evenodd" d="M33.1384 30.96C34.3226 30.96 35.2827 31.9252 35.2827 33.1158V47.8148C35.2827 49.0054 34.3226 49.7942 33.1384 49.7942C31.9542 49.7942 30.8187 49.0054 30.8187 47.8148V33.1158C30.8187 31.9252 31.9542 30.96 33.1384 30.96Z" fill="white"/>
<path fill-rule="evenodd" clip-rule="evenodd" d="M33.5478 30.96H44.2495C45.4338 30.96 46.2184 32.1016 46.2184 33.2922C46.2184 34.4828 45.4338 35.448 44.2495 35.448H33.5478C32.539 35.448 31.579 34.4828 31.579 33.2922C31.579 32.1016 32.539 30.96 33.5478 30.96Z" fill="white"/>
<path fill-rule="evenodd" clip-rule="evenodd" d="M54.842 32.5527L66.6312 44.4057C67.9358 45.7173 67.8534 47.5381 66.8661 48.5307C65.8789 49.5233 64.2141 49.459 62.9096 48.1474L51.1204 36.2944C50.0091 35.1771 49.7519 33.3091 50.7392 32.3165C51.7264 31.3238 53.7307 31.4354 54.842 32.5527Z" fill="white"/>
<path fill-rule="evenodd" clip-rule="evenodd" d="M50.7068 44.8213L62.4961 32.9683C63.8006 31.6567 65.6116 31.7395 66.5989 32.7321C67.5862 33.7248 67.5222 35.3985 66.2177 36.7101L54.4285 48.5631C53.3172 49.6804 51.4592 49.939 50.4719 48.9464C49.4846 47.9537 49.5956 45.9386 50.7068 44.8213Z" fill="white"/>
<path fill-rule="evenodd" clip-rule="evenodd" d="M33.7426 45.2666H44.4444C45.6286 45.2666 46.4132 46.4082 46.4132 47.5988C46.4132 48.7895 45.6286 49.7547 44.4444 49.7547H33.7426C32.7338 49.7547 31.7738 48.7895 31.7738 47.5988C31.7738 46.4082 32.7338 45.2666 33.7426 45.2666Z" fill="white"/>
<path fill-rule="evenodd" clip-rule="evenodd" d="M72.5146 30.7637H72.885C74.0692 30.7637 75.0292 31.7289 75.0292 32.7431V48.0104C75.0292 49.2011 74.0692 49.9899 72.885 49.9899H72.5146C71.5058 49.9899 70.3704 49.2011 70.3704 48.0104V32.7431C70.3704 31.7289 71.5058 30.7637 72.5146 30.7637Z" fill="white"/>
<path fill-rule="evenodd" clip-rule="evenodd" d="M85.77 30.7637H86.1404C87.3246 30.7637 88.2846 31.7289 88.2846 32.7431V48.0104C88.2846 49.2011 87.3246 49.9899 86.1404 49.9899H85.77C84.7612 49.9899 83.6257 49.2011 83.6257 48.0104V32.7431C83.6257 31.7289 84.7612 30.7637 85.77 30.7637Z" fill="white"/>
<path fill-rule="evenodd" clip-rule="evenodd" d="M71.7372 31.2974L71.8986 31.1876C72.8795 30.5207 74.2126 30.7794 74.876 31.7656L81.1409 40.934C81.8043 41.9204 81.5469 43.2606 80.566 43.9277L80.4046 44.0375C79.4235 44.7044 78.0906 44.4457 77.4271 43.4595L71.1623 34.2911C70.4988 33.3047 70.7561 31.9645 71.7372 31.2974Z" fill="white"/>
<path fill-rule="evenodd" clip-rule="evenodd" d="M86.7577 31.4403L86.5961 31.3312C85.6146 30.6678 84.2809 30.9251 83.617 31.906L77.3486 41.0249C76.6848 42.0058 76.9423 43.3389 77.9238 44.0023L78.0854 44.1114C79.0669 44.7749 80.4006 44.5175 81.0645 43.5366L87.333 34.4178C87.9967 33.4369 87.7392 32.1038 86.7577 31.4403Z" fill="white"/>
<path fill-rule="evenodd" clip-rule="evenodd" d="M33.9181 38.2314H43.2943C44.6539 38.2314 45.4385 39.3731 45.4385 40.5637C45.4385 41.7543 44.6539 42.7195 43.2943 42.7195H33.9181C32.7338 42.7195 31.7738 41.7543 31.7738 40.5637C31.7738 39.3731 32.7338 38.2314 33.9181 38.2314Z" fill="white"/>
<path fill-rule="evenodd" clip-rule="evenodd" d="M78.3137 8.42188C75.3935 8.42188 73.0262 10.802 73.0262 13.738L72.5145 19.5686C72.5145 22.5046 74.8818 24.8847 77.8021 24.8847H85.1364C88.0566 24.8847 90.4239 22.5046 90.4239 19.5686L89.9122 13.738C89.9122 10.802 87.5449 8.42188 84.6247 8.42188H78.3137ZM81.5545 14.4529C80.4162 14.4529 79.4843 13.5237 79.4843 12.3661C79.4843 11.8138 79.0366 11.3661 78.4843 11.3661C77.932 11.3661 77.4843 11.8138 77.4843 12.3661C77.4843 14.6181 79.3015 16.4529 81.5545 16.4529C83.8075 16.4529 85.6247 14.6181 85.6247 12.3661C85.6247 11.8138 85.1769 11.3661 84.6247 11.3661C84.0724 11.3661 83.6247 11.8138 83.6247 12.3661C83.6247 13.5237 82.6927 14.4529 81.5545 14.4529Z" fill="white"/>
</svg>
