<svg width="206" height="66" viewBox="0 0 206 66" fill="none" xmlns="http://www.w3.org/2000/svg">
<path fill-rule="evenodd" clip-rule="evenodd" d="M99.3591 24.1944H92.362V45.564C92.362 47.5612 91.046 48.8845 89.0596 48.8845C87.0733 48.8845 85.463 47.5612 85.463 45.564V24.1944H78.7601C76.6836 24.1944 75 22.5016 75 20.4136C75 18.3256 76.6836 16.6328 78.7601 16.6328H99.3591C101.436 16.6328 102.825 18.3256 102.825 20.4136C102.825 22.5016 101.436 24.1944 99.3591 24.1944Z" fill="#FB7701"/>
<path fill-rule="evenodd" clip-rule="evenodd" d="M111.195 17.2646C113.208 17.2646 114.84 18.8851 114.84 20.8839V45.5608C114.84 47.5596 113.208 48.884 111.195 48.884C109.182 48.884 107.252 47.5596 107.252 45.5608V20.8839C107.252 18.8851 109.182 17.2646 111.195 17.2646Z" fill="#FB7701"/>
<path fill-rule="evenodd" clip-rule="evenodd" d="M111.833 17.2646H129.863C131.858 17.2646 133.18 19.1949 133.18 21.2081C133.18 23.2212 131.858 24.8533 129.863 24.8533H111.833C110.134 24.8533 108.516 23.2212 108.516 21.2081C108.516 19.1949 110.134 17.2646 111.833 17.2646Z" fill="#FB7701"/>
<path fill-rule="evenodd" clip-rule="evenodd" d="M148.124 19.6828L168.181 39.7009C170.401 41.916 170.261 44.9911 168.581 46.6675C166.901 48.3439 164.069 48.2354 161.85 46.0202L141.792 26.0021C139.902 24.1151 139.464 20.9602 141.144 19.2838C142.824 17.6074 146.233 17.7958 148.124 19.6828Z" fill="#FB7701"/>
<path fill-rule="evenodd" clip-rule="evenodd" d="M141.089 40.4032L161.146 20.385C163.365 18.1699 166.446 18.3097 168.126 19.9861C169.806 21.6625 169.697 24.4892 167.477 26.7043L147.42 46.7225C145.53 48.6094 142.369 49.0462 140.689 47.3698C139.009 45.6934 139.198 42.2901 141.089 40.4032Z" fill="#FB7701"/>
<path fill-rule="evenodd" clip-rule="evenodd" d="M112.466 41.2959H130.495C132.49 41.2959 133.812 43.2262 133.812 45.2393C133.812 47.2525 132.49 48.8845 130.495 48.8845H112.466C110.766 48.8845 109.149 47.2525 109.149 45.2393C109.149 43.2262 110.766 41.2959 112.466 41.2959Z" fill="#FB7701"/>
<path fill-rule="evenodd" clip-rule="evenodd" d="M178.068 16.6328H178.722C180.812 16.6328 182.506 18.252 182.506 19.9533V45.564C182.506 47.5612 180.812 48.8845 178.722 48.8845H178.068C176.288 48.8845 174.285 47.5612 174.285 45.564V19.9533C174.285 18.252 176.288 16.6328 178.068 16.6328Z" fill="#FB7701"/>
<path fill-rule="evenodd" clip-rule="evenodd" d="M200.834 16.6328H201.488C203.577 16.6328 205.272 18.252 205.272 19.9533V45.564C205.272 47.5612 203.577 48.8845 201.488 48.8845H200.834C199.054 48.8845 197.051 47.5612 197.051 45.564V19.9533C197.051 18.252 199.054 16.6328 200.834 16.6328Z" fill="#FB7701"/>
<path fill-rule="evenodd" clip-rule="evenodd" d="M177.108 17.4369L177.375 17.253C178.996 16.1358 181.199 16.5692 182.295 18.2212L192.648 33.5797C193.744 35.2321 193.319 37.4771 191.698 38.5946L191.431 38.7785C189.81 39.8957 187.607 39.4623 186.51 37.8103L176.158 22.4518C175.062 20.7994 175.487 18.5544 177.108 17.4369Z" fill="#FB7701"/>
<path fill-rule="evenodd" clip-rule="evenodd" d="M202.392 18.0688L202.116 17.885C200.437 16.7676 198.156 17.201 197.02 18.8531L186.298 34.2116C185.162 35.8637 185.603 38.109 187.282 39.2264L187.558 39.4102C189.237 40.5276 191.518 40.0942 192.654 38.4421L203.376 23.0836C204.512 21.4315 204.071 19.1862 202.392 18.0688Z" fill="#FB7701"/>
<path fill-rule="evenodd" clip-rule="evenodd" d="M112.721 29.2803H128.342C130.608 29.2803 131.915 31.2106 131.915 33.2237C131.915 35.2369 130.608 36.8689 128.342 36.8689H112.721C110.748 36.8689 109.149 35.2369 109.149 33.2237C109.149 31.2106 110.748 29.2803 112.721 29.2803Z" fill="#FB7701"/>
<g clip-path="url(#clip0_528_1844)">
<path fill-rule="evenodd" clip-rule="evenodd" d="M0 20C0 8.95431 8.95431 0 20 0H46C57.0457 0 66 8.95431 66 20V46C66 57.0457 57.0457 66 46 66H20C8.95431 66 0 57.0457 0 46V20Z" fill="#FB7701"/>
<path fill-rule="evenodd" clip-rule="evenodd" d="M13.2515 20.1722C13.2515 20.1722 12.4267 19.2195 10.4211 19.0166C10.1863 19.664 9.59409 21.3034 10.9486 22.3551C11.2494 22.9604 11.0471 23.8664 10.2924 24.7948C9.53774 25.9543 7.59621 28.3421 8.11817 29.0322C8.72271 29.5477 10.9887 31.0961 14.6667 30.4318C15.5033 30.2862 18.1735 29.9544 18.269 28.6341C18.1001 28.0988 17.6174 27.22 17.124 26.5796C16.8622 25.9393 15.4386 23.3824 15.4386 23.3824C15.4386 23.3824 14.9844 22.8777 15.8246 21.9699C16.2189 21.4619 16.7792 20.7973 16.0819 19.145C15.5984 19.2589 14.9027 18.8435 13.2515 20.1722Z" fill="white"/>
<path fill-rule="evenodd" clip-rule="evenodd" d="M19.8258 22.0982C19.8258 22.0982 19.2126 23.3306 19.5685 23.7674C20.1559 24.4354 21.1077 25.2815 21.6269 24.9231C22.2209 24.8405 22.3989 24.4095 22.3989 24.4095C22.3989 24.4095 22.2388 27.3972 21.241 27.7351C21.0205 27.6785 20.469 27.2215 20.469 27.2215C20.469 27.2215 19.4941 27.0608 19.6971 27.7351C20.0595 28.2779 21.4036 29.4224 23.1579 29.8025C24.3428 30.1782 27.4792 30.9486 30.5041 28.9036C31.3909 28.5399 31.8644 28.1753 32.0351 27.8636C32.2058 27.5518 32.0691 27.3228 31.7907 27.2215C31.7438 27.1202 31.4442 27.0302 31.2632 27.2215C31.0822 27.4129 30.8157 27.7824 30.5041 27.2215C30.4241 26.6607 29.6035 24.6663 29.6035 24.6663C29.6035 24.6663 30.5293 24.0553 30.6328 23.3822C30.9678 22.9403 30.6749 22.0975 30.1053 21.713C29.918 21.876 28.8845 23.0314 28.0468 22.997C27.2091 23.1937 26.085 23.6014 25.0878 21.5846C24.4509 20.7216 23.5925 19.2437 22.2702 19.3888C22.0491 19.5194 20.2115 21.5245 19.8258 22.0982ZM23.6854 28.9036C23.6854 28.9036 25.7918 29.7358 27.8024 28.9036C27.9247 28.9102 27.3217 27.8082 26.3743 27.7351C25.4269 27.6621 24.688 27.6297 23.6854 28.9036Z" fill="white"/>
<path fill-rule="evenodd" clip-rule="evenodd" d="M38.3521 27.4785C38.3521 27.4785 37.7778 26.8064 37.31 26.9649C36.8422 27.1233 33.5027 27.9684 32.807 28.9038C32.7215 29.1965 32.8092 29.8469 33.8492 29.931C35.1207 30.2463 37.9783 30.5824 38.8667 29.8026C39.9866 29.2539 40.738 28.7893 42.3275 25.6937C42.6782 25.2648 43.6766 24.617 43.6269 25.9505C43.8089 27.5151 43.7453 29.8151 43.3696 30.0594C44.002 30.0594 44.9006 30.0594 44.9006 30.0594C44.9006 30.0594 44.5904 26.384 44.5275 25.3085C44.6962 24.4641 45.3661 22.2614 45.1708 21.8415C45.2071 21.6528 44.6191 19.9797 42.469 19.2734C42.229 19.7217 41.5876 20.6231 41.4269 21.9699C41.2662 23.5479 41.2544 26.6835 38.3521 27.4785Z" fill="white"/>
<path fill-rule="evenodd" clip-rule="evenodd" d="M17.304 37.1086H14.5508V45.4549C14.5508 46.2349 14.033 46.7518 13.2514 46.7518C12.4698 46.7518 11.8362 46.2349 11.8362 45.4549V37.1086H9.19877C8.38168 37.1086 7.71924 36.4474 7.71924 35.6319C7.71924 34.8164 8.38168 34.1553 9.19877 34.1553H17.304C18.1211 34.1553 18.6678 34.8164 18.6678 35.6319C18.6678 36.4474 18.1211 37.1086 17.304 37.1086Z" fill="white"/>
<path fill-rule="evenodd" clip-rule="evenodd" d="M21.8713 34.2842C22.6529 34.2842 23.2865 34.9166 23.2865 35.6966V45.327C23.2865 46.107 22.6529 46.6239 21.8713 46.6239C21.0897 46.6239 20.3403 46.107 20.3403 45.327V35.6966C20.3403 34.9166 21.0897 34.2842 21.8713 34.2842Z" fill="white"/>
<path fill-rule="evenodd" clip-rule="evenodd" d="M22.1416 34.2842H29.2047C29.9863 34.2842 30.5042 35.0321 30.5042 35.8122C30.5042 36.5923 29.9863 37.2246 29.2047 37.2246H22.1416C21.4758 37.2246 20.8422 36.5923 20.8422 35.8122C20.8422 35.0321 21.4758 34.2842 22.1416 34.2842Z" fill="white"/>
<path fill-rule="evenodd" clip-rule="evenodd" d="M36.1957 35.3271L43.9766 43.0929C44.8376 43.9522 44.7833 45.1451 44.1317 45.7955C43.4801 46.4458 42.3814 46.4037 41.5204 45.5444L33.7395 37.7786C33.006 37.0466 32.8363 35.8227 33.4879 35.1724C34.1395 34.522 35.4623 34.5951 36.1957 35.3271Z" fill="white"/>
<path fill-rule="evenodd" clip-rule="evenodd" d="M33.4665 43.3653L41.2474 35.5995C42.1084 34.7402 43.3036 34.7944 43.9553 35.4448C44.6069 36.0951 44.5647 37.1917 43.7037 38.051L35.9228 45.8168C35.1893 46.5488 33.963 46.7182 33.3114 46.0679C32.6598 45.4175 32.733 44.0973 33.4665 43.3653Z" fill="white"/>
<path fill-rule="evenodd" clip-rule="evenodd" d="M22.2701 43.6572H29.3333C30.1149 43.6572 30.6327 44.4052 30.6327 45.1852C30.6327 45.9653 30.1149 46.5977 29.3333 46.5977H22.2701C21.6043 46.5977 20.9707 45.9653 20.9707 45.1852C20.9707 44.4052 21.6043 43.6572 22.2701 43.6572Z" fill="white"/>
<path fill-rule="evenodd" clip-rule="evenodd" d="M47.8597 34.1553H48.1041C48.8857 34.1553 49.5193 34.7877 49.5193 35.4522V45.4549C49.5193 46.2349 48.8857 46.7518 48.1041 46.7518H47.8597C47.1939 46.7518 46.4445 46.2349 46.4445 45.4549V35.4522C46.4445 34.7877 47.1939 34.1553 47.8597 34.1553Z" fill="white"/>
<path fill-rule="evenodd" clip-rule="evenodd" d="M56.6082 34.1553H56.8526C57.6342 34.1553 58.2678 34.7877 58.2678 35.4522V45.4549C58.2678 46.2349 57.6342 46.7518 56.8526 46.7518H56.6082C55.9424 46.7518 55.193 46.2349 55.193 45.4549V35.4522C55.193 34.7877 55.9424 34.1553 56.6082 34.1553Z" fill="white"/>
<path fill-rule="evenodd" clip-rule="evenodd" d="M47.3465 34.5049L47.4531 34.433C48.1005 33.996 48.9803 34.1655 49.4181 34.8117L53.553 40.8186C53.9908 41.4648 53.821 42.3429 53.1736 42.78L53.0671 42.8519C52.4195 43.2888 51.5398 43.1193 51.1019 42.4732L46.9671 36.4663C46.5292 35.82 46.699 34.942 47.3465 34.5049Z" fill="white"/>
<path fill-rule="evenodd" clip-rule="evenodd" d="M57.2601 34.599L57.1535 34.5274C56.5057 34.0928 55.6254 34.2614 55.1872 34.904L51.0501 40.8785C50.612 41.5211 50.782 42.3945 51.4297 42.8292L51.5364 42.9007C52.1842 43.3353 53.0644 43.1668 53.5026 42.5241L57.6398 36.5497C58.0778 35.907 57.9079 35.0336 57.2601 34.599Z" fill="white"/>
<path fill-rule="evenodd" clip-rule="evenodd" d="M22.3859 39.0479H28.5742C29.4716 39.0479 29.9894 39.7958 29.9894 40.5759C29.9894 41.3559 29.4716 41.9883 28.5742 41.9883H22.3859C21.6043 41.9883 20.9707 41.3559 20.9707 40.5759C20.9707 39.7958 21.6043 39.0479 22.3859 39.0479Z" fill="white"/>
<path fill-rule="evenodd" clip-rule="evenodd" d="M51.6871 19.5176C49.7598 19.5176 48.1973 21.077 48.1973 23.0006L47.8596 26.8206C47.8596 28.7442 49.422 30.3036 51.3494 30.3036H56.19C58.1174 30.3036 59.6798 28.7442 59.6798 26.8206L59.3421 23.0006C59.3421 21.077 57.7797 19.5176 55.8523 19.5176H51.6871ZM53.826 23.1241C53.2573 23.1241 52.7997 22.6645 52.7997 22.1017C52.7997 21.5494 52.352 21.1017 51.7997 21.1017C51.2474 21.1017 50.7997 21.5494 50.7997 22.1017C50.7997 23.7728 52.1564 25.1241 53.826 25.1241C55.4955 25.1241 56.8523 23.7728 56.8523 22.1017C56.8523 21.5494 56.4046 21.1017 55.8523 21.1017C55.3 21.1017 54.8523 21.5494 54.8523 22.1017C54.8523 22.6645 54.3946 23.1241 53.826 23.1241Z" fill="white"/>
</g>
<defs>
<clipPath id="clip0_528_1844">
<rect width="66" height="66" fill="white"/>
</clipPath>
</defs>
</svg>
