<svg width="11" height="11" viewBox="0 0 11 11" fill="none" xmlns="http://www.w3.org/2000/svg">
<g clip-path="url(#clip0_3934_35988)">
<path d="M5.5 11C2.46262 11 0 8.53738 0 5.5C0 2.46262 2.46262 0 5.5 0C8.53738 0 11 2.46262 11 5.5C11 8.53738 8.53738 11 5.5 11ZM5.5 4.85192L3.22942 2.58042C3.18683 2.53813 3.13634 2.50465 3.08082 2.48188C3.02529 2.45911 2.96583 2.4475 2.90582 2.44771C2.84581 2.44793 2.78643 2.45996 2.73107 2.48312C2.6757 2.50628 2.62545 2.54012 2.58317 2.58271C2.54042 2.6249 2.50643 2.67512 2.48317 2.7305C2.4599 2.78587 2.44781 2.84529 2.4476 2.90536C2.44739 2.96542 2.45905 3.02493 2.48193 3.08047C2.5048 3.136 2.53843 3.18647 2.58087 3.22896L4.85192 5.5L2.58042 7.77058C2.53813 7.81317 2.50465 7.86366 2.48188 7.91918C2.45911 7.97471 2.4475 8.03417 2.44771 8.09418C2.44793 8.15419 2.45996 8.21357 2.48312 8.26893C2.50628 8.3243 2.54012 8.37455 2.58271 8.41683C2.6249 8.45958 2.67512 8.49357 2.7305 8.51683C2.78587 8.5401 2.84529 8.55219 2.90536 8.5524C2.96542 8.55261 3.02493 8.54095 3.08047 8.51807C3.136 8.4952 3.18647 8.46157 3.22896 8.41913L5.5 6.14808L7.77058 8.41913C7.81317 8.46141 7.86366 8.49489 7.91918 8.51766C7.97471 8.54043 8.03417 8.55204 8.09418 8.55183C8.15419 8.55161 8.21357 8.53958 8.26893 8.51642C8.3243 8.49326 8.37455 8.45942 8.41683 8.41683C8.45958 8.37464 8.49357 8.32442 8.51683 8.26905C8.5401 8.21367 8.55219 8.15425 8.5524 8.09418C8.55261 8.03412 8.54095 7.97461 8.51807 7.91908C8.4952 7.86354 8.46157 7.81307 8.41913 7.77058L6.14808 5.5L8.41913 3.22942C8.46141 3.18683 8.49489 3.13634 8.51766 3.08082C8.54043 3.02529 8.55204 2.96583 8.55183 2.90582C8.55161 2.84581 8.53958 2.78643 8.51642 2.73107C8.49326 2.6757 8.45942 2.62545 8.41683 2.58317C8.37464 2.54042 8.32442 2.50643 8.26905 2.48317C8.21367 2.4599 8.15425 2.44781 8.09418 2.4476C8.03412 2.44739 7.97461 2.45905 7.91908 2.48193C7.86354 2.5048 7.81307 2.53843 7.77058 2.58087L5.5 4.85192Z" fill="white"/>
</g>
<defs>
<clipPath id="clip0_3934_35988">
<rect width="11" height="11" fill="white"/>
</clipPath>
</defs>
</svg>
