<svg width="15" height="15" viewBox="0 0 15 15" fill="none" xmlns="http://www.w3.org/2000/svg">
<path d="M7.5 14.0552C11.1204 14.0552 14.0552 11.1204 14.0552 7.5C14.0552 3.87964 11.1204 0.944824 7.5 0.944824C3.87964 0.944824 0.944825 3.87964 0.944825 7.5C0.944825 11.1204 3.87964 14.0552 7.5 14.0552ZM5.65708 10.5363C5.46899 10.2894 5.5166 9.93677 5.76372 9.74898L8.71758 7.5L5.76372 5.25103C5.5166 5.06323 5.46899 4.71035 5.65708 4.46367C5.84502 4.2167 6.19761 4.16895 6.44443 4.35703L9.9854 7.05293C9.9895 7.05615 9.99243 7.06025 9.99639 7.06362C10.0185 7.08135 10.0386 7.10186 10.0581 7.12324C10.0673 7.13335 10.0777 7.14258 10.086 7.15327C10.0878 7.15562 10.0901 7.15723 10.092 7.15957C10.1136 7.18784 10.1313 7.21772 10.1467 7.24849C10.1505 7.25625 10.1533 7.26416 10.1566 7.27207C10.1692 7.30049 10.1795 7.32935 10.1871 7.35879C10.1896 7.36831 10.1921 7.37769 10.1941 7.3875C10.2018 7.42471 10.2069 7.46206 10.2069 7.49971L10.2069 7.50029C10.2069 7.53794 10.2018 7.57529 10.1941 7.6125C10.1921 7.62217 10.1896 7.63154 10.1871 7.64121C10.1795 7.67065 10.1692 7.69966 10.1566 7.72793C10.1531 7.73584 10.1505 7.74375 10.1467 7.75151C10.1313 7.78213 10.1136 7.81201 10.092 7.84043C10.0903 7.84277 10.0879 7.84438 10.0862 7.84673C10.0777 7.85742 10.0674 7.86665 10.0581 7.87676C10.0386 7.89814 10.0185 7.91851 9.99639 7.93638C9.99229 7.9396 9.9895 7.94385 9.9854 7.94707L6.44443 10.643C6.19761 10.8309 5.84502 10.7832 5.65708 10.5363Z" fill="#C5C5C5"/>
</svg>
