<svg width="22" height="22" viewBox="0 0 22 22" fill="none" xmlns="http://www.w3.org/2000/svg">
<g clip-path="url(#clip0_3934_35983)">
<path d="M11 0C4.95 0 0 4.95 0 11C0 17.05 4.95 22 11 22C17.05 22 22 17.05 22 11C22 4.95 17.05 0 11 0ZM11 21.0833C5.45417 21.0833 0.916667 16.5458 0.916667 11C0.916667 5.45417 5.45417 0.916667 11 0.916667C16.5458 0.916667 21.0833 5.45417 21.0833 11C21.0833 16.5458 16.5458 21.0833 11 21.0833Z" fill="white"/>
<path d="M14.4373 9.48755L10.7707 7.05839C9.53317 6.23339 8.479 6.78339 8.479 8.29589V13.7959C8.479 15.3084 9.48734 15.8584 10.7707 15.0334L14.4373 12.6042C15.6748 11.6876 15.6748 10.3126 14.4373 9.48755Z" fill="white"/>
</g>
<defs>
<clipPath id="clip0_3934_35983">
<rect width="22" height="22" fill="white"/>
</clipPath>
</defs>
</svg>
