<svg width="177" height="66" viewBox="0 0 177 66" fill="none" xmlns="http://www.w3.org/2000/svg">
<path d="M14.7949 22.2346C14.7949 12.491 21.1057 3.55371 28.8905 3.55371C36.6752 3.55371 42.9861 12.4913 42.9861 22.2346" stroke="#FF532C" stroke-width="6"/>
<path fill-rule="evenodd" clip-rule="evenodd" d="M25.1237 21.7131H3.4959C3.4959 21.7131 0.273955 21.5423 0.469491 24.5918C0.665026 27.6414 3.20064 60.7611 3.20064 60.7611C3.20064 60.7611 3.74089 65.4853 9.54872 65.4853H48.4491C48.4491 65.4853 53.7925 65.59 54.4282 59.6539C55.0638 53.7178 56.9379 24.518 56.9379 24.518C56.9379 24.518 57.676 21.5654 54.0591 21.5654C50.4421 21.5654 25.1237 21.7131 25.1237 21.7131ZM26.0395 32.1842C26.8993 31.3667 28.0484 30.9578 29.4867 30.9576C30.3943 30.931 31.2947 31.1271 32.109 31.5287C32.8445 31.8744 33.5516 32.2775 34.2238 32.7341C34.627 33.0377 35.115 33.2078 35.6196 33.2205C36.1272 33.2353 36.5078 33.0308 36.7616 32.6072C37.0716 32.0719 37.0716 31.5291 36.7616 30.9788C36.4516 30.4286 35.937 29.9351 35.2178 29.4985C34.4988 29.0616 33.6317 28.695 32.6166 28.3986C31.5998 28.1023 30.5459 27.9528 29.4868 27.9545C28.4451 27.9499 27.4095 28.1142 26.4204 28.4409C25.4757 28.7495 24.5996 29.2378 23.8403 29.879C23.0866 30.5216 22.4745 31.3138 22.0428 32.2053C21.5914 33.1219 21.3658 34.144 21.366 35.2717C21.366 36.5128 21.5634 37.5632 21.9582 38.4228C22.3471 39.2755 22.9172 40.0333 23.6288 40.6433C24.4065 41.3019 25.2666 41.8564 26.1876 42.2926C27.1743 42.7724 28.2458 43.2377 29.4021 43.6884C30.0469 43.9542 30.6754 44.2579 31.2844 44.5978C31.9089 44.9433 32.4849 45.37 32.9974 45.8667C33.5012 46.3553 33.9162 46.9278 34.224 47.5585C34.5411 48.2253 34.7002 48.9562 34.689 49.6944C34.6953 50.455 34.529 51.2071 34.2026 51.8941C33.892 52.5521 33.4535 53.1416 32.9126 53.6282C32.37 54.1122 31.7476 54.4986 31.0731 54.7702C30.3957 55.0496 29.67 55.1933 28.9372 55.1932C27.815 55.2051 26.7013 54.9967 25.6593 54.5799C24.6891 54.1878 23.761 53.699 22.8889 53.1207C22.4091 52.8107 21.965 52.6415 21.5566 52.6131C21.1481 52.5848 20.7886 52.7681 20.478 53.163C20.1112 53.6705 20.1112 54.2627 20.478 54.9394C20.8449 55.6162 21.6344 56.2647 22.8466 56.885C23.7356 57.3056 24.6634 57.6385 25.617 57.879C26.6452 58.1465 27.706 58.2675 28.768 58.2385C30.0467 58.2242 31.3132 57.9881 32.5112 57.5407C33.6019 57.1355 34.6011 56.5172 35.4504 55.7219C36.2678 54.9467 36.9158 54.0107 37.3537 52.9727C37.8114 51.8816 38.0416 50.7087 38.0304 49.5255C38.0304 48.3981 37.8754 47.4112 37.5654 46.5648C37.2653 45.7362 36.8054 44.9746 36.2119 44.3231C35.5809 43.6434 34.8543 43.0592 34.0548 42.589C33.1263 42.0391 32.1659 41.5447 31.1787 41.1087C30.3605 40.7425 29.5639 40.3759 28.7889 40.0088C28.0712 39.676 27.3847 39.2797 26.7376 38.8245C26.169 38.4264 25.6811 37.924 25.2996 37.3442C24.9328 36.7804 24.7495 36.1038 24.7497 35.3143C24.7496 34.0453 25.1796 33.0019 26.0395 32.1842Z" fill="#FF532C"/>
<path d="M72.5938 49.3125C72.0417 48.8125 71.8958 48.375 72.1562 48L72.9688 46.8281C73.25 46.4219 73.7031 46.4531 74.3281 46.9219C75.151 47.5365 76.0052 48.0417 76.8906 48.4375C77.7865 48.8333 78.8698 49.0312 80.1406 49.0312C81.0781 49.0312 81.8698 48.8906 82.5156 48.6094C83.1615 48.3281 83.6771 47.9271 84.0625 47.4062C84.4583 46.875 84.6562 46.2344 84.6562 45.4844C84.6562 44.9427 84.5729 44.4427 84.4062 43.9844C84.25 43.5156 83.9948 43.125 83.6406 42.8125C83.2865 42.5 82.9167 42.2552 82.5312 42.0781C81.8958 41.7865 80.9427 41.4479 79.6719 41.0625C78.4115 40.6771 77.3073 40.2604 76.3594 39.8125C75.4219 39.3646 74.6719 38.8229 74.1094 38.1875C73.5573 37.5521 73.1875 36.901 73 36.2344C72.8229 35.5573 72.7344 34.7865 72.7344 33.9219C72.7344 32.599 73.1198 31.4583 73.8906 30.5C74.6615 29.5417 75.6042 28.9062 76.7188 28.5938C77.8438 28.2812 78.9844 28.125 80.1406 28.125C81.4635 28.125 82.6146 28.2969 83.5938 28.6406C84.5729 28.9844 85.4479 29.4323 86.2188 29.9844C86.7604 30.3698 86.8854 30.776 86.5938 31.2031L85.7969 32.3438C85.5573 32.6875 85.0885 32.6146 84.3906 32.125C83.8594 31.75 83.2083 31.401 82.4375 31.0781C81.6771 30.7448 80.9219 30.5781 80.1719 30.5781C79.2135 30.5781 78.4167 30.6927 77.7812 30.9219C77.1458 31.1406 76.6458 31.5156 76.2812 32.0469C75.9167 32.5781 75.7344 33.1927 75.7344 33.8906C75.7344 34.3281 75.776 34.7344 75.8594 35.1094C75.9427 35.474 76.1562 35.849 76.5 36.2344C76.8438 36.6198 77.2604 36.9167 77.75 37.125C78.4062 37.4062 79.4219 37.7396 80.7969 38.125C82.1823 38.5 83.3906 38.9635 84.4219 39.5156C85.3802 40.026 86.0677 40.5625 86.4844 41.125C86.9115 41.6771 87.2396 42.2812 87.4688 42.9375C87.7083 43.5833 87.8281 44.3125 87.8281 45.125C87.8281 46.6042 87.4479 47.8385 86.6875 48.8281C85.9271 49.8177 85.026 50.5052 83.9844 50.8906C82.9427 51.276 81.6354 51.4688 80.0625 51.4688C78.1771 51.4688 76.6146 51.25 75.375 50.8125C74.1354 50.375 73.2083 49.875 72.5938 49.3125ZM92.0469 51C91.5781 51 91.3438 50.7656 91.3438 50.2969V28.6406C91.3438 28.1719 91.5781 27.9375 92.0469 27.9375H93.3906C93.8594 27.9375 94.0938 28.1719 94.0938 28.6406V35.6094C94.0938 35.9219 94.0833 36.2344 94.0625 36.5469H94.125C94.8021 35.7969 95.5312 35.2396 96.3125 34.875C97.0938 34.5104 98.0677 34.3281 99.2344 34.3281C101.13 34.3281 102.49 34.8646 103.312 35.9375C104.146 37 104.562 38.4583 104.562 40.3125V50.2969C104.562 50.7656 104.328 51 103.859 51H102.516C102.047 51 101.812 50.7656 101.812 50.2969V41.0625C101.812 39.0208 101.474 37.7292 100.797 37.1875C100.12 36.6354 99.2604 36.3594 98.2188 36.3594C96.8646 36.3594 95.8385 36.7656 95.1406 37.5781C94.4427 38.3802 94.0938 39.7604 94.0938 41.7188V50.2969C94.0938 50.7656 93.8594 51 93.3906 51H92.0469ZM108.078 42.7969C108.078 40.349 108.724 38.3281 110.016 36.7344C111.318 35.1302 113.219 34.3281 115.719 34.3281C118.219 34.3281 120.115 35.1302 121.406 36.7344C122.708 38.3281 123.359 40.349 123.359 42.7969C123.359 45.2448 122.708 47.2708 121.406 48.875C120.115 50.4688 118.219 51.2656 115.719 51.2656C113.219 51.2656 111.318 50.4688 110.016 48.875C108.724 47.2708 108.078 45.2448 108.078 42.7969ZM110.984 42.7969C110.984 44.9844 111.417 46.6042 112.281 47.6562C113.146 48.7083 114.292 49.2344 115.719 49.2344C117.146 49.2344 118.292 48.7083 119.156 47.6562C120.021 46.6042 120.453 44.9844 120.453 42.7969C120.453 40.6094 120.021 38.9896 119.156 37.9375C118.292 36.8854 117.146 36.3594 115.719 36.3594C114.292 36.3594 113.146 36.8854 112.281 37.9375C111.417 38.9896 110.984 40.6094 110.984 42.7969ZM127.609 57.25C127.141 57.25 126.906 57.0156 126.906 56.5469V35.2969C126.906 34.8281 127.141 34.5938 127.609 34.5938H128.922C129.297 34.5938 129.5 34.8281 129.531 35.2969L129.625 36.5469H129.656C130.229 35.8594 130.875 35.3177 131.594 34.9219C132.312 34.526 133.271 34.3281 134.469 34.3281C136.552 34.3281 138.135 35.1823 139.219 36.8906C140.302 38.5885 140.844 40.5573 140.844 42.7969C140.844 45.0365 140.302 47.0104 139.219 48.7188C138.135 50.4167 136.552 51.2656 134.469 51.2656C133.271 51.2656 132.312 51.0677 131.594 50.6719C130.875 50.276 130.229 49.7344 129.656 49.0469H129.625C129.646 49.3594 129.656 49.6771 129.656 50V56.5469C129.656 57.0156 129.422 57.25 128.953 57.25H127.609ZM129.656 44.5938C129.656 46.1562 130.026 47.3229 130.766 48.0938C131.516 48.8542 132.453 49.2344 133.578 49.2344C135.161 49.2344 136.281 48.6406 136.938 47.4531C137.604 46.2656 137.938 44.7135 137.938 42.7969C137.938 40.8802 137.604 39.3281 136.938 38.1406C136.281 36.9531 135.161 36.3594 133.578 36.3594C132.453 36.3594 131.516 36.7448 130.766 37.5156C130.026 38.276 129.656 39.4375 129.656 41V44.5938ZM143.516 42.7969C143.516 40.2135 144.161 38.1562 145.453 36.625C146.745 35.0938 148.594 34.3281 151 34.3281C153 34.3281 154.656 35.0312 155.969 36.4375C157.292 37.8333 157.953 40.0677 157.953 43.1406C157.953 43.6094 157.74 43.8438 157.312 43.8438H146.422C146.599 45.8542 147.141 47.2552 148.047 48.0469C148.953 48.8281 149.979 49.2188 151.125 49.2188C152.333 49.2188 153.26 49.0156 153.906 48.6094C154.552 48.2031 155.026 47.8021 155.328 47.4062C155.661 46.9688 155.984 46.8854 156.297 47.1562L157.219 47.9531C157.458 48.1615 157.458 48.4479 157.219 48.8125C157.021 49.1146 156.453 49.599 155.516 50.2656C154.589 50.9323 153.125 51.2656 151.125 51.2656C148.521 51.2656 146.599 50.5 145.359 48.9688C144.13 47.4375 143.516 45.3802 143.516 42.7969ZM146.359 41.8125H155.188C155.146 40.3542 154.771 39.0781 154.062 37.9844C153.354 36.8802 152.312 36.3281 150.938 36.3281C149.729 36.3281 148.703 36.7344 147.859 37.5469C147.016 38.349 146.516 39.7708 146.359 41.8125ZM160.672 42.7969C160.672 40.2135 161.318 38.1562 162.609 36.625C163.901 35.0938 165.75 34.3281 168.156 34.3281C170.156 34.3281 171.812 35.0312 173.125 36.4375C174.448 37.8333 175.109 40.0677 175.109 43.1406C175.109 43.6094 174.896 43.8438 174.469 43.8438H163.578C163.755 45.8542 164.297 47.2552 165.203 48.0469C166.109 48.8281 167.135 49.2188 168.281 49.2188C169.49 49.2188 170.417 49.0156 171.062 48.6094C171.708 48.2031 172.182 47.8021 172.484 47.4062C172.818 46.9688 173.141 46.8854 173.453 47.1562L174.375 47.9531C174.615 48.1615 174.615 48.4479 174.375 48.8125C174.177 49.1146 173.609 49.599 172.672 50.2656C171.745 50.9323 170.281 51.2656 168.281 51.2656C165.677 51.2656 163.755 50.5 162.516 48.9688C161.286 47.4375 160.672 45.3802 160.672 42.7969ZM163.516 41.8125H172.344C172.302 40.3542 171.927 39.0781 171.219 37.9844C170.51 36.8802 169.469 36.3281 168.094 36.3281C166.885 36.3281 165.859 36.7344 165.016 37.5469C164.172 38.349 163.672 39.7708 163.516 41.8125Z" fill="#FF532C"/>
</svg>
