<svg width="306" height="61" viewBox="0 0 306 61" fill="none" xmlns="http://www.w3.org/2000/svg">
<path fill-rule="evenodd" clip-rule="evenodd" d="M0.074707 0C0.074707 0 9.81644 2.62273 12.7384 19.459C13.2246 22.3465 18.1745 43.7979 39.7542 41.456C44.5199 40.8063 49.2046 40.7191 52.4178 36.3798C50.3612 37.1548 41.7804 39.1497 36.3772 32.9956C30.974 26.8415 28.7604 22.3431 26.2463 16.9208C23.7321 11.4985 19.4771 1.36636 0.074707 0Z" fill="white"/>
<path fill-rule="evenodd" clip-rule="evenodd" d="M49.8851 10.9985C49.8851 10.9985 40.9192 14.6484 42.2869 18.6129C43.6546 22.5775 48.2211 30.4042 56.639 32.9956C55.4698 30.548 49.0282 20.7094 49.8851 10.9985Z" fill="white"/>
<path fill-rule="evenodd" clip-rule="evenodd" d="M60.016 7.61435C60.016 7.61435 64.8122 22.9159 60.8603 29.6114C62.6239 28.3424 67.0106 25.8042 70.147 15.2287C70.6324 12.7464 67.2892 6.76831 60.016 7.61435Z" fill="white"/>
<path fill-rule="evenodd" clip-rule="evenodd" d="M81.9664 9.30645C81.9664 9.30645 72.9372 35.0083 46.5081 42.3021C41.5533 43.775 27.6367 44.4772 23.7135 40.61C27.3497 44.9882 33.4451 49.5196 43.9754 49.9164C52.704 50.3132 78.4324 48.4832 82.8106 26.2273C83.345 22.7399 84.3404 16.0663 81.9664 9.30645Z" fill="white"/>
<path d="M44.8196 60.915C47.6172 60.915 49.8851 58.6423 49.8851 55.8388C49.8851 53.0352 47.6172 50.7625 44.8196 50.7625C42.022 50.7625 39.7542 53.0352 39.7542 55.8388C39.7542 58.6423 42.022 60.915 44.8196 60.915Z" fill="white"/>
<path d="M67.6142 60.915C70.4118 60.915 72.6797 58.6423 72.6797 55.8388C72.6797 53.0352 70.4118 50.7625 67.6142 50.7625C64.8166 50.7625 62.5488 53.0352 62.5488 55.8388C62.5488 58.6423 64.8166 60.915 67.6142 60.915Z" fill="white"/>
<path d="M42.5503 12.7702C44.7795 12.7702 46.5866 10.9592 46.5866 8.72524C46.5866 6.49129 44.7795 4.68031 42.5503 4.68031C40.3211 4.68031 38.514 6.49129 38.514 8.72524C38.514 10.9592 40.3211 12.7702 42.5503 12.7702Z" fill="white"/>
<path fill-rule="evenodd" clip-rule="evenodd" d="M99.9594 7.04492H109.547V53.3698H99.9594V7.04492ZM141.78 18.0655L140.148 24.3916C140.148 24.3916 137.632 24.0437 135.048 23.983C133.709 23.9426 132.381 24.2223 131.172 24.7988C128.985 25.9252 126.104 29.2088 125.869 35.6158C125.957 37.2042 125.456 45.3498 133.825 46.4314C135.861 46.4334 137.876 46.0166 139.744 45.2069C140.06 46.3346 141.785 51.7366 141.785 51.7366C141.785 51.7366 135.048 54.1611 131.176 53.5734C127.305 52.9856 118.222 51.907 116.284 38.267C116.127 37.0714 115.305 27.671 121.18 21.7376C122.352 20.5535 127.381 15.1833 141.78 18.0655ZM169.728 19.4936C167.986 18.3924 166.044 17.6453 164.013 17.2953C161.982 16.9452 159.902 16.9988 157.891 17.4533C153.792 18.5579 144.12 21.0141 144.223 37.6562C144.471 39.506 145.077 52.512 161.767 53.3698C165.061 53.4449 171.076 53.6586 174.415 51.7366C174.096 49.9149 173.892 48.075 173.803 46.2278C173.803 46.2278 161.991 49.9475 156.667 45.2069C156.043 44.7079 155.523 44.0904 155.138 43.3898C154.753 42.6892 154.51 41.9194 154.424 41.1247C156.178 40.7694 174.977 36.5039 176.048 35.6158C176.595 32.6061 176.293 29.5033 175.176 26.6555C174.059 23.8078 172.171 21.3277 169.724 19.4936H169.728ZM167.076 29.6969L153.204 33.7791C153.204 33.7791 152.407 28.985 154.632 26.8407C156.084 25.2739 160.889 22.3643 164.628 25.0039C165.997 26.2106 166.87 27.8831 167.076 29.6969Z" fill="white"/>
<path fill-rule="evenodd" clip-rule="evenodd" d="M182.988 7.04492H192.576V53.3698H182.988V7.04492ZM200.532 19.6972L201.553 25.8198C201.553 25.8198 212.077 24.0177 213.39 24.1881C214.702 24.3584 218.826 23.6711 219.101 29.6969C216.899 29.6565 205.986 29.229 200.538 36.023C198.954 37.7609 198.093 40.0381 198.131 42.3896C198.169 44.7411 199.103 46.9894 200.742 48.6753C202.406 50.1641 207.724 55.9386 228.89 51.533V26.8407C228.89 26.8407 228.49 18.7788 217.873 17.4547C215.576 17.3377 206.324 16.3645 200.532 19.6972ZM218.892 36.2281V46.4313C218.892 46.4313 211.135 47.2025 209.304 43.7787C208.336 42.0633 208.066 39.6648 210.529 38.2684C213.06 36.7916 215.966 36.0828 218.892 36.2281ZM236.028 18.8814V52.5539H245.616V24.5953C245.616 24.5953 257.452 22.1795 257.452 27.4529V52.9611H267.652V29.6969C267.652 29.6969 268.459 18.8395 255.612 17.0446C254.379 17.0042 242.812 16.3139 236.028 18.8814ZM296.412 7.24997V17.6568C296.412 17.6568 289.443 16.7789 285.601 17.8605C283.092 18.6763 274.278 21.9513 273.361 35.2072C273.488 37.6143 273.631 50.8991 286.009 52.9611C287.506 53.0607 293.73 54.8585 300.288 53.1661H306V7.24708H296.412V7.24997ZM295.597 24.1823C295.597 24.1823 286.627 23.3043 284.785 29.2839C284.127 31.0037 280.387 47.9374 296.209 47.2414C296.209 39.9998 295.597 24.1823 295.597 24.1823Z" fill="white"/>
</svg>
