<svg width="306" height="62" viewBox="0 0 306 62" fill="none" xmlns="http://www.w3.org/2000/svg">
<path fill-rule="evenodd" clip-rule="evenodd" d="M0.074707 0.191895C0.074707 0.191895 9.81644 2.81462 12.7384 19.6508C13.2246 22.5384 18.1745 43.9898 39.7542 41.6479C44.5199 40.9982 49.2046 40.911 52.4178 36.5717C50.3612 37.3467 41.7804 39.3416 36.3772 33.1875C30.974 27.0334 28.7604 22.535 26.2463 17.1127C23.7321 11.6904 19.4771 1.55825 0.074707 0.191895Z" fill="url(#paint0_linear_59_938)"/>
<path fill-rule="evenodd" clip-rule="evenodd" d="M49.8851 11.1904C49.8851 11.1904 40.9192 14.8403 42.2869 18.8048C43.6546 22.7694 48.2211 30.5961 56.639 33.1875C55.4698 30.7399 49.0282 20.9013 49.8851 11.1904Z" fill="url(#paint1_linear_59_938)"/>
<path fill-rule="evenodd" clip-rule="evenodd" d="M60.016 7.80625C60.016 7.80625 64.8122 23.1078 60.8603 29.8033C62.6239 28.5343 67.0106 25.9961 70.147 15.4206C70.6324 12.9383 67.2892 6.96021 60.016 7.80625Z" fill="url(#paint2_linear_59_938)"/>
<path fill-rule="evenodd" clip-rule="evenodd" d="M81.9664 9.49835C81.9664 9.49835 72.9372 35.2002 46.5081 42.494C41.5533 43.9669 27.6367 44.6691 23.7135 40.8019C27.3497 45.1801 33.4451 49.7115 43.9754 50.1083C52.704 50.5051 78.4324 48.6751 82.8106 26.4192C83.345 22.9318 84.3404 16.2582 81.9664 9.49835Z" fill="url(#paint3_linear_59_938)"/>
<path d="M44.8196 61.1069C47.6172 61.1069 49.8851 58.8342 49.8851 56.0306C49.8851 53.2271 47.6172 50.9544 44.8196 50.9544C42.022 50.9544 39.7542 53.2271 39.7542 56.0306C39.7542 58.8342 42.022 61.1069 44.8196 61.1069Z" fill="url(#paint4_linear_59_938)"/>
<path d="M67.6142 61.1069C70.4118 61.1069 72.6797 58.8342 72.6797 56.0306C72.6797 53.2271 70.4118 50.9544 67.6142 50.9544C64.8166 50.9544 62.5488 53.2271 62.5488 56.0306C62.5488 58.8342 64.8166 61.1069 67.6142 61.1069Z" fill="url(#paint5_linear_59_938)"/>
<path d="M42.5503 12.9621C44.7795 12.9621 46.5866 11.1511 46.5866 8.91713C46.5866 6.68318 44.7795 4.87221 42.5503 4.87221C40.3211 4.87221 38.514 6.68318 38.514 8.91713C38.514 11.1511 40.3211 12.9621 42.5503 12.9621Z" fill="url(#paint6_linear_59_938)"/>
<path fill-rule="evenodd" clip-rule="evenodd" d="M99.9594 7.23682H109.547V53.5617H99.9594V7.23682ZM141.78 18.2574L140.148 24.5835C140.148 24.5835 137.632 24.2356 135.048 24.1749C133.709 24.1345 132.381 24.4142 131.172 24.9907C128.985 26.1171 126.104 29.4007 125.869 35.8077C125.957 37.3961 125.456 45.5417 133.825 46.6232C135.861 46.6253 137.876 46.2085 139.744 45.3988C140.06 46.5265 141.785 51.9285 141.785 51.9285C141.785 51.9285 135.048 54.353 131.176 53.7653C127.305 53.1775 118.222 52.0989 116.284 38.4589C116.127 37.2633 115.305 27.8629 121.18 21.9295C122.352 20.7454 127.381 15.3752 141.78 18.2574ZM169.728 19.6855C167.986 18.5843 166.044 17.8372 164.013 17.4871C161.982 17.1371 159.902 17.1907 157.891 17.6451C153.792 18.7498 144.12 21.206 144.223 37.8481C144.471 39.6979 145.077 52.7039 161.767 53.5617C165.061 53.6367 171.076 53.8505 174.415 51.9285C174.096 50.1068 173.892 48.2669 173.803 46.4197C173.803 46.4197 161.991 50.1394 156.667 45.3988C156.043 44.8998 155.523 44.2823 155.138 43.5817C154.753 42.8811 154.51 42.1113 154.424 41.3166C156.178 40.9613 174.977 36.6958 176.048 35.8077C176.595 32.798 176.293 29.6952 175.176 26.8474C174.059 23.9997 172.171 21.5196 169.724 19.6855H169.728ZM167.076 29.8888L153.204 33.971C153.204 33.971 152.407 29.1769 154.632 27.0326C156.084 25.4658 160.889 22.5562 164.628 25.1958C165.997 26.4025 166.87 28.075 167.076 29.8888Z" fill="url(#paint7_linear_59_938)"/>
<path fill-rule="evenodd" clip-rule="evenodd" d="M182.988 7.23682H192.576V53.5617H182.988V7.23682ZM200.532 19.8891L201.553 26.0116C201.553 26.0116 212.077 24.2096 213.39 24.3799C214.702 24.5503 218.826 23.863 219.101 29.8888C216.899 29.8484 205.986 29.4209 200.538 36.2149C198.954 37.9527 198.093 40.23 198.131 42.5815C198.169 44.933 199.103 47.1813 200.742 48.8672C202.406 50.356 207.724 56.1305 228.89 51.7249V27.0326C228.89 27.0326 228.49 18.9707 217.873 17.6466C215.576 17.5296 206.324 16.5564 200.532 19.8891ZM218.892 36.42V46.6232C218.892 46.6232 211.135 47.3943 209.304 43.9706C208.336 42.2552 208.066 39.8567 210.529 38.4603C213.06 36.9835 215.966 36.2746 218.892 36.42ZM236.028 19.0733V52.7458H245.616V24.7871C245.616 24.7871 257.452 22.3713 257.452 27.6448V53.153H267.652V29.8888C267.652 29.8888 268.459 19.0314 255.612 17.2365C254.379 17.1961 242.812 16.5058 236.028 19.0733ZM296.412 7.44186V17.8487C296.412 17.8487 289.443 16.9708 285.601 18.0524C283.092 18.8682 274.278 22.1432 273.361 35.3991C273.488 37.8062 273.631 51.091 286.009 53.153C287.506 53.2526 293.73 55.0504 300.288 53.358H306V7.43897H296.412V7.44186ZM295.597 24.3742C295.597 24.3742 286.627 23.4962 284.785 29.4758C284.127 31.1956 280.387 48.1293 296.209 47.4333C296.209 40.1917 295.597 24.3742 295.597 24.3742Z" fill="#333333"/>
<defs>
<linearGradient id="paint0_linear_59_938" x1="41.4506" y1="60.9115" x2="41.4506" y2="4.30511" gradientUnits="userSpaceOnUse">
<stop stop-color="#FD7C11"/>
<stop offset="1" stop-color="#FF4F1D"/>
</linearGradient>
<linearGradient id="paint1_linear_59_938" x1="41.4506" y1="60.9115" x2="41.4506" y2="4.30511" gradientUnits="userSpaceOnUse">
<stop stop-color="#FD7C11"/>
<stop offset="1" stop-color="#FF4F1D"/>
</linearGradient>
<linearGradient id="paint2_linear_59_938" x1="41.4506" y1="60.9115" x2="41.4506" y2="4.30511" gradientUnits="userSpaceOnUse">
<stop stop-color="#FD7C11"/>
<stop offset="1" stop-color="#FF4F1D"/>
</linearGradient>
<linearGradient id="paint3_linear_59_938" x1="41.4506" y1="60.9115" x2="41.4506" y2="4.30511" gradientUnits="userSpaceOnUse">
<stop stop-color="#FD7C11"/>
<stop offset="1" stop-color="#FF4F1D"/>
</linearGradient>
<linearGradient id="paint4_linear_59_938" x1="41.4506" y1="60.9115" x2="41.4506" y2="4.30511" gradientUnits="userSpaceOnUse">
<stop stop-color="#FD7C11"/>
<stop offset="1" stop-color="#FF4F1D"/>
</linearGradient>
<linearGradient id="paint5_linear_59_938" x1="41.4506" y1="60.9115" x2="41.4506" y2="4.30511" gradientUnits="userSpaceOnUse">
<stop stop-color="#FD7C11"/>
<stop offset="1" stop-color="#FF4F1D"/>
</linearGradient>
<linearGradient id="paint6_linear_59_938" x1="41.4506" y1="60.9115" x2="41.4506" y2="4.30511" gradientUnits="userSpaceOnUse">
<stop stop-color="#FD7C11"/>
<stop offset="1" stop-color="#FF4F1D"/>
</linearGradient>
<linearGradient id="paint7_linear_59_938" x1="137.837" y1="53.7076" x2="137.837" y2="10.3848" gradientUnits="userSpaceOnUse">
<stop stop-color="#FD7C11"/>
<stop offset="1" stop-color="#FF4F1D"/>
</linearGradient>
</defs>
</svg>
