<svg width="503" height="71" viewBox="0 0 503 71" fill="none" xmlns="http://www.w3.org/2000/svg">
<rect width="70.219" height="70.219" rx="20" fill="white"/>
<path d="M35.7408 21.7193C35.7739 18.0459 35.7408 14.3687 35.7739 10.6934H43.2531C43.22 11.3436 43.3174 11.9956 43.4147 12.6128H37.9118V42.4709C37.9392 43.7439 37.6267 45.0012 37.0063 46.1132C36.5157 46.9571 35.8308 47.6718 35.0085 48.1979C34.1863 48.7241 33.2504 49.0464 32.2785 49.1383C31.0328 49.2505 29.7817 48.9903 28.684 48.3907C27.8461 47.933 27.1256 47.2874 26.5791 46.5044C28.4893 47.5771 30.9836 47.4797 32.8295 46.2766C34.6112 45.1709 35.7757 43.0899 35.7757 40.9427C35.7426 34.5343 35.7426 28.1278 35.7426 21.7193H35.7408ZM48.0782 19.6071C49.1207 20.2744 50.2701 20.7577 51.4762 21.0361C52.1907 21.1995 52.9015 21.2638 53.6472 21.2638V22.9555C51.4872 22.4461 49.5403 21.2748 48.0782 19.6053V19.6071Z" fill="#25F4EE"/>
<path d="M22.2444 28.8238C24.9555 27.145 28.1699 26.471 31.3271 26.9191V28.6952C30.4822 28.7283 29.674 28.8238 28.8291 28.9854C26.8112 29.4014 24.9075 30.2499 23.2491 31.4724C21.4674 32.7985 20.1027 34.6059 19.1623 36.6098C18.2525 38.5257 17.7975 40.6257 17.8325 42.7463C17.8325 45.0735 18.4809 47.3345 19.5848 49.3696C20.1027 50.3064 20.6868 51.2101 21.4656 51.9539C19.8703 50.8353 18.5409 49.3792 17.5717 47.689C16.2437 45.461 15.5953 42.8437 15.6596 40.2282C15.7498 37.8191 16.4534 35.473 17.7039 33.412C18.8296 31.5422 20.3864 29.969 22.2444 28.8238Z" fill="#25F4EE"/>
<path d="M37.8692 12.2986H43.4162C43.6109 13.3731 44.0003 14.3815 44.4852 15.3568C45.2639 16.8537 46.3678 18.1872 47.795 19.067C47.8923 19.1313 47.9566 19.1956 48.0209 19.2929C49.4932 20.9714 51.4563 22.1441 53.6322 22.645C53.6652 24.5956 53.6322 26.5811 53.6322 28.5317C49.934 28.5522 46.3242 27.4027 43.3188 25.2476C43.3188 29.9313 43.3188 34.615 43.35 39.2987C43.35 39.9177 43.3831 40.5367 43.35 41.1869C43.1739 43.4782 42.4873 45.7011 41.3406 47.6927C40.3683 49.4255 39.0414 50.9338 37.4467 52.1192C35.3863 53.642 32.9071 54.4936 30.3459 54.5584C29.0473 54.5897 27.7506 54.5254 26.4851 54.2315C24.7042 53.8387 23.0183 53.0984 21.524 52.0531L21.4267 51.9558C20.6791 51.2064 20.0638 50.2953 19.544 49.3531C18.4419 47.3363 17.7936 45.0257 17.7936 42.6839C17.7616 40.5494 18.2164 38.4357 19.1234 36.5032C20.0638 34.4865 21.4579 32.6644 23.2101 31.3309C24.8655 30.1007 26.7691 29.2458 28.7883 28.8256C29.6119 28.6617 30.4472 28.5635 31.2863 28.5317C31.3175 29.2811 31.2863 30.0287 31.3175 30.745V34.5508C30.3771 34.2257 29.3394 34.2257 28.3659 34.4534C27.1946 34.7051 26.1033 35.2413 25.1883 36.0146C24.6286 36.4978 24.1661 37.0831 23.8254 37.7393C23.2414 38.8451 23.0467 40.1455 23.1771 41.3816C23.3056 42.5865 23.8254 43.7565 24.6042 44.6694C25.124 45.3196 25.8036 45.8082 26.4851 46.2618C27.0361 47.0425 27.7506 47.6945 28.5936 48.1482C29.6986 48.7333 30.9469 48.9932 32.1937 48.8976C34.1406 48.7672 35.9553 47.5641 36.9288 45.8725C37.551 44.7604 37.8649 43.5024 37.838 42.2284C37.9023 32.2089 37.8692 22.2537 37.8692 12.2986Z" fill="black"/>
<path d="M43.4145 12.2986C44.0629 12.3316 44.7095 12.2986 45.3909 12.2986C45.3909 14.4788 46.0705 16.659 47.3323 18.448C47.494 18.6758 47.6574 18.8705 47.8191 19.067C46.3937 18.1872 45.2605 16.8537 44.5166 15.3568C44.0154 14.3907 43.6448 13.3623 43.4145 12.2986ZM53.614 22.645C54.3267 22.8084 55.0393 22.8727 55.7832 22.8727V30.453C52.0913 30.486 48.4013 29.2499 45.3909 27.0697V42.0998C45.4289 43.2368 45.3196 44.3741 45.0658 45.4831C44.341 48.8782 42.3788 51.8821 39.5611 53.9101C38.0865 54.9723 36.412 55.7246 34.6386 56.1215C32.5039 56.61 30.283 56.5766 28.164 56.0242C25.638 55.3586 23.3563 53.9816 21.5903 52.0568C23.0799 53.1294 24.7642 53.8439 26.5459 54.2352C27.8077 54.529 29.1026 54.5933 30.3975 54.5603C32.9562 54.4953 35.4326 53.6429 37.4892 52.1192C39.0762 50.9492 40.3729 49.4192 41.3758 47.6963C42.5214 45.7038 43.2073 43.4804 43.3833 41.1888C43.4157 40.5604 43.4157 39.9308 43.3833 39.3024C43.3503 34.6187 43.3503 29.9332 43.3503 25.2476C46.3493 27.4031 49.9539 28.5534 53.6471 28.5336C53.614 26.5811 53.6471 24.5974 53.614 22.645Z" fill="#FE2C55"/>
<path d="M31.0126 28.4453C31.7216 28.4453 32.4618 28.4784 33.169 28.5739V36.3084C32.1193 35.9589 30.992 35.9143 29.9179 36.1798C27.8902 36.6335 26.1838 38.1856 25.4767 40.1601C24.7677 42.1015 25.2452 44.5995 26.4685 46.2507C25.7545 45.8397 24.9991 45.2222 24.4132 44.4305C23.6283 43.5056 23.136 42.3683 22.9989 41.1629C22.8685 39.9323 23.0614 38.6393 23.6418 37.539C23.9632 36.8925 24.4463 36.3084 24.9936 35.8235C25.8936 35.0466 27.0214 34.5617 28.1473 34.2696C29.1134 34.0437 30.1438 34.0437 31.0769 34.367V30.5833C31.0126 29.9368 31.0457 29.191 31.0126 28.4471V28.4453Z" fill="#FE2C55"/>
<path d="M85.3799 23.8133V14.9751H116.375L113.479 23.8133H105.433V56.606H95.559V23.8133H85.3799Z" fill="white"/>
<circle cx="123.354" cy="19.9429" r="5.0591" fill="white"/>
<rect x="118.294" y="28.2324" width="10.1182" height="28.3432" fill="white"/>
<path d="M165.32 56.4538L151.484 36.1869L144.2 41.246L154.348 56.4538H165.32Z" fill="white"/>
<path d="M167.697 23.6915V15.0667H199.454L196.589 23.6915H187.812V56.4538H177.48V23.6915H167.697Z" fill="white"/>
<rect x="132.253" y="14.7617" width="9.9963" height="41.8138" fill="white"/>
<path d="M152.215 24.4534H164.07L140.969 47.0974L141.091 35.364L152.215 24.4534Z" fill="white"/>
<path d="M271.5 56.4537L257.664 36.1868L250.38 41.2459L260.529 56.4537H271.5Z" fill="white"/>
<rect x="238.433" y="14.7617" width="9.9963" height="41.8138" fill="white"/>
<path d="M258.395 24.4534H270.25L247.149 47.0974L247.271 35.364L258.395 24.4534Z" fill="white"/>
<path fill-rule="evenodd" clip-rule="evenodd" d="M212.65 56.4535C222.076 56.4535 229.717 48.8124 229.717 39.3867C229.717 29.9609 222.076 22.3198 212.65 22.3198C203.224 22.3198 195.583 29.9609 195.583 39.3867C195.583 48.8124 203.224 56.4535 212.65 56.4535ZM212.65 50.7848C218.945 50.7848 224.048 45.6816 224.048 39.3865C224.048 33.0915 218.945 27.9883 212.65 27.9883C206.355 27.9883 201.252 33.0915 201.252 39.3865C201.252 45.6816 206.355 50.7848 212.65 50.7848Z" fill="#35BABE"/>
<path fill-rule="evenodd" clip-rule="evenodd" d="M217.526 56.4535C226.952 56.4535 234.593 48.8124 234.593 39.3867C234.593 29.9609 226.952 22.3198 217.526 22.3198C208.1 22.3198 200.459 29.9609 200.459 39.3867C200.459 48.8124 208.1 56.4535 217.526 56.4535ZM217.526 50.1753C223.484 50.1753 228.315 45.345 228.315 39.3866C228.315 33.4282 223.484 28.5979 217.526 28.5979C211.568 28.5979 206.737 33.4282 206.737 39.3866C206.737 45.345 211.568 50.1753 217.526 50.1753Z" fill="#E5004E"/>
<path fill-rule="evenodd" clip-rule="evenodd" d="M215.027 56.4535C224.453 56.4535 232.094 48.8124 232.094 39.3867C232.094 29.9609 224.453 22.3198 215.027 22.3198C205.601 22.3198 197.96 29.9609 197.96 39.3867C197.96 48.8124 205.601 56.4535 215.027 56.4535ZM215.027 47.6153C219.571 47.6153 223.256 43.9312 223.256 39.3867C223.256 34.8421 219.571 31.158 215.027 31.158C210.482 31.158 206.798 34.8421 206.798 39.3867C206.798 43.9312 210.482 47.6153 215.027 47.6153Z" fill="white"/>
<path d="M493.113 53.4297C491.309 53.4297 489.69 53.1432 488.258 52.5703C486.826 51.9831 485.608 51.1738 484.605 50.1426C483.617 49.1113 482.858 47.9154 482.328 46.5547C481.798 45.1797 481.533 43.7188 481.533 42.1719V41.3125C481.533 39.5508 481.784 37.9395 482.285 36.4785C482.786 35.0176 483.503 33.75 484.434 32.6758C485.379 31.6016 486.525 30.778 487.871 30.2051C489.217 29.6178 490.736 29.3242 492.426 29.3242C494.073 29.3242 495.534 29.5964 496.809 30.1406C498.083 30.6849 499.15 31.4583 500.01 32.4609C500.883 33.4635 501.542 34.6667 501.986 36.0703C502.43 37.4596 502.652 39.0065 502.652 40.7109V43.2891H484.176V39.1641H496.572V38.6914C496.572 37.832 496.415 37.0658 496.1 36.3926C495.799 35.7051 495.34 35.1608 494.725 34.7598C494.109 34.3587 493.321 34.1582 492.361 34.1582C491.545 34.1582 490.843 34.3372 490.256 34.6953C489.669 35.0534 489.189 35.5547 488.816 36.1992C488.458 36.8438 488.186 37.6029 488 38.4766C487.828 39.3359 487.742 40.2812 487.742 41.3125V42.1719C487.742 43.1029 487.871 43.9622 488.129 44.75C488.401 45.5378 488.781 46.2181 489.268 46.791C489.769 47.3639 490.37 47.8079 491.072 48.123C491.788 48.4382 492.598 48.5957 493.5 48.5957C494.617 48.5957 495.656 48.3809 496.615 47.9512C497.589 47.5072 498.427 46.8411 499.129 45.9531L502.137 49.2188C501.65 49.9206 500.984 50.5938 500.139 51.2383C499.308 51.8828 498.305 52.4128 497.131 52.8281C495.956 53.2292 494.617 53.4297 493.113 53.4297Z" fill="white"/>
<path d="M476.421 20V53H470.212V20H476.421Z" fill="white"/>
<path d="M458.01 47.7578V37.4023C458.01 36.6576 457.888 36.0202 457.645 35.4902C457.401 34.946 457.021 34.5234 456.506 34.2227C456.005 33.9219 455.353 33.7715 454.551 33.7715C453.863 33.7715 453.269 33.8932 452.768 34.1367C452.266 34.3659 451.88 34.7025 451.607 35.1465C451.335 35.5762 451.199 36.0846 451.199 36.6719H445.012C445.012 35.6836 445.241 34.7454 445.699 33.8574C446.158 32.9694 446.824 32.1888 447.697 31.5156C448.571 30.8281 449.609 30.291 450.812 29.9043C452.03 29.5176 453.391 29.3242 454.895 29.3242C456.699 29.3242 458.303 29.625 459.707 30.2266C461.111 30.8281 462.214 31.7305 463.016 32.9336C463.832 34.1367 464.24 35.6406 464.24 37.4453V47.3926C464.24 48.6673 464.319 49.7129 464.477 50.5293C464.634 51.3314 464.863 52.0332 465.164 52.6348V53H458.912C458.611 52.3698 458.382 51.582 458.225 50.6367C458.081 49.6771 458.01 48.7174 458.01 47.7578ZM458.826 38.8418L458.869 42.3438H455.41C454.594 42.3438 453.885 42.4368 453.283 42.623C452.682 42.8092 452.188 43.0742 451.801 43.418C451.414 43.7474 451.128 44.1341 450.941 44.5781C450.77 45.0221 450.684 45.5091 450.684 46.0391C450.684 46.569 450.805 47.0488 451.049 47.4785C451.292 47.8939 451.643 48.2233 452.102 48.4668C452.56 48.696 453.097 48.8105 453.713 48.8105C454.644 48.8105 455.453 48.6243 456.141 48.252C456.828 47.8796 457.358 47.4212 457.73 46.877C458.117 46.3327 458.318 45.8171 458.332 45.3301L459.965 47.9512C459.736 48.5384 459.421 49.1471 459.02 49.7773C458.633 50.4076 458.139 51.002 457.537 51.5605C456.936 52.1048 456.212 52.556 455.367 52.9141C454.522 53.2578 453.52 53.4297 452.359 53.4297C450.884 53.4297 449.545 53.1361 448.342 52.5488C447.153 51.9473 446.208 51.1237 445.506 50.0781C444.818 49.0182 444.475 47.8151 444.475 46.4688C444.475 45.2513 444.704 44.1699 445.162 43.2246C445.62 42.2793 446.294 41.4844 447.182 40.8398C448.084 40.181 449.208 39.6868 450.555 39.3574C451.901 39.0137 453.462 38.8418 455.238 38.8418H458.826Z" fill="white"/>
<path d="M434.549 46.5762C434.549 46.1322 434.42 45.7311 434.163 45.373C433.905 45.015 433.425 44.6855 432.723 44.3848C432.036 44.0697 431.04 43.7832 429.737 43.5254C428.562 43.2676 427.467 42.9453 426.45 42.5586C425.447 42.1576 424.573 41.6777 423.829 41.1191C423.098 40.5605 422.525 39.9017 422.11 39.1426C421.694 38.3691 421.487 37.4883 421.487 36.5C421.487 35.526 421.694 34.6094 422.11 33.75C422.54 32.8906 423.148 32.1315 423.936 31.4727C424.738 30.7995 425.712 30.2767 426.858 29.9043C428.018 29.5176 429.321 29.3242 430.768 29.3242C432.788 29.3242 434.521 29.6465 435.967 30.291C437.428 30.9355 438.545 31.8236 439.319 32.9551C440.107 34.0723 440.5 35.347 440.5 36.7793H434.313C434.313 36.1777 434.184 35.6406 433.926 35.168C433.683 34.681 433.296 34.3014 432.766 34.0293C432.25 33.7428 431.577 33.5996 430.747 33.5996C430.059 33.5996 429.465 33.7214 428.963 33.9648C428.462 34.194 428.075 34.5091 427.803 34.9102C427.545 35.2969 427.417 35.7266 427.417 36.1992C427.417 36.5573 427.488 36.8796 427.631 37.166C427.789 37.4382 428.04 37.6888 428.383 37.918C428.727 38.1471 429.171 38.362 429.715 38.5625C430.274 38.7487 430.961 38.9206 431.778 39.0781C433.454 39.4219 434.95 39.873 436.268 40.4316C437.586 40.9759 438.631 41.7207 439.405 42.666C440.178 43.597 440.565 44.8216 440.565 46.3398C440.565 47.3711 440.336 48.3164 439.877 49.1758C439.419 50.0352 438.76 50.7871 437.901 51.4316C437.042 52.0618 436.01 52.556 434.807 52.9141C433.618 53.2578 432.279 53.4297 430.79 53.4297C428.627 53.4297 426.793 53.043 425.29 52.2695C423.8 51.4961 422.668 50.515 421.895 49.3262C421.136 48.123 420.756 46.8913 420.756 45.6309H426.622C426.65 46.4759 426.865 47.1562 427.266 47.6719C427.681 48.1875 428.204 48.5599 428.834 48.7891C429.479 49.0182 430.174 49.1328 430.918 49.1328C431.721 49.1328 432.387 49.0254 432.917 48.8105C433.446 48.5814 433.847 48.2806 434.12 47.9082C434.406 47.5215 434.549 47.0775 434.549 46.5762Z" fill="white"/>
<path d="M408.039 53.4297C406.234 53.4297 404.615 53.1432 403.183 52.5703C401.751 51.9831 400.533 51.1738 399.531 50.1426C398.542 49.1113 397.783 47.9154 397.253 46.5547C396.723 45.1797 396.458 43.7188 396.458 42.1719V41.3125C396.458 39.5508 396.709 37.9395 397.21 36.4785C397.712 35.0176 398.428 33.75 399.359 32.6758C400.304 31.6016 401.45 30.778 402.796 30.2051C404.143 29.6178 405.661 29.3242 407.351 29.3242C408.998 29.3242 410.459 29.5964 411.734 30.1406C413.009 30.6849 414.076 31.4583 414.935 32.4609C415.809 33.4635 416.468 34.6667 416.912 36.0703C417.356 37.4596 417.578 39.0065 417.578 40.7109V43.2891H399.101V39.1641H411.498V38.6914C411.498 37.832 411.34 37.0658 411.025 36.3926C410.724 35.7051 410.266 35.1608 409.65 34.7598C409.034 34.3587 408.246 34.1582 407.287 34.1582C406.47 34.1582 405.768 34.3372 405.181 34.6953C404.594 35.0534 404.114 35.5547 403.742 36.1992C403.384 36.8438 403.111 37.6029 402.925 38.4766C402.753 39.3359 402.667 40.2812 402.667 41.3125V42.1719C402.667 43.1029 402.796 43.9622 403.054 44.75C403.326 45.5378 403.706 46.2181 404.193 46.791C404.694 47.3639 405.296 47.8079 405.998 48.123C406.714 48.4382 407.523 48.5957 408.425 48.5957C409.542 48.5957 410.581 48.3809 411.541 47.9512C412.514 47.5072 413.352 46.8411 414.054 45.9531L417.062 49.2188C416.575 49.9206 415.909 50.5938 415.064 51.2383C414.233 51.8828 413.231 52.4128 412.056 52.8281C410.882 53.2292 409.542 53.4297 408.039 53.4297Z" fill="white"/>
<path d="M391.346 20V53H385.137V20H391.346Z" fill="white"/>
<path d="M358.111 41.6133V41.1621C358.111 39.4577 358.354 37.8893 358.841 36.457C359.328 35.0104 360.037 33.7572 360.968 32.6973C361.899 31.6374 363.045 30.8138 364.406 30.2266C365.766 29.625 367.328 29.3242 369.089 29.3242C370.851 29.3242 372.419 29.625 373.794 30.2266C375.169 30.8138 376.322 31.6374 377.253 32.6973C378.199 33.7572 378.915 35.0104 379.402 36.457C379.889 37.8893 380.132 39.4577 380.132 41.1621V41.6133C380.132 43.3034 379.889 44.8717 379.402 46.3184C378.915 47.7507 378.199 49.0039 377.253 50.0781C376.322 51.138 375.177 51.9616 373.816 52.5488C372.455 53.1361 370.894 53.4297 369.132 53.4297C367.371 53.4297 365.802 53.1361 364.427 52.5488C363.067 51.9616 361.914 51.138 360.968 50.0781C360.037 49.0039 359.328 47.7507 358.841 46.3184C358.354 44.8717 358.111 43.3034 358.111 41.6133ZM364.298 41.1621V41.6133C364.298 42.5872 364.384 43.4967 364.556 44.3418C364.728 45.1868 365 45.9316 365.373 46.5762C365.759 47.2064 366.261 47.7005 366.876 48.0586C367.492 48.4167 368.244 48.5957 369.132 48.5957C369.992 48.5957 370.729 48.4167 371.345 48.0586C371.961 47.7005 372.455 47.2064 372.828 46.5762C373.2 45.9316 373.472 45.1868 373.644 44.3418C373.83 43.4967 373.923 42.5872 373.923 41.6133V41.1621C373.923 40.2168 373.83 39.3288 373.644 38.498C373.472 37.653 373.193 36.9082 372.806 36.2637C372.434 35.6048 371.94 35.0892 371.324 34.7168C370.708 34.3444 369.963 34.1582 369.089 34.1582C368.216 34.1582 367.471 34.3444 366.855 34.7168C366.253 35.0892 365.759 35.6048 365.373 36.2637C365 36.9082 364.728 37.653 364.556 38.498C364.384 39.3288 364.298 40.2168 364.298 41.1621Z" fill="white"/>
<path d="M339.592 20V53H333.404V20H339.592ZM338.711 40.5605H337.014C337.028 38.9421 337.243 37.4525 337.658 36.0918C338.074 34.7168 338.668 33.528 339.441 32.5254C340.215 31.5085 341.139 30.7207 342.213 30.1621C343.301 29.6035 344.505 29.3242 345.822 29.3242C346.968 29.3242 348.007 29.4889 348.938 29.8184C349.883 30.1335 350.692 30.6491 351.365 31.3652C352.053 32.0671 352.583 32.9909 352.955 34.1367C353.327 35.2826 353.514 36.6719 353.514 38.3047V53H347.283V38.2617C347.283 37.2305 347.133 36.4212 346.832 35.834C346.546 35.2324 346.123 34.8099 345.564 34.5664C345.02 34.3086 344.347 34.1797 343.545 34.1797C342.657 34.1797 341.898 34.3444 341.268 34.6738C340.652 35.0033 340.158 35.4616 339.785 36.0488C339.413 36.6217 339.141 37.2949 338.969 38.0684C338.797 38.8418 338.711 39.6725 338.711 40.5605Z" fill="white"/>
<path d="M302.103 48.0371L308.333 21.7188H311.813L312.608 26.1016L305.97 53H302.231L302.103 48.0371ZM298.901 21.7188L304.058 48.0371L303.628 53H299.46L292.521 21.7188H298.901ZM318.087 47.9297L323.179 21.7188H329.56L322.642 53H318.474L318.087 47.9297ZM313.769 21.7188L320.042 48.1445L319.87 53H316.132L309.45 26.0801L310.31 21.7188H313.769Z" fill="white"/>
<path d="M288.139 37.1445V42H276V37.1445H288.139Z" fill="white"/>
</svg>
