<svg width="507" height="71" viewBox="0 0 507 71" fill="none" xmlns="http://www.w3.org/2000/svg">
<rect width="70.219" height="70.219" rx="20" fill="black"/>
<path d="M35.7408 21.7193C35.7739 18.0459 35.7408 14.3687 35.7739 10.6934H43.2531C43.22 11.3436 43.3174 11.9956 43.4147 12.6128H37.9118V42.4709C37.9392 43.7439 37.6267 45.0012 37.0063 46.1132C36.5157 46.9571 35.8308 47.6718 35.0085 48.1979C34.1863 48.7241 33.2504 49.0464 32.2785 49.1383C31.0328 49.2505 29.7817 48.9903 28.684 48.3907C27.8461 47.933 27.1256 47.2874 26.5791 46.5044C28.4893 47.5771 30.9836 47.4797 32.8295 46.2766C34.6112 45.1709 35.7757 43.0899 35.7757 40.9427C35.7426 34.5343 35.7426 28.1278 35.7426 21.7193H35.7408ZM48.0782 19.6071C49.1207 20.2744 50.2701 20.7577 51.4762 21.0361C52.1907 21.1995 52.9015 21.2638 53.6472 21.2638V22.9555C51.4872 22.4461 49.5403 21.2748 48.0782 19.6053V19.6071Z" fill="#25F4EE"/>
<path d="M22.2444 28.8238C24.9555 27.145 28.1699 26.471 31.3271 26.9191V28.6952C30.4822 28.7283 29.674 28.8238 28.8291 28.9854C26.8112 29.4014 24.9075 30.2499 23.2491 31.4724C21.4674 32.7985 20.1027 34.6059 19.1623 36.6098C18.2525 38.5257 17.7975 40.6257 17.8325 42.7463C17.8325 45.0735 18.4809 47.3345 19.5848 49.3696C20.1027 50.3064 20.6868 51.2101 21.4656 51.9539C19.8703 50.8353 18.5409 49.3792 17.5717 47.689C16.2437 45.461 15.5953 42.8437 15.6596 40.2282C15.7498 37.8191 16.4534 35.473 17.7039 33.412C18.8296 31.5422 20.3864 29.969 22.2444 28.8238Z" fill="#25F4EE"/>
<path d="M37.8692 12.2986H43.4162C43.6109 13.3731 44.0003 14.3815 44.4852 15.3568C45.2639 16.8537 46.3678 18.1872 47.795 19.067C47.8923 19.1313 47.9566 19.1956 48.0209 19.2929C49.4932 20.9714 51.4563 22.1441 53.6322 22.645C53.6652 24.5956 53.6322 26.5811 53.6322 28.5317C49.934 28.5522 46.3242 27.4027 43.3188 25.2476C43.3188 29.9313 43.3188 34.615 43.35 39.2987C43.35 39.9177 43.3831 40.5367 43.35 41.1869C43.1739 43.4782 42.4873 45.7011 41.3406 47.6927C40.3683 49.4255 39.0414 50.9338 37.4467 52.1192C35.3863 53.642 32.9071 54.4936 30.3459 54.5584C29.0473 54.5897 27.7506 54.5254 26.4851 54.2315C24.7042 53.8387 23.0183 53.0984 21.524 52.0531L21.4267 51.9558C20.6791 51.2064 20.0638 50.2953 19.544 49.3531C18.4419 47.3363 17.7936 45.0257 17.7936 42.6839C17.7616 40.5494 18.2164 38.4357 19.1234 36.5032C20.0638 34.4865 21.4579 32.6644 23.2101 31.3309C24.8655 30.1007 26.7691 29.2458 28.7883 28.8256C29.6119 28.6617 30.4472 28.5635 31.2863 28.5317C31.3175 29.2811 31.2863 30.0287 31.3175 30.745V34.5508C30.3771 34.2257 29.3394 34.2257 28.3659 34.4534C27.1946 34.7051 26.1033 35.2413 25.1883 36.0146C24.6286 36.4978 24.1661 37.0831 23.8254 37.7393C23.2414 38.8451 23.0467 40.1455 23.1771 41.3816C23.3056 42.5865 23.8254 43.7565 24.6042 44.6694C25.124 45.3196 25.8036 45.8082 26.4851 46.2618C27.0361 47.0425 27.7506 47.6945 28.5936 48.1482C29.6986 48.7333 30.9469 48.9932 32.1937 48.8976C34.1406 48.7672 35.9553 47.5641 36.9288 45.8725C37.551 44.7604 37.8649 43.5024 37.838 42.2284C37.9023 32.2089 37.8692 22.2537 37.8692 12.2986Z" fill="white"/>
<path d="M43.4145 12.2986C44.0629 12.3316 44.7095 12.2986 45.3909 12.2986C45.3909 14.4788 46.0705 16.659 47.3323 18.448C47.494 18.6758 47.6574 18.8705 47.8191 19.067C46.3937 18.1872 45.2605 16.8537 44.5166 15.3568C44.0154 14.3907 43.6448 13.3623 43.4145 12.2986ZM53.614 22.645C54.3267 22.8084 55.0393 22.8727 55.7832 22.8727V30.453C52.0913 30.486 48.4013 29.2499 45.3909 27.0697V42.0998C45.4289 43.2368 45.3196 44.3741 45.0658 45.4831C44.341 48.8782 42.3788 51.8821 39.5611 53.9101C38.0865 54.9723 36.412 55.7246 34.6386 56.1215C32.5039 56.61 30.283 56.5766 28.164 56.0242C25.638 55.3586 23.3563 53.9816 21.5903 52.0568C23.0799 53.1294 24.7642 53.8439 26.5459 54.2352C27.8077 54.529 29.1026 54.5933 30.3975 54.5603C32.9562 54.4953 35.4326 53.6429 37.4892 52.1192C39.0762 50.9492 40.3729 49.4192 41.3758 47.6963C42.5214 45.7038 43.2073 43.4804 43.3833 41.1888C43.4157 40.5604 43.4157 39.9308 43.3833 39.3024C43.3503 34.6187 43.3503 29.9332 43.3503 25.2476C46.3493 27.4031 49.9539 28.5534 53.6471 28.5336C53.614 26.5811 53.6471 24.5974 53.614 22.645Z" fill="#FE2C55"/>
<path d="M31.0126 28.4453C31.7216 28.4453 32.4618 28.4784 33.169 28.5739V36.3084C32.1193 35.9589 30.992 35.9143 29.9179 36.1798C27.8902 36.6335 26.1838 38.1856 25.4767 40.1601C24.7677 42.1015 25.2452 44.5995 26.4685 46.2507C25.7545 45.8397 24.9991 45.2222 24.4132 44.4305C23.6283 43.5056 23.136 42.3683 22.9989 41.1629C22.8685 39.9323 23.0614 38.6393 23.6418 37.539C23.9632 36.8925 24.4463 36.3084 24.9936 35.8235C25.8936 35.0466 27.0214 34.5617 28.1473 34.2696C29.1134 34.0437 30.1438 34.0437 31.0769 34.367V30.5833C31.0126 29.9368 31.0457 29.191 31.0126 28.4471V28.4453Z" fill="#FE2C55"/>
<path d="M85.3799 23.8133V14.9751H116.375L113.479 23.8133H105.433V56.606H95.559V23.8133H85.3799Z" fill="black"/>
<circle cx="123.354" cy="19.9429" r="5.0591" fill="black"/>
<rect x="118.294" y="28.2324" width="10.1182" height="28.3432" fill="black"/>
<path d="M165.32 56.4538L151.484 36.1869L144.2 41.246L154.348 56.4538H165.32Z" fill="black"/>
<path d="M167.697 23.6915V15.0667H199.454L196.589 23.6915H187.812V56.4538H177.48V23.6915H167.697Z" fill="black"/>
<rect x="132.253" y="14.7617" width="9.9963" height="41.8138" fill="black"/>
<path d="M152.215 24.4534H164.07L140.969 47.0974L141.091 35.364L152.215 24.4534Z" fill="black"/>
<path d="M271.5 56.4537L257.664 36.1868L250.38 41.2459L260.529 56.4537H271.5Z" fill="black"/>
<rect x="238.433" y="14.7617" width="9.9963" height="41.8138" fill="black"/>
<path d="M258.395 24.4534H270.25L247.149 47.0974L247.271 35.364L258.395 24.4534Z" fill="black"/>
<path fill-rule="evenodd" clip-rule="evenodd" d="M212.65 56.4535C222.076 56.4535 229.717 48.8124 229.717 39.3867C229.717 29.9609 222.076 22.3198 212.65 22.3198C203.224 22.3198 195.583 29.9609 195.583 39.3867C195.583 48.8124 203.224 56.4535 212.65 56.4535ZM212.65 50.7848C218.945 50.7848 224.048 45.6816 224.048 39.3865C224.048 33.0915 218.945 27.9883 212.65 27.9883C206.355 27.9883 201.252 33.0915 201.252 39.3865C201.252 45.6816 206.355 50.7848 212.65 50.7848Z" fill="#35BABE"/>
<path fill-rule="evenodd" clip-rule="evenodd" d="M217.526 56.4535C226.952 56.4535 234.593 48.8124 234.593 39.3867C234.593 29.9609 226.952 22.3198 217.526 22.3198C208.1 22.3198 200.459 29.9609 200.459 39.3867C200.459 48.8124 208.1 56.4535 217.526 56.4535ZM217.526 50.1753C223.484 50.1753 228.315 45.345 228.315 39.3866C228.315 33.4282 223.484 28.5979 217.526 28.5979C211.568 28.5979 206.737 33.4282 206.737 39.3866C206.737 45.345 211.568 50.1753 217.526 50.1753Z" fill="#E5004E"/>
<path fill-rule="evenodd" clip-rule="evenodd" d="M215.027 56.4535C224.453 56.4535 232.094 48.8124 232.094 39.3867C232.094 29.9609 224.453 22.3198 215.027 22.3198C205.601 22.3198 197.96 29.9609 197.96 39.3867C197.96 48.8124 205.601 56.4535 215.027 56.4535ZM215.027 47.6153C219.571 47.6153 223.256 43.9312 223.256 39.3867C223.256 34.8421 219.571 31.158 215.027 31.158C210.482 31.158 206.798 34.8421 206.798 39.3867C206.798 43.9312 210.482 47.6153 215.027 47.6153Z" fill="black"/>
<path d="M496.964 53.4297C495.159 53.4297 493.541 53.1432 492.108 52.5703C490.676 51.9831 489.459 51.1738 488.456 50.1426C487.468 49.1113 486.709 47.9154 486.179 46.5547C485.649 45.1797 485.384 43.7188 485.384 42.1719V41.3125C485.384 39.5508 485.634 37.9395 486.136 36.4785C486.637 35.0176 487.353 33.75 488.284 32.6758C489.229 31.6016 490.375 30.778 491.722 30.2051C493.068 29.6178 494.586 29.3242 496.276 29.3242C497.924 29.3242 499.384 29.5964 500.659 30.1406C501.934 30.6849 503.001 31.4583 503.86 32.4609C504.734 33.4635 505.393 34.6667 505.837 36.0703C506.281 37.4596 506.503 39.0065 506.503 40.7109V43.2891H488.026V39.1641H500.423V38.6914C500.423 37.832 500.265 37.0658 499.95 36.3926C499.649 35.7051 499.191 35.1608 498.575 34.7598C497.959 34.3587 497.172 34.1582 496.212 34.1582C495.396 34.1582 494.694 34.3372 494.106 34.6953C493.519 35.0534 493.039 35.5547 492.667 36.1992C492.309 36.8438 492.037 37.6029 491.851 38.4766C491.679 39.3359 491.593 40.2812 491.593 41.3125V42.1719C491.593 43.1029 491.722 43.9622 491.979 44.75C492.252 45.5378 492.631 46.2181 493.118 46.791C493.619 47.3639 494.221 47.8079 494.923 48.123C495.639 48.4382 496.448 48.5957 497.351 48.5957C498.468 48.5957 499.506 48.3809 500.466 47.9512C501.44 47.5072 502.278 46.8411 502.979 45.9531L505.987 49.2188C505.5 49.9206 504.834 50.5938 503.989 51.2383C503.159 51.8828 502.156 52.4128 500.981 52.8281C499.807 53.2292 498.468 53.4297 496.964 53.4297Z" fill="black"/>
<path d="M480.271 20V53H474.062V20H480.271Z" fill="black"/>
<path d="M461.86 47.7578V37.4023C461.86 36.6576 461.739 36.0202 461.495 35.4902C461.252 34.946 460.872 34.5234 460.356 34.2227C459.855 33.9219 459.203 33.7715 458.401 33.7715C457.714 33.7715 457.119 33.8932 456.618 34.1367C456.117 34.3659 455.73 34.7025 455.458 35.1465C455.186 35.5762 455.05 36.0846 455.05 36.6719H448.862C448.862 35.6836 449.091 34.7454 449.55 33.8574C450.008 32.9694 450.674 32.1888 451.548 31.5156C452.422 30.8281 453.46 30.291 454.663 29.9043C455.881 29.5176 457.241 29.3242 458.745 29.3242C460.55 29.3242 462.154 29.625 463.558 30.2266C464.961 30.8281 466.064 31.7305 466.866 32.9336C467.683 34.1367 468.091 35.6406 468.091 37.4453V47.3926C468.091 48.6673 468.17 49.7129 468.327 50.5293C468.485 51.3314 468.714 52.0332 469.015 52.6348V53H462.763C462.462 52.3698 462.233 51.582 462.075 50.6367C461.932 49.6771 461.86 48.7174 461.86 47.7578ZM462.677 38.8418L462.72 42.3438H459.261C458.444 42.3438 457.735 42.4368 457.134 42.623C456.532 42.8092 456.038 43.0742 455.651 43.418C455.265 43.7474 454.978 44.1341 454.792 44.5781C454.62 45.0221 454.534 45.5091 454.534 46.0391C454.534 46.569 454.656 47.0488 454.899 47.4785C455.143 47.8939 455.494 48.2233 455.952 48.4668C456.41 48.696 456.948 48.8105 457.563 48.8105C458.494 48.8105 459.304 48.6243 459.991 48.252C460.679 47.8796 461.209 47.4212 461.581 46.877C461.968 46.3327 462.168 45.8171 462.183 45.3301L463.815 47.9512C463.586 48.5384 463.271 49.1471 462.87 49.7773C462.483 50.4076 461.989 51.002 461.388 51.5605C460.786 52.1048 460.063 52.556 459.218 52.9141C458.373 53.2578 457.37 53.4297 456.21 53.4297C454.735 53.4297 453.396 53.1361 452.192 52.5488C451.004 51.9473 450.058 51.1237 449.356 50.0781C448.669 49.0182 448.325 47.8151 448.325 46.4688C448.325 45.2513 448.554 44.1699 449.013 43.2246C449.471 42.2793 450.144 41.4844 451.032 40.8398C451.935 40.181 453.059 39.6868 454.405 39.3574C455.752 39.0137 457.313 38.8418 459.089 38.8418H462.677Z" fill="black"/>
<path d="M438.4 46.5762C438.4 46.1322 438.271 45.7311 438.013 45.373C437.755 45.015 437.276 44.6855 436.574 44.3848C435.886 44.0697 434.891 43.7832 433.587 43.5254C432.413 43.2676 431.317 42.9453 430.3 42.5586C429.298 42.1576 428.424 41.6777 427.679 41.1191C426.949 40.5605 426.376 39.9017 425.96 39.1426C425.545 38.3691 425.337 37.4883 425.337 36.5C425.337 35.526 425.545 34.6094 425.96 33.75C426.39 32.8906 426.999 32.1315 427.787 31.4727C428.589 30.7995 429.563 30.2767 430.708 29.9043C431.869 29.5176 433.172 29.3242 434.619 29.3242C436.638 29.3242 438.371 29.6465 439.818 30.291C441.279 30.9355 442.396 31.8236 443.169 32.9551C443.957 34.0723 444.351 35.347 444.351 36.7793H438.164C438.164 36.1777 438.035 35.6406 437.777 35.168C437.533 34.681 437.147 34.3014 436.617 34.0293C436.101 33.7428 435.428 33.5996 434.597 33.5996C433.91 33.5996 433.315 33.7214 432.814 33.9648C432.313 34.194 431.926 34.5091 431.654 34.9102C431.396 35.2969 431.267 35.7266 431.267 36.1992C431.267 36.5573 431.339 36.8796 431.482 37.166C431.639 37.4382 431.89 37.6888 432.234 37.918C432.578 38.1471 433.022 38.362 433.566 38.5625C434.125 38.7487 434.812 38.9206 435.628 39.0781C437.304 39.4219 438.801 39.873 440.119 40.4316C441.436 40.9759 442.482 41.7207 443.255 42.666C444.029 43.597 444.416 44.8216 444.416 46.3398C444.416 47.3711 444.186 48.3164 443.728 49.1758C443.27 50.0352 442.611 50.7871 441.751 51.4316C440.892 52.0618 439.861 52.556 438.658 52.9141C437.469 53.2578 436.13 53.4297 434.64 53.4297C432.477 53.4297 430.644 53.043 429.14 52.2695C427.651 51.4961 426.519 50.515 425.746 49.3262C424.986 48.123 424.607 46.8913 424.607 45.6309H430.472C430.501 46.4759 430.716 47.1562 431.117 47.6719C431.532 48.1875 432.055 48.5599 432.685 48.7891C433.33 49.0182 434.024 49.1328 434.769 49.1328C435.571 49.1328 436.237 49.0254 436.767 48.8105C437.297 48.5814 437.698 48.2806 437.97 47.9082C438.257 47.5215 438.4 47.0775 438.4 46.5762Z" fill="black"/>
<path d="M411.889 53.4297C410.084 53.4297 408.466 53.1432 407.034 52.5703C405.601 51.9831 404.384 51.1738 403.381 50.1426C402.393 49.1113 401.634 47.9154 401.104 46.5547C400.574 45.1797 400.309 43.7188 400.309 42.1719V41.3125C400.309 39.5508 400.56 37.9395 401.061 36.4785C401.562 35.0176 402.278 33.75 403.209 32.6758C404.155 31.6016 405.301 30.778 406.647 30.2051C407.993 29.6178 409.512 29.3242 411.202 29.3242C412.849 29.3242 414.31 29.5964 415.584 30.1406C416.859 30.6849 417.926 31.4583 418.786 32.4609C419.659 33.4635 420.318 34.6667 420.762 36.0703C421.206 37.4596 421.428 39.0065 421.428 40.7109V43.2891H402.952V39.1641H415.348V38.6914C415.348 37.832 415.191 37.0658 414.875 36.3926C414.575 35.7051 414.116 35.1608 413.5 34.7598C412.885 34.3587 412.097 34.1582 411.137 34.1582C410.321 34.1582 409.619 34.3372 409.032 34.6953C408.444 35.0534 407.965 35.5547 407.592 36.1992C407.234 36.8438 406.962 37.6029 406.776 38.4766C406.604 39.3359 406.518 40.2812 406.518 41.3125V42.1719C406.518 43.1029 406.647 43.9622 406.905 44.75C407.177 45.5378 407.556 46.2181 408.043 46.791C408.545 47.3639 409.146 47.8079 409.848 48.123C410.564 48.4382 411.374 48.5957 412.276 48.5957C413.393 48.5957 414.431 48.3809 415.391 47.9512C416.365 47.5072 417.203 46.8411 417.905 45.9531L420.913 49.2188C420.426 49.9206 419.76 50.5938 418.915 51.2383C418.084 51.8828 417.081 52.4128 415.907 52.8281C414.732 53.2292 413.393 53.4297 411.889 53.4297Z" fill="black"/>
<path d="M395.197 20V53H388.988V20H395.197Z" fill="black"/>
<path d="M361.961 41.6133V41.1621C361.961 39.4577 362.205 37.8893 362.692 36.457C363.179 35.0104 363.888 33.7572 364.819 32.6973C365.75 31.6374 366.896 30.8138 368.256 30.2266C369.617 29.625 371.178 29.3242 372.94 29.3242C374.702 29.3242 376.27 29.625 377.645 30.2266C379.02 30.8138 380.173 31.6374 381.104 32.6973C382.049 33.7572 382.765 35.0104 383.252 36.457C383.739 37.8893 383.983 39.4577 383.983 41.1621V41.6133C383.983 43.3034 383.739 44.8717 383.252 46.3184C382.765 47.7507 382.049 49.0039 381.104 50.0781C380.173 51.138 379.027 51.9616 377.667 52.5488C376.306 53.1361 374.745 53.4297 372.983 53.4297C371.221 53.4297 369.653 53.1361 368.278 52.5488C366.917 51.9616 365.764 51.138 364.819 50.0781C363.888 49.0039 363.179 47.7507 362.692 46.3184C362.205 44.8717 361.961 43.3034 361.961 41.6133ZM368.149 41.1621V41.6133C368.149 42.5872 368.235 43.4967 368.407 44.3418C368.579 45.1868 368.851 45.9316 369.223 46.5762C369.61 47.2064 370.111 47.7005 370.727 48.0586C371.343 48.4167 372.095 48.5957 372.983 48.5957C373.842 48.5957 374.58 48.4167 375.196 48.0586C375.812 47.7005 376.306 47.2064 376.678 46.5762C377.051 45.9316 377.323 45.1868 377.495 44.3418C377.681 43.4967 377.774 42.5872 377.774 41.6133V41.1621C377.774 40.2168 377.681 39.3288 377.495 38.498C377.323 37.653 377.043 36.9082 376.657 36.2637C376.284 35.6048 375.79 35.0892 375.174 34.7168C374.558 34.3444 373.814 34.1582 372.94 34.1582C372.066 34.1582 371.321 34.3444 370.706 34.7168C370.104 35.0892 369.61 35.6048 369.223 36.2637C368.851 36.9082 368.579 37.653 368.407 38.498C368.235 39.3288 368.149 40.2168 368.149 41.1621Z" fill="black"/>
<path d="M343.442 20V53H337.255V20H343.442ZM342.562 40.5605H340.864C340.879 38.9421 341.093 37.4525 341.509 36.0918C341.924 34.7168 342.519 33.528 343.292 32.5254C344.065 31.5085 344.989 30.7207 346.063 30.1621C347.152 29.6035 348.355 29.3242 349.673 29.3242C350.819 29.3242 351.857 29.4889 352.788 29.8184C353.733 30.1335 354.543 30.6491 355.216 31.3652C355.903 32.0671 356.433 32.9909 356.806 34.1367C357.178 35.2826 357.364 36.6719 357.364 38.3047V53H351.134V38.2617C351.134 37.2305 350.983 36.4212 350.683 35.834C350.396 35.2324 349.974 34.8099 349.415 34.5664C348.871 34.3086 348.198 34.1797 347.396 34.1797C346.507 34.1797 345.748 34.3444 345.118 34.6738C344.502 35.0033 344.008 35.4616 343.636 36.0488C343.263 36.6217 342.991 37.2949 342.819 38.0684C342.647 38.8418 342.562 39.6725 342.562 40.5605Z" fill="black"/>
<path d="M305.953 48.0371L312.184 21.7188H315.664L316.459 26.1016L309.82 53H306.082L305.953 48.0371ZM302.752 21.7188L307.908 48.0371L307.479 53H303.311L296.371 21.7188H302.752ZM321.937 47.9297L327.029 21.7188H333.41L326.492 53H322.324L321.937 47.9297ZM317.619 21.7188L323.893 48.1445L323.721 53H319.982L313.301 26.0801L314.16 21.7188H317.619Z" fill="black"/>
<path d="M291.989 37.1445V42H279.851V37.1445H291.989Z" fill="black"/>
</svg>
