<svg width="343" height="55" viewBox="0 0 343 55" fill="none" xmlns="http://www.w3.org/2000/svg">
<path d="M339.624 32.4649C339.624 32.1134 339.545 31.7882 339.386 31.4894C339.237 31.1818 338.925 30.9049 338.45 30.6588C337.985 30.404 337.281 30.1843 336.341 29.9997C335.55 29.8327 334.834 29.635 334.192 29.4065C333.559 29.1779 333.019 28.9011 332.571 28.5759C332.131 28.2507 331.793 27.8684 331.556 27.429C331.318 26.9896 331.2 26.4754 331.2 25.8866C331.2 25.3241 331.323 24.7924 331.569 24.2914C331.824 23.7905 332.18 23.3466 332.637 22.9599C333.102 22.5732 333.661 22.27 334.311 22.0503C334.961 21.8306 335.686 21.7207 336.486 21.7207C337.629 21.7207 338.604 21.9228 339.413 22.3271C340.221 22.7314 340.841 23.2719 341.272 23.9486C341.702 24.6166 341.918 25.3592 341.918 26.1766H339.479C339.479 25.7811 339.36 25.3988 339.123 25.0297C338.894 24.6517 338.556 24.3397 338.108 24.0937C337.668 23.8476 337.128 23.7245 336.486 23.7245C335.809 23.7245 335.26 23.83 334.838 24.0409C334.425 24.2431 334.122 24.5023 333.929 24.8187C333.744 25.1351 333.652 25.4691 333.652 25.8206C333.652 26.0843 333.696 26.3216 333.784 26.5325C333.88 26.7347 334.047 26.9236 334.285 27.0994C334.522 27.2664 334.856 27.4246 335.286 27.574C335.717 27.7234 336.266 27.8728 336.934 28.0222C338.103 28.2859 339.066 28.6023 339.821 28.9714C340.577 29.3405 341.14 29.7932 341.509 30.3293C341.878 30.8654 342.063 31.5157 342.063 32.2804C342.063 32.9044 341.931 33.4756 341.667 33.9942C341.412 34.5127 341.039 34.9609 340.547 35.3389C340.063 35.708 339.483 35.998 338.806 36.2089C338.138 36.4111 337.387 36.5121 336.552 36.5121C335.295 36.5121 334.232 36.288 333.362 35.8398C332.492 35.3916 331.832 34.8115 331.384 34.0996C330.936 33.3878 330.712 32.6363 330.712 31.8453H333.164C333.199 32.5133 333.392 33.045 333.744 33.4405C334.096 33.8272 334.526 34.104 335.036 34.271C335.546 34.4292 336.051 34.5083 336.552 34.5083C337.22 34.5083 337.778 34.4204 338.226 34.2447C338.683 34.0689 339.03 33.8272 339.268 33.5196C339.505 33.212 339.624 32.8604 339.624 32.4649Z" fill="white"/>
<path d="M322.921 36.5121C321.928 36.5121 321.027 36.3452 320.218 36.0112C319.418 35.6684 318.728 35.1894 318.148 34.5742C317.577 33.959 317.138 33.2296 316.83 32.3858C316.522 31.5421 316.369 30.6193 316.369 29.6174V29.0637C316.369 27.9036 316.54 26.8709 316.883 25.9657C317.226 25.0516 317.691 24.2782 318.28 23.6454C318.869 23.0126 319.537 22.5337 320.284 22.2085C321.031 21.8833 321.804 21.7207 322.604 21.7207C323.624 21.7207 324.503 21.8965 325.241 22.248C325.988 22.5996 326.599 23.0917 327.073 23.7245C327.548 24.3485 327.899 25.0868 328.128 25.9393C328.356 26.783 328.471 27.7058 328.471 28.7077V29.8019H317.819V27.8113H326.032V27.6267C325.997 26.9939 325.865 26.3787 325.636 25.7811C325.417 25.1835 325.065 24.6913 324.582 24.3046C324.098 23.9179 323.439 23.7245 322.604 23.7245C322.051 23.7245 321.541 23.8432 321.075 24.0805C320.609 24.309 320.209 24.6517 319.875 25.1088C319.541 25.5658 319.282 26.1239 319.098 26.783C318.913 27.4422 318.821 28.2024 318.821 29.0637V29.6174C318.821 30.2941 318.913 30.9313 319.098 31.5289C319.291 32.1178 319.568 32.6363 319.928 33.0845C320.297 33.5328 320.741 33.8843 321.26 34.1392C321.787 34.3941 322.385 34.5215 323.052 34.5215C323.914 34.5215 324.643 34.3457 325.241 33.9942C325.839 33.6426 326.361 33.1724 326.81 32.5836L328.286 33.7569C327.979 34.2227 327.587 34.6665 327.113 35.0884C326.638 35.5102 326.054 35.853 325.36 36.1167C324.674 36.3803 323.861 36.5121 322.921 36.5121Z" fill="white"/>
<path d="M313.086 16V36.2492H310.634V16H313.086Z" fill="white"/>
<path d="M304.161 33.8096V26.4666C304.161 25.9041 304.047 25.4164 303.819 25.0033C303.599 24.5814 303.265 24.2563 302.817 24.0277C302.368 23.7992 301.815 23.685 301.156 23.685C300.54 23.685 300 23.7905 299.534 24.0014C299.077 24.2123 298.717 24.4892 298.453 24.8319C298.198 25.1747 298.071 25.5438 298.071 25.9393H295.632C295.632 25.4295 295.764 24.9242 296.027 24.4232C296.291 23.9223 296.669 23.4697 297.161 23.0654C297.662 22.6523 298.26 22.3271 298.954 22.0898C299.657 21.8437 300.439 21.7207 301.301 21.7207C302.338 21.7207 303.252 21.8965 304.043 22.248C304.842 22.5996 305.466 23.1313 305.915 23.8432C306.372 24.5463 306.6 25.4295 306.6 26.493V33.1373C306.6 33.6119 306.64 34.1172 306.719 34.6533C306.807 35.1894 306.934 35.6509 307.101 36.0376V36.2485H304.557C304.434 35.9672 304.337 35.5937 304.267 35.1279C304.196 34.6533 304.161 34.2139 304.161 33.8096ZM304.583 27.6004L304.61 29.3142H302.144C301.45 29.3142 300.83 29.3713 300.285 29.4856C299.741 29.591 299.284 29.7536 298.914 29.9733C298.545 30.193 298.264 30.4699 298.071 30.8039C297.877 31.129 297.781 31.5114 297.781 31.9508C297.781 32.399 297.882 32.8077 298.084 33.1768C298.286 33.5459 298.589 33.8404 298.994 34.0601C299.407 34.271 299.912 34.3765 300.51 34.3765C301.257 34.3765 301.916 34.2183 302.487 33.9019C303.058 33.5855 303.511 33.1988 303.845 32.7418C304.188 32.2848 304.372 31.8409 304.399 31.4103L305.44 32.5836C305.379 32.9527 305.212 33.3614 304.939 33.8096C304.667 34.2578 304.302 34.6885 303.845 35.1016C303.397 35.5058 302.861 35.8442 302.237 36.1167C301.621 36.3803 300.927 36.5121 300.154 36.5121C299.187 36.5121 298.339 36.3232 297.609 35.9453C296.889 35.5674 296.326 35.062 295.922 34.4292C295.526 33.7876 295.329 33.0714 295.329 32.2804C295.329 31.5157 295.478 30.8434 295.777 30.2634C296.076 29.6745 296.506 29.1867 297.069 28.8C297.631 28.4045 298.308 28.1057 299.099 27.9036C299.89 27.7014 300.773 27.6004 301.749 27.6004H304.583Z" fill="white"/>
<path d="M290.108 32.4649C290.108 32.1134 290.029 31.7882 289.871 31.4894C289.721 31.1818 289.409 30.9049 288.935 30.6588C288.469 30.404 287.766 30.1843 286.825 29.9997C286.034 29.8327 285.318 29.635 284.676 29.4065C284.044 29.1779 283.503 28.9011 283.055 28.5759C282.615 28.2507 282.277 27.8684 282.04 27.429C281.802 26.9896 281.684 26.4754 281.684 25.8866C281.684 25.3241 281.807 24.7924 282.053 24.2914C282.308 23.7905 282.664 23.3466 283.121 22.9599C283.587 22.5732 284.145 22.27 284.795 22.0503C285.445 21.8306 286.17 21.7207 286.97 21.7207C288.113 21.7207 289.088 21.9228 289.897 22.3271C290.705 22.7314 291.325 23.2719 291.756 23.9486C292.186 24.6166 292.402 25.3592 292.402 26.1766H289.963C289.963 25.7811 289.844 25.3988 289.607 25.0297C289.378 24.6517 289.04 24.3397 288.592 24.0937C288.152 23.8476 287.612 23.7245 286.97 23.7245C286.294 23.7245 285.744 23.83 285.322 24.0409C284.909 24.2431 284.606 24.5023 284.413 24.8187C284.228 25.1351 284.136 25.4691 284.136 25.8206C284.136 26.0843 284.18 26.3216 284.268 26.5325C284.364 26.7347 284.531 26.9236 284.769 27.0994C285.006 27.2664 285.34 27.4246 285.771 27.574C286.201 27.7234 286.751 27.8728 287.418 28.0222C288.587 28.2859 289.55 28.6023 290.306 28.9714C291.061 29.3405 291.624 29.7932 291.993 30.3293C292.362 30.8654 292.547 31.5157 292.547 32.2804C292.547 32.9044 292.415 33.4756 292.151 33.9942C291.896 34.5127 291.523 34.9609 291.031 35.3389C290.547 35.708 289.967 35.998 289.29 36.2089C288.623 36.4111 287.871 36.5121 287.036 36.5121C285.779 36.5121 284.716 36.288 283.846 35.8398C282.976 35.3916 282.317 34.8115 281.868 34.0996C281.42 33.3878 281.196 32.6363 281.196 31.8453H283.648C283.683 32.5133 283.877 33.045 284.228 33.4405C284.58 33.8272 285.01 34.104 285.52 34.271C286.03 34.4292 286.535 34.5083 287.036 34.5083C287.704 34.5083 288.262 34.4204 288.71 34.2447C289.167 34.0689 289.515 33.8272 289.752 33.5196C289.989 33.212 290.108 32.8604 290.108 32.4649Z" fill="white"/>
<path d="M273.405 36.5121C272.412 36.5121 271.511 36.3452 270.702 36.0112C269.903 35.6684 269.213 35.1894 268.633 34.5742C268.061 33.959 267.622 33.2296 267.314 32.3858C267.007 31.5421 266.853 30.6193 266.853 29.6174V29.0637C266.853 27.9036 267.024 26.8709 267.367 25.9657C267.71 25.0516 268.176 24.2782 268.765 23.6454C269.353 23.0126 270.021 22.5337 270.768 22.2085C271.515 21.8833 272.289 21.7207 273.089 21.7207C274.108 21.7207 274.987 21.8965 275.725 22.248C276.472 22.5996 277.083 23.0917 277.558 23.7245C278.032 24.3485 278.384 25.0868 278.612 25.9393C278.841 26.783 278.955 27.7058 278.955 28.7077V29.8019H268.303V27.8113H276.516V27.6267C276.481 26.9939 276.349 26.3787 276.121 25.7811C275.901 25.1835 275.549 24.6913 275.066 24.3046C274.583 23.9179 273.924 23.7245 273.089 23.7245C272.535 23.7245 272.025 23.8432 271.559 24.0805C271.094 24.309 270.694 24.6517 270.36 25.1088C270.026 25.5658 269.766 26.1239 269.582 26.783C269.397 27.4422 269.305 28.2024 269.305 29.0637V29.6174C269.305 30.2941 269.397 30.9313 269.582 31.5289C269.775 32.1178 270.052 32.6363 270.412 33.0845C270.782 33.5328 271.225 33.8843 271.744 34.1392C272.271 34.3941 272.869 34.5215 273.537 34.5215C274.398 34.5215 275.128 34.3457 275.725 33.9942C276.323 33.6426 276.846 33.1724 277.294 32.5836L278.771 33.7569C278.463 34.2227 278.072 34.6665 277.597 35.0884C277.123 35.5102 276.538 35.853 275.844 36.1167C275.158 36.3803 274.345 36.5121 273.405 36.5121Z" fill="white"/>
<path d="M263.57 16V36.2492H261.118V16H263.57Z" fill="white"/>
<path d="M244.877 29.2746V28.9714C244.877 27.9431 245.026 26.9896 245.325 26.1107C245.624 25.223 246.055 24.454 246.617 23.8036C247.18 23.1445 247.861 22.6347 248.661 22.2744C249.46 21.9053 250.357 21.7207 251.35 21.7207C252.352 21.7207 253.253 21.9053 254.052 22.2744C254.861 22.6347 255.546 23.1445 256.109 23.8036C256.68 24.454 257.115 25.223 257.414 26.1107C257.713 26.9896 257.862 27.9431 257.862 28.9714V29.2746C257.862 30.3029 257.713 31.2565 257.414 32.1354C257.115 33.0142 256.68 33.7832 256.109 34.4424C255.546 35.0928 254.865 35.6025 254.066 35.9716C253.275 36.332 252.378 36.5121 251.376 36.5121C250.374 36.5121 249.473 36.332 248.674 35.9716C247.874 35.6025 247.188 35.0928 246.617 34.4424C246.055 33.7832 245.624 33.0142 245.325 32.1354C245.026 31.2565 244.877 30.3029 244.877 29.2746ZM247.316 28.9714V29.2746C247.316 29.9865 247.399 30.6588 247.566 31.2916C247.733 31.9156 247.984 32.4693 248.318 32.9527C248.661 33.4361 249.087 33.8184 249.597 34.0996C250.106 34.3721 250.699 34.5083 251.376 34.5083C252.044 34.5083 252.629 34.3721 253.13 34.0996C253.639 33.8184 254.061 33.4361 254.395 32.9527C254.729 32.4693 254.98 31.9156 255.147 31.2916C255.322 30.6588 255.41 29.9865 255.41 29.2746V28.9714C255.41 28.2683 255.322 27.6048 255.147 26.9808C254.98 26.348 254.725 25.7899 254.382 25.3065C254.048 24.8143 253.626 24.4276 253.116 24.1464C252.615 23.8652 252.027 23.7245 251.35 23.7245C250.682 23.7245 250.093 23.8652 249.583 24.1464C249.082 24.4276 248.661 24.8143 248.318 25.3065C247.984 25.7899 247.733 26.348 247.566 26.9808C247.399 27.6048 247.316 28.2683 247.316 28.9714Z" fill="white"/>
<path d="M233.091 16V36.2492H230.652V16H233.091ZM232.511 28.5767L231.496 28.5371C231.505 27.5616 231.65 26.6607 231.931 25.8346C232.212 24.9997 232.608 24.2746 233.117 23.6594C233.627 23.0442 234.234 22.5696 234.937 22.2356C235.648 21.8928 236.435 21.7215 237.296 21.7215C237.999 21.7215 238.632 21.8181 239.195 22.0115C239.757 22.1961 240.236 22.4949 240.632 22.9079C241.036 23.321 241.344 23.8571 241.555 24.5163C241.765 25.1667 241.871 25.962 241.871 26.9024V36.2492H239.419V26.8761C239.419 26.129 239.309 25.5314 239.089 25.0832C238.87 24.6261 238.549 24.2966 238.127 24.0944C237.705 23.8835 237.187 23.778 236.571 23.778C235.965 23.778 235.411 23.9055 234.91 24.1603C234.418 24.4152 233.992 24.7668 233.631 25.215C233.28 25.6632 233.003 26.1774 232.801 26.7574C232.608 27.3287 232.511 27.9351 232.511 28.5767Z" fill="white"/>
<path d="M213.962 33.7173L217.627 21.9844H219.236L218.919 24.3178L215.188 36.2485H213.62L213.962 33.7173ZM211.497 21.9844L214.622 33.8492L214.846 36.2485H213.198L209.058 21.9844H211.497ZM222.742 33.7569L225.722 21.9844H228.147L224.008 36.2485H222.373L222.742 33.7569ZM219.592 21.9844L223.177 33.5196L223.586 36.2485H222.031L218.194 24.2914L217.878 21.9844H219.592Z" fill="white"/>
<path d="M201.267 27.0879V29.0917H194.834V27.0879H201.267Z" fill="white"/>
<path d="M182.336 33.0318V26.6776C182.336 26.2205 182.262 25.8294 182.112 25.5043C181.963 25.1703 181.73 24.911 181.413 24.7265C181.106 24.5419 180.706 24.4496 180.214 24.4496C179.792 24.4496 179.427 24.5243 179.12 24.6737C178.812 24.8143 178.575 25.0209 178.408 25.2933C178.241 25.557 178.157 25.869 178.157 26.2293H174.36C174.36 25.6229 174.501 25.0472 174.782 24.5023C175.064 23.9574 175.472 23.4785 176.008 23.0654C176.544 22.6435 177.182 22.3139 177.92 22.0766C178.667 21.8394 179.502 21.7207 180.425 21.7207C181.532 21.7207 182.516 21.9053 183.378 22.2744C184.239 22.6435 184.916 23.1972 185.408 23.9355C185.909 24.6737 186.159 25.5965 186.159 26.7039V32.8077C186.159 33.5899 186.208 34.2315 186.304 34.7324C186.401 35.2246 186.542 35.6552 186.726 36.0244V36.2485H182.89C182.705 35.8618 182.565 35.3784 182.468 34.7983C182.38 34.2095 182.336 33.6207 182.336 33.0318ZM182.837 27.5608L182.864 29.7097H180.741C180.24 29.7097 179.805 29.7668 179.436 29.881C179.067 29.9953 178.764 30.1579 178.526 30.3688C178.289 30.571 178.113 30.8083 177.999 31.0807C177.894 31.3532 177.841 31.652 177.841 31.9772C177.841 32.3023 177.916 32.5968 178.065 32.8604C178.214 33.1153 178.43 33.3174 178.711 33.4668C178.992 33.6075 179.322 33.6778 179.7 33.6778C180.271 33.6778 180.767 33.5635 181.189 33.335C181.611 33.1065 181.936 32.8253 182.165 32.4913C182.402 32.1573 182.525 31.8409 182.534 31.5421L183.536 33.1505C183.395 33.5108 183.202 33.8843 182.956 34.271C182.719 34.6577 182.415 35.0225 182.046 35.3652C181.677 35.6992 181.233 35.976 180.715 36.1958C180.196 36.4067 179.581 36.5121 178.869 36.5121C177.964 36.5121 177.142 36.332 176.404 35.9716C175.674 35.6025 175.094 35.0972 174.664 34.4556C174.242 33.8052 174.031 33.067 174.031 32.2408C174.031 31.4938 174.172 30.8302 174.453 30.2502C174.734 29.6701 175.147 29.1823 175.692 28.7868C176.246 28.3826 176.936 28.0794 177.762 27.8772C178.588 27.6663 179.546 27.5608 180.636 27.5608H182.837Z" fill="white"/>
<path d="M159.45 16H163.247V32.9798L162.865 36.2492H159.45V16ZM172.277 28.9722V29.249C172.277 30.3125 172.163 31.288 171.935 32.1757C171.715 33.0633 171.372 33.8323 170.906 34.4827C170.441 35.1243 169.86 35.6252 169.166 35.9856C168.481 36.3371 167.672 36.5129 166.74 36.5129C165.87 36.5129 165.115 36.3371 164.473 35.9856C163.84 35.634 163.308 35.1375 162.878 34.4959C162.447 33.8543 162.1 33.1029 161.836 32.2416C161.573 31.3803 161.375 30.4399 161.243 29.4204V28.814C161.375 27.7945 161.573 26.8541 161.836 25.9928C162.1 25.1315 162.447 24.3801 162.878 23.7385C163.308 23.0969 163.84 22.6003 164.473 22.2488C165.106 21.8972 165.853 21.7215 166.714 21.7215C167.654 21.7215 168.472 21.9016 169.166 22.262C169.869 22.6135 170.449 23.1145 170.906 23.7648C171.372 24.4064 171.715 25.171 171.935 26.0587C172.163 26.9376 172.277 27.9087 172.277 28.9722ZM168.481 29.249V28.9722C168.481 28.3921 168.437 27.8472 168.349 27.3375C168.27 26.8189 168.129 26.3663 167.927 25.9796C167.725 25.5841 167.448 25.2721 167.096 25.0436C166.754 24.8151 166.31 24.7008 165.765 24.7008C165.246 24.7008 164.807 24.7887 164.447 24.9645C164.086 25.1403 163.787 25.3864 163.55 25.7028C163.322 26.0192 163.15 26.3971 163.036 26.8365C162.922 27.2672 162.851 27.7418 162.825 28.2603V29.9873C162.851 30.6816 162.966 31.2968 163.168 31.8329C163.379 32.3602 163.695 32.7777 164.117 33.0853C164.548 33.3841 165.106 33.5335 165.791 33.5335C166.327 33.5335 166.771 33.4281 167.123 33.2171C167.474 33.0062 167.747 32.7074 167.94 32.3207C168.142 31.934 168.283 31.4814 168.362 30.9628C168.441 30.4355 168.481 29.8642 168.481 29.249Z" fill="white"/>
<path d="M152.7 33.0318V26.6776C152.7 26.2205 152.626 25.8294 152.476 25.5043C152.327 25.1703 152.094 24.911 151.778 24.7265C151.47 24.5419 151.07 24.4496 150.578 24.4496C150.156 24.4496 149.791 24.5243 149.484 24.6737C149.176 24.8143 148.939 25.0209 148.772 25.2933C148.605 25.557 148.521 25.869 148.521 26.2293H144.725C144.725 25.6229 144.865 25.0472 145.147 24.5023C145.428 23.9574 145.836 23.4785 146.373 23.0654C146.909 22.6435 147.546 22.3139 148.284 22.0766C149.031 21.8394 149.866 21.7207 150.789 21.7207C151.896 21.7207 152.881 21.9053 153.742 22.2744C154.603 22.6435 155.28 23.1972 155.772 23.9355C156.273 24.6737 156.524 25.5965 156.524 26.7039V32.8077C156.524 33.5899 156.572 34.2315 156.669 34.7324C156.765 35.2246 156.906 35.6552 157.09 36.0244V36.2485H153.254C153.07 35.8618 152.929 35.3784 152.832 34.7983C152.744 34.2095 152.7 33.6207 152.7 33.0318ZM153.201 27.5608L153.228 29.7097H151.105C150.604 29.7097 150.169 29.7668 149.8 29.881C149.431 29.9953 149.128 30.1579 148.891 30.3688C148.653 30.571 148.478 30.8083 148.363 31.0807C148.258 31.3532 148.205 31.652 148.205 31.9772C148.205 32.3023 148.28 32.5968 148.429 32.8604C148.579 33.1153 148.794 33.3174 149.075 33.4668C149.356 33.6075 149.686 33.6778 150.064 33.6778C150.635 33.6778 151.132 33.5635 151.554 33.335C151.975 33.1065 152.301 32.8253 152.529 32.4913C152.766 32.1573 152.889 31.8409 152.898 31.5421L153.9 33.1505C153.76 33.5108 153.566 33.8843 153.32 34.271C153.083 34.6577 152.78 35.0225 152.41 35.3652C152.041 35.6992 151.598 35.976 151.079 36.1958C150.56 36.4067 149.945 36.5121 149.233 36.5121C148.328 36.5121 147.506 36.332 146.768 35.9716C146.039 35.6025 145.459 35.0972 145.028 34.4556C144.606 33.8052 144.395 33.067 144.395 32.2408C144.395 31.4938 144.536 30.8302 144.817 30.2502C145.098 29.6701 145.511 29.1823 146.056 28.7868C146.61 28.3826 147.3 28.0794 148.126 27.8772C148.952 27.6663 149.91 27.5608 151 27.5608H153.201Z" fill="white"/>
<path d="M129.815 16H133.611V32.9798L133.229 36.2492H129.815V16ZM142.642 28.9722V29.249C142.642 30.3125 142.527 31.288 142.299 32.1757C142.079 33.0633 141.736 33.8323 141.271 34.4827C140.805 35.1243 140.225 35.6252 139.531 35.9856C138.845 36.3371 138.036 36.5129 137.105 36.5129C136.235 36.5129 135.479 36.3371 134.837 35.9856C134.205 35.634 133.673 35.1375 133.242 34.4959C132.812 33.8543 132.464 33.1029 132.201 32.2416C131.937 31.3803 131.739 30.4399 131.607 29.4204V28.814C131.739 27.7945 131.937 26.8541 132.201 25.9928C132.464 25.1315 132.812 24.3801 133.242 23.7385C133.673 23.0969 134.205 22.6003 134.837 22.2488C135.47 21.8972 136.217 21.7215 137.078 21.7215C138.019 21.7215 138.836 21.9016 139.531 22.262C140.234 22.6135 140.814 23.1145 141.271 23.7648C141.736 24.4064 142.079 25.171 142.299 26.0587C142.527 26.9376 142.642 27.9087 142.642 28.9722ZM138.845 29.249V28.9722C138.845 28.3921 138.801 27.8472 138.713 27.3375C138.634 26.8189 138.493 26.3663 138.291 25.9796C138.089 25.5841 137.812 25.2721 137.461 25.0436C137.118 24.8151 136.674 24.7008 136.129 24.7008C135.611 24.7008 135.171 24.7887 134.811 24.9645C134.451 25.1403 134.152 25.3864 133.915 25.7028C133.686 26.0192 133.515 26.3971 133.4 26.8365C133.286 27.2672 133.216 27.7418 133.189 28.2603V29.9873C133.216 30.6816 133.33 31.2968 133.532 31.8329C133.743 32.3602 134.06 32.7777 134.481 33.0853C134.912 33.3841 135.47 33.5335 136.156 33.5335C136.692 33.5335 137.136 33.4281 137.487 33.2171C137.839 33.0062 138.111 32.7074 138.304 32.3207C138.507 31.934 138.647 31.4814 138.726 30.9628C138.805 30.4355 138.845 29.8642 138.845 29.249Z" fill="white"/>
<path d="M126.677 21.9866V36.2507H122.867V21.9866H126.677ZM122.63 18.269C122.63 17.7153 122.823 17.2583 123.21 16.8979C123.597 16.5376 124.115 16.3574 124.766 16.3574C125.407 16.3574 125.921 16.5376 126.308 16.8979C126.703 17.2583 126.901 17.7153 126.901 18.269C126.901 18.8227 126.703 19.2797 126.308 19.64C125.921 20.0004 125.407 20.1805 124.766 20.1805C124.115 20.1805 123.597 20.0004 123.21 19.64C122.823 19.2797 122.63 18.8227 122.63 18.269Z" fill="white"/>
<path d="M119.532 16V36.2492H115.722V16H119.532Z" fill="white"/>
<path d="M105.426 20.3373L100.205 36.2493H96L103.132 17.0547H105.808L105.426 20.3373ZM109.763 36.2493L104.529 20.3373L104.108 17.0547H106.81L113.982 36.2493H109.763ZM109.526 29.104V32.2021H99.3881V29.104H109.526Z" fill="white"/>
<path d="M78.9646 31.5832C70.0952 36.5091 61.1038 41.0227 51.1611 43.0941C48.9248 43.56 46.491 43.542 44.2185 43.2315C42.053 42.9357 41.0024 41.0144 41.7634 38.963C42.4777 37.0374 43.4613 35.1197 44.7221 33.5094C47.4282 30.0522 50.4743 26.8632 53.2143 23.4308C54.8928 21.3282 56.3948 19.0535 57.7257 16.7134C58.6822 15.0313 58.2544 13.0267 56.5588 12.1812C53.7096 10.7601 50.6462 9.76263 47.6438 8.66688C47.2983 8.5407 46.7675 8.92343 46.0942 9.1455C46.9515 9.93502 47.6023 10.5344 48.4653 11.3289C39.5404 12.8606 31.0518 15.0954 22.8248 18.1476C22.789 18.3275 22.7197 18.4558 22.7578 18.516C23.9691 20.4283 23.4007 21.8838 21.6441 23.0806C20.9722 23.5382 20.3584 24.0814 19.8527 24.7933C25.2708 26.4274 30.1084 25.4958 34.7094 22.3825C34.4229 21.9574 34.1655 21.5756 33.8854 21.1599C35.6375 21.4615 36.6785 22.4473 36.8141 23.9825C36.8441 24.3212 36.6286 24.6815 36.526 25.0318C36.2695 24.7489 35.9852 24.4857 35.7667 24.176C35.6313 23.9837 35.5958 23.7208 35.4771 23.3793C29.9907 27.1431 24.0959 28.0851 17.5811 26.131C17.5811 27.4392 17.5195 28.5516 17.5998 29.6535C17.6692 30.6041 17.2765 31.0078 16.4691 31.5099C14.5809 32.6839 12.6428 33.9042 11.0983 35.4738C9.21227 37.3906 9.916 39.704 12.4435 40.6825C15.3255 41.7982 18.3467 41.8167 21.3513 41.4465C24.9111 41.008 28.4515 40.4118 32.3147 39.8372C27.7486 42.0159 23.3011 43.5635 18.5662 44.1936C15.2705 44.6322 11.9768 44.8781 8.70538 43.9328C4.02124 42.5795 1.93306 39.0207 3.1659 34.2841C4.32221 29.8414 7.07295 26.2968 10.0664 23.0226C20.03 12.1243 32.6206 6.58556 47.2039 5.49848C50.6045 5.2452 54.0493 5.69229 57.2332 7.17332C61.7257 9.26301 63.5781 13.6689 61.4122 18.1259C59.9762 21.0813 57.9927 23.7985 56.0409 26.4659C54.1126 29.1012 51.8982 31.5254 49.8475 34.0731C49.2425 34.8248 48.696 35.6437 48.2485 36.4982C47.3994 38.1192 47.9817 39.2276 49.8162 39.0444C53.6642 38.6602 57.5781 38.3575 61.2952 37.3761C66.7517 35.9351 72.0602 33.9311 77.4298 32.1609C77.9487 31.9899 78.4534 31.7768 78.9646 31.5832Z" fill="white"/>
</svg>
