<svg width="109" height="24" viewBox="0 0 109 24" fill="none" xmlns="http://www.w3.org/2000/svg">
<g clip-path="url(#clip0_101_1727)">
<path fill-rule="evenodd" clip-rule="evenodd" d="M5.16041 3.20915L1.00173 5.60091C1.00173 5.60091 0.546399 5.85323 0.546399 6.38807V16.1671C0.546399 16.1671 0.391435 16.6308 1.06244 17.0148C1.73344 17.3987 11.8082 23.1304 11.8082 23.1304C11.8082 23.1304 12.2164 23.3696 12.4457 23.2818C12.6749 23.194 13.9635 22.4643 13.9635 22.4643L20.7023 18.6194L23.5861 17.0148C23.5861 17.0148 24.1021 16.7447 24.1021 16.3184V6.17615C24.1021 6.17615 24.0038 5.83564 23.8289 5.72201C23.654 5.60839 19.8827 3.42108 19.8827 3.42108C19.8827 3.42108 19.2464 2.93195 18.8203 3.17887C18.4549 3.41529 15.5116 5.1165 15.5116 5.1165C15.5116 5.1165 14.0937 6.09685 13.0832 6.14587C12.3773 6.19489 10.9908 6.37094 9.50122 5.35871C9.02923 5.07109 6.13178 3.36053 6.13178 3.36053C6.13178 3.36053 5.59009 2.90385 5.16041 3.20915Z" fill="url(#paint0_linear_101_1727)"/>
<path opacity="0.2" d="M1.07762 5.66149C1.08112 5.59861 1.03271 5.59414 0.985055 5.60564C0.831964 5.68527 0.907524 5.62434 0.985055 5.60564C1.00968 5.59283 1.04022 5.57638 1.07762 5.55554C1.49045 5.32544 3.98161 3.89543 5.17559 3.20919C5.28689 3.13854 5.56717 3.03056 5.79787 3.16377C6.02857 3.29699 8.5855 4.82388 9.83513 5.57067C10.2399 5.80783 11.3286 6.26398 12.4457 6.19132C12.7341 6.16104 13.4626 6.28214 14.7375 5.57067C15.4175 5.18314 17.7022 3.84497 18.7596 3.22432C18.8709 3.14358 19.1664 3.02147 19.4578 3.17891C19.7492 3.33634 22.4225 4.89956 23.7227 5.66149L12.4457 11.5955L1.07762 5.66149Z" fill="white"/>
</g>
<path fill-rule="evenodd" clip-rule="evenodd" d="M35.5966 5.54932L33 5.6771V18.8387H40.6598V16.5386H35.4667L35.5966 5.54932Z" fill="white"/>
<path fill-rule="evenodd" clip-rule="evenodd" d="M49.9424 7.84933V9.25494C49.9424 9.25494 47.7623 7.03971 45.2037 7.65766C43.3816 8.27562 41.3582 9.338 40.8545 12.4495C40.7254 13.4196 40.3691 17.7474 45.2686 19.0303C45.9844 19.2035 47.9879 19.4757 49.8126 17.433V18.9025H52.2793V7.84933H49.9424ZM46.6643 9.76607C49.035 9.75437 50.0722 11.5806 50.0722 13.5037C50.0722 15.4268 48.5468 16.9858 46.6643 16.9858C44.7818 16.9858 43.2563 15.4268 43.2563 13.5037C43.2563 11.5806 44.1846 9.77827 46.6643 9.76607Z" fill="white"/>
<path fill-rule="evenodd" clip-rule="evenodd" d="M62.4708 7.84961V9.63856L56.4987 16.7305H62.6006V18.8389H53.4478V17.0499L59.2251 10.0219H53.4478V7.84961H62.4708Z" fill="white"/>
<path d="M71.5387 17.3359C72.1065 17.3359 72.5674 17.2734 72.9216 17.1484C73.5934 16.9089 73.9294 16.4635 73.9294 15.8125C73.9294 15.4323 73.7627 15.138 73.4294 14.9297C73.096 14.7266 72.5726 14.5469 71.8591 14.3906L70.6403 14.1172C69.4424 13.8464 68.6143 13.5521 68.1559 13.2344C67.3799 12.7031 66.9919 11.8724 66.9919 10.7422C66.9919 9.71094 67.3669 8.85417 68.1169 8.17188C68.8669 7.48958 69.9684 7.14844 71.4216 7.14844C72.6351 7.14844 73.669 7.47135 74.5231 8.11719C75.3825 8.75781 75.833 9.6901 75.8747 10.9141H73.5622C73.5205 10.2214 73.2184 9.72917 72.6559 9.4375C72.2809 9.24479 71.8148 9.14844 71.2575 9.14844C70.6377 9.14844 70.1429 9.27344 69.7731 9.52344C69.4033 9.77344 69.2184 10.1224 69.2184 10.5703C69.2184 10.9818 69.4007 11.2891 69.7653 11.4922C69.9997 11.6276 70.4997 11.7865 71.2653 11.9688L73.2497 12.4453C74.1195 12.6536 74.7757 12.9323 75.2184 13.2812C75.9059 13.8229 76.2497 14.6068 76.2497 15.6328C76.2497 16.6849 75.846 17.5599 75.0387 18.2578C74.2367 18.9505 73.1012 19.2969 71.6325 19.2969C70.1325 19.2969 68.9528 18.9557 68.0934 18.2734C67.2341 17.5859 66.8044 16.6432 66.8044 15.4453H69.1012C69.1742 15.9714 69.3174 16.3646 69.5309 16.625C69.9216 17.099 70.5908 17.3359 71.5387 17.3359ZM84.0181 19V13.8594H79.5181V19H77.1353V7.48438H79.5181V11.875H84.0181V7.48438H86.4087V19H84.0181ZM92.9272 19.3203C91.2814 19.3203 90.0235 18.8724 89.1537 17.9766C87.9871 16.8776 87.4037 15.2943 87.4037 13.2266C87.4037 11.1172 87.9871 9.53385 89.1537 8.47656C90.0235 7.58073 91.2814 7.13281 92.9272 7.13281C94.573 7.13281 95.8308 7.58073 96.7006 8.47656C97.8621 9.53385 98.4428 11.1172 98.4428 13.2266C98.4428 15.2943 97.8621 16.8776 96.7006 17.9766C95.8308 18.8724 94.573 19.3203 92.9272 19.3203ZM95.2006 16.2266C95.7579 15.5234 96.0366 14.5234 96.0366 13.2266C96.0366 11.9349 95.7553 10.9375 95.1928 10.2344C94.6355 9.52604 93.8803 9.17188 92.9272 9.17188C91.9741 9.17188 91.2136 9.52344 90.6459 10.2266C90.0782 10.9297 89.7944 11.9297 89.7944 13.2266C89.7944 14.5234 90.0782 15.5234 90.6459 16.2266C91.2136 16.9297 91.9741 17.2812 92.9272 17.2812C93.8803 17.2812 94.6381 16.9297 95.2006 16.2266ZM104.297 14.8594H101.852V19H99.4613V7.48438H104.477C105.633 7.48438 106.555 7.78125 107.243 8.375C107.93 8.96875 108.274 9.88802 108.274 11.1328C108.274 12.4922 107.93 13.4531 107.243 14.0156C106.555 14.5781 105.573 14.8594 104.297 14.8594ZM105.422 12.4609C105.735 12.1849 105.891 11.7474 105.891 11.1484C105.891 10.5495 105.732 10.1224 105.414 9.86719C105.102 9.61198 104.662 9.48438 104.094 9.48438H101.852V12.875H104.094C104.662 12.875 105.104 12.737 105.422 12.4609Z" fill="white"/>
<defs>
<linearGradient id="paint0_linear_101_1727" x1="2.83823" y1="23.3121" x2="27.8966" y2="23.3121" gradientUnits="userSpaceOnUse">
<stop offset="0.211767" stop-color="#FF2E00"/>
<stop offset="0.385205" stop-color="#F0022D"/>
<stop offset="0.818801" stop-color="#FF00BF"/>
</linearGradient>
<clipPath id="clip0_101_1727">
<rect width="24.5271" height="23.3008" fill="white"/>
</clipPath>
</defs>
</svg>
