<svg width="843" height="255" viewBox="0 0 843 255" fill="none" xmlns="http://www.w3.org/2000/svg">
<g clip-path="url(#clip0_68_153)">
<path d="M101.349 226.164C71.4469 226.164 42.7046 226.292 13.9623 226.082C6.04402 226.022 -0.420176 220.856 0.340761 208.029C1.32772 191.348 1.82496 174.629 2.49549 157.926C3.64067 129.377 4.79337 100.813 5.90087 72.2564C6.33031 61.1532 6.67688 50.0425 7.00084 38.9318C7.10632 35.4607 7.01591 31.9895 7.01591 28.286C25.3462 28.286 43.0964 28.286 60.4774 28.286C58.9103 34.681 57.4035 41.166 55.6707 47.591C55.3919 48.6331 54.1488 49.4428 53.2899 50.3049C49.8318 53.7611 49.5606 58.2444 52.5968 62.1278C55.5275 65.8689 60.2438 66.7461 64.3574 64.3245C68.3504 61.9704 70.5504 56.6175 67.8607 53.0564C64.7416 48.918 65.7512 45.0495 66.6025 40.8886C66.8286 39.8015 67.1525 38.7219 67.5368 37.6798C71.0325 28.136 71.0401 28.136 81.2035 28.121C99.6392 28.091 118.083 28.151 136.518 27.9636C139.773 27.9336 141.702 28.8782 142.689 31.9295C144.211 36.6452 146.019 41.2784 147.277 46.0616C147.639 47.4485 146.953 49.5027 146.056 50.7548C142.869 55.208 143.163 60.2086 147.149 63.4248C151.3 66.7761 156.596 66.3637 159.889 62.4202C163.234 58.4243 162.692 53.2588 158.623 49.5252C157.945 48.903 157.207 48.0933 156.988 47.2461C155.384 41.0085 153.907 34.741 152.355 28.3384C169.54 28.3384 187.245 28.3384 205.749 28.3384C205.749 32.4393 205.628 36.5253 205.771 40.5962C206.751 69.6699 207.753 98.7512 208.8 127.825C209.395 144.416 210.058 161.007 210.744 177.591C211.218 189.054 211.896 200.509 212.258 211.972C212.514 219.957 207.074 226.194 197.89 226.179C179.184 226.149 160.477 226.172 141.77 226.172C139.185 226.172 136.601 226.172 134.017 226.172C141.167 222.761 147.405 218.367 152.551 212.475C162.616 200.944 167.332 187.299 169.05 172.328C170.693 158.031 174.407 144.281 180.856 131.304C181.655 129.699 182.295 127.12 181.542 125.891C180.796 124.676 178.091 123.889 176.403 124.114C157.719 126.55 140.436 132.623 125.481 144.393C121.164 147.79 121.096 147.85 123.771 152.325C129.602 162.102 133.068 172.62 134.145 183.933C134.22 184.698 134.567 185.433 134.981 186.857C137.332 181.811 138.989 177.231 141.491 173.167C143.962 169.149 147.292 165.655 150.69 161.382C151.164 162.844 151.353 163.189 151.285 163.241C140.315 172.65 136.337 185.545 133.264 198.897C131.116 208.224 127.44 216.898 121.315 224.343C120.275 225.61 118.12 225.969 116.101 225.984C118.655 222.191 121.563 218.592 123.695 214.574C135.772 191.805 131.365 170.348 118.06 149.716C111.114 138.943 101.726 130.569 91.5402 122.929C76.8111 111.886 63.8828 99.0735 53.742 83.637C53.3276 83.0073 52.8906 82.4 52.431 81.8077C49.0332 77.3694 45.3641 77.6393 43.0512 82.7524C37.6493 94.6952 33.6788 107.148 32.4809 120.2C31.6145 129.707 30.8762 139.408 31.7803 148.862C33.9576 171.728 44.4902 190.546 62.4287 205.06C73.4058 213.944 85.7314 220.519 99.142 225.055C99.5714 225.212 99.9707 225.475 101.349 226.164Z" fill="#4DAA71"/>
<path d="M57.9833 51.95C59.6031 32.2702 67.446 16.0764 85.2263 6.0678C105.621 -5.41025 131.304 1.49458 144.61 21.4144C151.172 31.2356 154.268 42.0988 155.089 53.7118C155.21 55.3987 155.541 57.5354 152.882 57.6103C150.057 57.6853 150.366 55.4962 150.253 53.6219C149.145 34.8642 141.664 19.5701 124.855 10.0862C108.823 1.04475 88.6016 5.03321 75.9218 19.3826C67.3405 29.0989 62.8427 40.457 62.4886 53.4195C62.4359 55.2188 62.9407 57.5654 60.0928 57.5953C57.034 57.6328 58.0436 55.0988 57.8251 53.4195C57.7723 52.9546 57.9305 52.4448 57.9833 51.95Z" fill="#4DAA71"/>
<path d="M62.5938 136.472C64.9444 155.77 78.4228 168.208 90.206 181.687C98.3277 190.976 105.688 200.693 108.28 213.108C108.883 215.979 109.116 218.918 108.808 221.932C107.971 217.853 107.421 213.685 106.238 209.704C102.524 197.259 94.0936 187.775 85.678 178.351C78.1817 169.954 70.3312 161.798 65.7355 151.354C63.7239 146.781 62.6164 141.818 61.1021 137.035C61.5993 136.84 62.0965 136.652 62.5938 136.472Z" fill="#4DAA71"/>
</g>
<path d="M328.754 114.082C328.209 112.188 327.444 110.515 326.459 109.063C325.473 107.585 324.267 106.34 322.841 105.329C321.44 104.291 319.832 103.5 318.017 102.955C316.227 102.411 314.243 102.139 312.065 102.139C307.993 102.139 304.414 103.15 301.328 105.173C298.267 107.196 295.881 110.139 294.17 114.004C292.458 117.842 291.602 122.536 291.602 128.086C291.602 133.636 292.445 138.357 294.131 142.247C295.817 146.137 298.203 149.106 301.289 151.155C304.375 153.178 308.019 154.19 312.22 154.19C316.033 154.19 319.288 153.515 321.985 152.167C324.708 150.792 326.783 148.86 328.209 146.37C329.662 143.881 330.388 140.937 330.388 137.54L333.811 138.045H313.271V125.363H346.61V135.4C346.61 142.402 345.132 148.419 342.175 153.451C339.219 158.456 335.147 162.32 329.96 165.043C324.773 167.741 318.834 169.089 312.143 169.089C304.673 169.089 298.112 167.442 292.458 164.149C286.804 160.829 282.395 156.122 279.231 150.027C276.093 143.907 274.524 136.645 274.524 128.242C274.524 121.784 275.458 116.027 277.325 110.969C279.218 105.886 281.864 101.581 285.261 98.0538C288.659 94.5267 292.614 91.8424 297.126 90.001C301.639 88.1597 306.528 87.239 311.792 87.239C316.305 87.239 320.507 87.9003 324.397 89.223C328.287 90.5197 331.736 92.3611 334.745 94.7471C337.779 97.1331 340.256 99.973 342.175 103.267C344.094 106.534 345.326 110.139 345.871 114.082H328.754ZM358.952 168V108.246H375.018V118.672H375.641C376.73 114.963 378.558 112.162 381.126 110.269C383.693 108.35 386.65 107.39 389.996 107.39C390.826 107.39 391.72 107.442 392.68 107.546C393.64 107.65 394.482 107.792 395.209 107.974V122.679C394.431 122.445 393.354 122.238 391.98 122.056C390.605 121.875 389.347 121.784 388.206 121.784C385.768 121.784 383.59 122.316 381.671 123.379C379.777 124.417 378.273 125.869 377.158 127.736C376.069 129.603 375.524 131.756 375.524 134.194V168H358.952ZM428.227 169.167C422.08 169.167 416.79 167.922 412.355 165.432C407.946 162.917 404.548 159.364 402.162 154.773C399.776 150.157 398.583 144.698 398.583 138.395C398.583 132.249 399.776 126.854 402.162 122.212C404.548 117.57 407.907 113.952 412.238 111.358C416.595 108.765 421.704 107.468 427.565 107.468C431.508 107.468 435.177 108.104 438.575 109.374C441.998 110.619 444.981 112.499 447.522 115.015C450.09 117.531 452.087 120.695 453.513 124.507C454.94 128.294 455.653 132.729 455.653 137.812V142.363H405.197V132.093H440.053C440.053 129.707 439.534 127.594 438.497 125.752C437.46 123.911 436.02 122.471 434.179 121.434C432.363 120.371 430.25 119.839 427.838 119.839C425.322 119.839 423.092 120.423 421.147 121.59C419.227 122.731 417.723 124.274 416.634 126.219C415.545 128.138 414.987 130.278 414.961 132.638V142.402C414.961 145.359 415.506 147.913 416.595 150.066C417.71 152.219 419.279 153.878 421.302 155.046C423.325 156.213 425.724 156.796 428.499 156.796C430.341 156.796 432.026 156.537 433.556 156.018C435.087 155.499 436.396 154.721 437.486 153.684C438.575 152.647 439.405 151.376 439.975 149.872L455.303 150.883C454.525 154.566 452.93 157.782 450.518 160.531C448.132 163.254 445.046 165.381 441.259 166.911C437.499 168.415 433.154 169.167 428.227 169.167ZM493.699 169.167C487.553 169.167 482.262 167.922 477.827 165.432C473.418 162.917 470.021 159.364 467.635 154.773C465.249 150.157 464.056 144.698 464.056 138.395C464.056 132.249 465.249 126.854 467.635 122.212C470.021 117.57 473.379 113.952 477.71 111.358C482.068 108.765 487.177 107.468 493.038 107.468C496.98 107.468 500.65 108.104 504.047 109.374C507.471 110.619 510.453 112.499 512.995 115.015C515.562 117.531 517.559 120.695 518.986 124.507C520.412 128.294 521.125 132.729 521.125 137.812V142.363H470.669V132.093H505.526C505.526 129.707 505.007 127.594 503.969 125.752C502.932 123.911 501.493 122.471 499.651 121.434C497.836 120.371 495.722 119.839 493.31 119.839C490.795 119.839 488.564 120.423 486.619 121.59C484.7 122.731 483.196 124.274 482.106 126.219C481.017 128.138 480.46 130.278 480.434 132.638V142.402C480.434 145.359 480.978 147.913 482.068 150.066C483.183 152.219 484.752 153.878 486.775 155.046C488.798 156.213 491.197 156.796 493.972 156.796C495.813 156.796 497.499 156.537 499.029 156.018C500.559 155.499 501.869 154.721 502.958 153.684C504.047 152.647 504.877 151.376 505.448 149.872L520.775 150.883C519.997 154.566 518.402 157.782 515.99 160.531C513.604 163.254 510.518 165.381 506.732 166.911C502.971 168.415 498.627 169.167 493.699 169.167ZM548.513 133.455V168H531.94V108.246H547.734V118.789H548.435C549.757 115.313 551.975 112.564 555.087 110.541C558.199 108.493 561.973 107.468 566.408 107.468C570.557 107.468 574.175 108.376 577.261 110.191C580.348 112.007 582.746 114.6 584.458 117.972C586.17 121.317 587.026 125.311 587.026 129.954V168H570.453V132.91C570.479 129.253 569.546 126.401 567.652 124.352C565.759 122.277 563.153 121.24 559.833 121.24C557.603 121.24 555.632 121.719 553.92 122.679C552.234 123.638 550.911 125.039 549.952 126.88C549.018 128.696 548.538 130.887 548.513 133.455ZM625.753 88.3282H646.527L668.468 141.858H669.401L691.342 88.3282H712.116V168H695.777V116.143H695.116L674.497 167.611H663.371L642.753 115.949H642.092V168H625.753V88.3282ZM742.722 169.128C738.91 169.128 735.512 168.467 732.53 167.144C729.547 165.796 727.187 163.812 725.45 161.192C723.738 158.547 722.882 155.253 722.882 151.311C722.882 147.991 723.491 145.203 724.71 142.947C725.929 140.691 727.589 138.875 729.69 137.501C731.791 136.126 734.177 135.089 736.848 134.388C739.545 133.688 742.372 133.195 745.329 132.91C748.804 132.547 751.605 132.21 753.731 131.899C755.858 131.562 757.401 131.069 758.361 130.42C759.32 129.772 759.8 128.812 759.8 127.542V127.308C759.8 124.844 759.022 122.938 757.466 121.59C755.936 120.241 753.757 119.567 750.931 119.567C747.948 119.567 745.575 120.228 743.811 121.551C742.048 122.847 740.881 124.481 740.31 126.452L724.983 125.208C725.761 121.577 727.291 118.439 729.573 115.793C731.855 113.122 734.799 111.073 738.404 109.647C742.035 108.194 746.236 107.468 751.008 107.468C754.328 107.468 757.505 107.857 760.539 108.635C763.6 109.413 766.31 110.619 768.67 112.253C771.056 113.887 772.936 115.988 774.311 118.555C775.685 121.097 776.373 124.144 776.373 127.697V168H760.656V159.714H760.189C759.23 161.581 757.946 163.228 756.338 164.654C754.73 166.055 752.798 167.157 750.542 167.961C748.285 168.739 745.679 169.128 742.722 169.128ZM747.468 157.691C749.906 157.691 752.059 157.211 753.926 156.252C755.793 155.266 757.259 153.943 758.322 152.283C759.385 150.624 759.917 148.743 759.917 146.643V140.302C759.398 140.639 758.685 140.95 757.777 141.235C756.896 141.495 755.897 141.741 754.782 141.974C753.667 142.182 752.551 142.376 751.436 142.558C750.321 142.714 749.31 142.856 748.402 142.986C746.457 143.271 744.758 143.725 743.306 144.347C741.853 144.97 740.725 145.813 739.921 146.876C739.117 147.913 738.715 149.21 738.715 150.766C738.715 153.023 739.532 154.747 741.166 155.94C742.826 157.107 744.927 157.691 747.468 157.691ZM805.802 88.3282V168H789.23V88.3282H805.802ZM835.65 88.3282V168H819.077V88.3282H835.65Z" fill="#4DAA71"/>
<defs>
<clipPath id="clip0_68_153">
<rect width="212" height="226" fill="white" transform="translate(0.279785 0.52002)"/>
</clipPath>
</defs>
</svg>
