<svg width="129" height="36" viewBox="0 0 129 36" fill="none" xmlns="http://www.w3.org/2000/svg">
<rect width="36" height="36" rx="5" fill="white"/>
<g clip-path="url(#clip0_596_2416)">
<path d="M11.53 14.1185C11.8886 15.0419 12.2466 15.9655 12.606 16.8889C12.6913 17.1075 12.683 17.1335 12.455 17.2085C12.261 17.2722 12.0676 17.3435 11.8683 17.3849C11.586 17.4429 11.377 17.3415 11.2643 17.0669C11.1426 16.7709 11.0523 16.4612 10.963 16.1532C10.6206 14.9729 10.283 13.7915 9.94963 12.6089C9.93463 12.5555 9.96096 12.4429 9.99396 12.4312C10.3056 12.3205 10.6183 12.2065 10.9396 12.1332C11.1676 12.0812 11.3776 12.1802 11.5376 12.3545C12.014 12.8739 12.4853 13.3979 12.9623 13.9162C13.2013 14.1759 13.4486 14.4279 13.713 14.6685C13.4986 14.1009 13.2836 13.5335 13.0703 12.9655C12.907 12.5302 12.7493 12.0925 12.5813 11.6592C12.53 11.5269 12.5663 11.4645 12.695 11.4259C12.912 11.3605 13.1236 11.2742 13.3436 11.2209C13.582 11.1632 13.7893 11.2485 13.8853 11.4719C14.0313 11.8112 14.1583 12.1609 14.2626 12.5152C14.5983 13.6565 14.9176 14.8025 15.2493 15.9452C15.2946 16.1015 15.256 16.1869 15.106 16.2365C14.8643 16.3165 14.6266 16.4099 14.3826 16.4809C14.1546 16.5472 13.9573 16.4699 13.7913 16.3055C13.0733 15.5949 12.355 14.8845 11.6366 14.1742C11.6093 14.1472 11.579 14.1235 11.55 14.0985L11.53 14.1189V14.1185Z" fill="#1A508C"/>
<path d="M25.2027 10.1058C25.236 10.4508 25.2854 10.7735 25.295 11.0975C25.316 11.7905 25.0387 12.3505 24.473 12.7528C23.9497 13.1248 23.3674 13.3492 22.717 13.3235C22.0687 13.2978 21.6934 12.9052 21.481 12.3262C21.261 11.7265 21.3764 11.1938 21.806 10.7252C21.8204 10.7095 21.83 10.6898 21.847 10.6642C21.4537 10.5065 21.177 10.2402 21.0564 9.83817C20.8787 9.24651 21.0837 8.74651 21.501 8.34217C22.014 7.84551 22.6384 7.57817 23.3664 7.60151C23.894 7.61851 24.3217 8.11484 24.2207 8.63151C24.1904 8.78751 24.051 8.93751 23.9277 9.05484C23.828 9.14984 23.6774 9.19117 23.5494 9.25684C23.4504 9.30751 23.3804 9.28117 23.3344 9.17984C23.228 8.94451 23.0644 8.80517 22.7867 8.84751C22.563 8.88184 22.3804 9.05817 22.3184 9.30917C22.259 9.54917 22.352 9.83317 22.5397 9.96484C22.6837 10.0658 22.842 10.0638 23.0007 10.0062C23.7504 9.73284 24.4997 9.45817 25.2487 9.18251C25.4697 9.10117 25.505 9.11617 25.5717 9.33484C25.7267 9.84484 25.724 9.84984 25.2027 10.1058ZM23.9997 10.5372C23.6544 10.6668 23.3224 10.7735 23.0084 10.9192C22.8924 10.9732 22.7834 11.1048 22.734 11.2265C22.6144 11.5215 22.779 11.8872 23.0557 12.0125C23.3467 12.1445 23.7467 12.0112 23.9264 11.7245C24.1604 11.3512 24.0827 10.9592 23.9997 10.5372Z" fill="#1A508C"/>
<path d="M16.8941 11.028C16.5411 11.1574 16.2101 11.279 15.8787 11.3997C15.7051 11.463 15.6721 11.4467 15.6207 11.2707C15.5804 11.1327 15.5387 10.9947 15.5051 10.855C15.4441 10.603 15.5514 10.3807 15.7944 10.2904C16.8374 9.90305 17.8834 9.52305 18.9267 9.13638C19.0601 9.08705 19.1244 9.13005 19.1571 9.25738C19.1927 9.39671 19.2357 9.53438 19.2701 9.67405C19.3421 9.96805 19.2711 10.126 18.9901 10.2464C18.7211 10.3617 18.4437 10.4584 18.1474 10.5717C18.2231 10.8414 18.2967 11.1117 18.3751 11.3804C18.6757 12.411 18.9757 13.442 19.2821 14.4714C19.3271 14.623 19.3077 14.7087 19.1417 14.7517C18.9601 14.7987 18.7867 14.8794 18.6041 14.92C18.2831 14.9917 18.0384 14.868 17.9284 14.558C17.7881 14.162 17.6701 13.7577 17.5534 13.3537C17.3321 12.5884 17.1184 11.8207 16.8944 11.028H16.8941Z" fill="#1A508C"/>
<path d="M8.5411 18.6171C8.25877 18.5857 8.0821 18.4707 7.98477 18.1847C7.85277 17.7977 7.73577 17.4051 7.62244 17.0117C7.31577 15.9481 7.01644 14.8821 6.7081 13.8187C6.6731 13.6981 6.68677 13.6281 6.81077 13.5897C7.0271 13.5227 7.2401 13.4434 7.4591 13.3861C7.6601 13.3334 7.84444 13.3977 7.95744 13.5677C8.06277 13.7267 8.15577 13.9034 8.20977 14.0854C8.60244 15.4067 8.98377 16.7314 9.36844 18.0551C9.44344 18.3131 9.44177 18.3204 9.18444 18.4101C8.97177 18.4841 8.75544 18.5484 8.5411 18.6171Z" fill="#1A508C"/>
<path d="M14.0341 24.6337C13.6371 24.8051 13.2658 24.7724 12.9065 24.5751C12.6148 24.4151 12.4075 24.1887 12.2971 23.8611C12.1131 23.3154 11.8998 22.7797 11.7045 22.2377C11.5088 21.6941 11.8535 20.9837 12.4401 20.7101C12.4745 20.6941 12.5101 20.6817 12.5635 20.6607C12.6305 20.8404 12.6995 21.0134 12.7561 21.1907C12.7645 21.2171 12.7225 21.2764 12.6891 21.2971C12.3668 21.4987 12.2655 21.7797 12.3945 22.1351C12.4378 22.2544 12.4835 22.3731 12.5348 22.5104C12.8091 22.4114 13.0781 22.3157 13.3461 22.2177C13.6111 22.1207 13.8748 22.0207 14.1525 21.9174C14.0838 21.7337 14.0268 21.5494 13.9468 21.3754C13.8385 21.1401 13.5545 21.0224 13.2468 21.0924C13.1318 21.1187 13.1008 21.0831 13.0701 20.9901C13.0208 20.8397 12.9621 20.6921 12.9085 20.5464C13.4455 20.2721 14.3871 20.5587 14.5808 21.1911C14.6941 21.5611 14.8445 21.9194 14.9881 22.3101C14.2411 22.5861 13.5031 22.8587 12.7608 23.1331C12.8328 23.3307 12.8975 23.5127 12.9655 23.6934C13.0765 23.9877 13.3555 24.1501 13.6641 24.0851C13.7868 24.0591 13.8461 24.0801 13.8805 24.2061C13.9191 24.3484 13.9798 24.4847 14.0341 24.6331V24.6337Z" fill="#1A508C"/>
<path d="M21.0393 17.5888C21.1679 17.5431 21.2849 17.5088 21.3953 17.4598C21.4756 17.4241 21.5182 17.4365 21.5462 17.5201C21.6039 17.6918 21.6653 17.8625 21.7283 18.0428C21.5689 18.1045 21.4206 18.1621 21.2669 18.2215C21.5309 18.9398 21.7849 19.6481 22.0523 20.3511C22.1896 20.7125 22.4222 20.8145 22.7946 20.6871C22.9092 20.6478 22.9636 20.6681 23.0203 20.7685C23.1069 20.9218 23.2076 21.0671 23.3099 21.2281C22.9736 21.3721 22.6459 21.4938 22.2886 21.4405C21.8796 21.3795 21.6296 21.1065 21.4862 20.7428C21.1996 20.0161 20.9309 19.2821 20.6546 18.5515C20.6429 18.5208 20.6286 18.4915 20.6112 18.4515C20.4569 18.5065 20.3076 18.5598 20.1342 18.6218C20.0596 18.4218 19.9869 18.2275 19.9062 18.0125C20.0669 17.9505 20.2196 17.8915 20.3883 17.8261C20.2549 17.4648 20.1313 17.1055 19.9883 16.7541C19.9233 16.5938 19.9569 16.5261 20.1209 16.4855C20.2693 16.4488 20.4106 16.3848 20.5683 16.3281C20.7276 16.7551 20.8819 17.1681 21.0389 17.5888H21.0393Z" fill="#1A508C"/>
<path d="M7.05195 26.5361C7.12861 26.7438 7.20428 26.9498 7.27995 27.1548C6.59961 27.4408 5.66295 27.0788 5.35795 26.3821C5.10528 25.8048 4.90461 25.2041 4.68928 24.6108C4.56295 24.2628 4.40228 23.9168 4.34628 23.5561C4.25295 22.9558 4.65795 22.1661 5.37061 21.9468C5.44895 22.1548 5.52761 22.3644 5.61161 22.5871C5.29328 22.7251 5.10795 22.9688 5.08695 23.3001C5.07528 23.4861 5.11161 23.6864 5.17361 23.8638C5.41795 24.5641 5.68061 25.2578 5.93728 25.9538C6.07928 26.3391 6.37628 26.5064 6.76761 26.5354C6.85561 26.5418 6.94428 26.5364 7.05195 26.5364V26.5361Z" fill="#1A508C"/>
<path d="M7.66312 27.0184C7.59045 26.8237 7.51678 26.6394 7.45645 26.451C7.44612 26.418 7.48212 26.3494 7.51645 26.3264C7.92412 26.055 8.06445 25.6367 7.89412 25.169C7.62512 24.4304 7.35478 23.692 7.08212 22.9547C6.94478 22.5827 6.48578 22.34 6.09378 22.426C6.06245 22.433 6.03112 22.4397 5.98445 22.4497C5.90478 22.2337 5.82745 22.0237 5.74512 21.8004C6.19145 21.6357 6.60812 21.666 7.00712 21.8844C7.37378 22.085 7.63412 22.3687 7.77378 22.782C8.02678 23.532 8.31578 24.27 8.59112 25.0127C8.88212 25.798 8.46312 26.7267 7.66312 27.0184Z" fill="#1A508C"/>
<path d="M17.9746 18.6221C18.054 18.8377 18.1223 19.0234 18.1966 19.2254C18.001 19.3214 17.8473 19.4501 17.7866 19.6724C17.703 19.9781 17.8216 20.2211 18.1343 20.2324C18.5413 20.2474 18.9526 20.2191 19.3586 20.1764C19.8 20.1301 20.2206 20.1477 20.4993 20.5394C20.886 21.0827 20.8726 21.7591 20.3246 22.2474C20.1726 22.3827 19.9823 22.4751 19.7883 22.6007C19.7023 22.3657 19.6343 22.1804 19.562 21.9824C19.7766 21.8784 19.951 21.7441 20.044 21.5197C20.1923 21.1624 20.0276 20.8587 19.6416 20.8554C19.244 20.8521 18.844 20.8804 18.449 20.9264C17.904 20.9901 17.413 20.7737 17.2283 20.3541C16.9893 19.8111 17.1253 19.2317 17.584 18.8731C17.6996 18.7827 17.8316 18.7131 17.9746 18.6221Z" fill="#1A508C"/>
<path d="M30.873 18.4544C30.658 18.534 30.4567 18.6087 30.23 18.6927C29.5927 16.9594 28.958 15.234 28.3184 13.4944C28.5194 13.4204 28.7027 13.3464 28.8917 13.29C28.9234 13.2807 29.0024 13.3404 29.0187 13.3837C29.277 14.0727 29.5287 14.764 29.782 15.4547C30.1364 16.421 30.491 17.3874 30.845 18.3537C30.8544 18.379 30.8597 18.4054 30.873 18.454V18.4544Z" fill="#1A508C"/>
<path d="M14.7581 19.8515C14.9471 19.7815 15.1265 19.7095 15.3108 19.6532C15.3425 19.6435 15.4151 19.6908 15.4335 19.7288C15.4881 19.8422 15.5248 19.9638 15.5718 20.0908C15.8695 19.5158 16.1011 19.2938 16.5018 19.2085C16.5231 19.4072 16.5475 19.6038 16.5621 19.8012C16.5645 19.8342 16.5325 19.8818 16.5025 19.9028C16.0275 20.2365 15.8388 20.8238 16.0381 21.3688C16.2895 22.0552 16.5431 22.7405 16.7955 23.4265C16.8145 23.4782 16.8311 23.5308 16.8558 23.6032C16.6608 23.6768 16.4725 23.7535 16.2791 23.8145C16.2538 23.8225 16.1828 23.7568 16.1665 23.7128C15.8575 22.8765 15.5541 22.0382 15.2478 21.2008C15.1015 20.8005 14.9511 20.4018 14.8035 20.0018C14.7868 19.9565 14.7751 19.9092 14.7578 19.8515H14.7581Z" fill="#1A508C"/>
<path d="M33.3126 17.5568C33.0686 17.6481 32.8582 17.7338 32.6429 17.8028C32.5902 17.8198 32.5099 17.7998 32.4599 17.7685C31.7846 17.3431 31.1129 16.9115 30.4382 16.4851C30.3402 16.4231 30.3096 16.3668 30.3482 16.2448C30.5882 15.4845 30.8159 14.7201 31.0536 13.9588C31.0696 13.9071 31.1259 13.8515 31.1769 13.8301C31.3839 13.7438 31.5962 13.6705 31.8442 13.5781C31.7856 13.7775 31.7406 13.9401 31.6902 14.1008C31.4949 14.7241 31.3022 15.3485 31.0976 15.9688C31.0566 16.0931 31.0952 16.1458 31.1916 16.2061C31.8539 16.6221 32.5139 17.0421 33.1742 17.4608C33.2106 17.4838 33.2452 17.5098 33.3119 17.5565L33.3126 17.5568Z" fill="#1A508C"/>
<path d="M23.4191 16.656C23.4911 16.8487 23.5618 17.0223 23.6178 17.2007C23.6274 17.232 23.5868 17.3 23.5514 17.321C23.2001 17.5317 23.1014 17.788 23.2411 18.1767C23.4171 18.6663 23.5951 19.1553 23.7801 19.6417C23.9161 19.999 24.1931 20.1433 24.5714 20.0707C24.5981 20.0657 24.6254 20.0623 24.6671 20.0563C24.7054 20.1543 24.7444 20.2497 24.7798 20.3463C24.8158 20.4447 24.8484 20.544 24.8818 20.641C24.5198 20.8467 23.9591 20.7723 23.5754 20.493C23.3054 20.2963 23.1938 20.0147 23.0878 19.7213C22.9128 19.2373 22.7361 18.754 22.5564 18.2717C22.3744 17.783 22.6034 17.149 23.0838 16.8367C23.1848 16.771 23.2961 16.7217 23.4194 16.656H23.4191Z" fill="#1A508C"/>
<path d="M28.0031 18.8353C28.0744 19.033 28.1431 19.2233 28.2108 19.4113C27.6271 19.7113 26.8274 19.4393 26.5924 18.8523C26.3434 18.2307 26.1098 17.602 25.8941 16.968C25.6871 16.3593 26.1328 15.5937 26.7578 15.458C26.8211 15.6267 26.8897 15.7953 26.9444 15.9687C26.9547 16.0013 26.9191 16.071 26.8854 16.091C26.5311 16.2993 26.4451 16.5273 26.5861 16.9107C26.7754 17.425 26.9791 17.935 27.1501 18.4553C27.2491 18.7567 27.5254 18.938 27.8821 18.8597C27.9187 18.8517 27.9554 18.845 28.0027 18.8357L28.0031 18.8353Z" fill="#1A508C"/>
<path d="M7.9873 22.3421C8.20964 22.2594 8.41897 22.1774 8.6323 22.1074C8.6623 22.0977 8.7233 22.1381 8.7503 22.1714C9.51397 23.1094 10.2756 24.0487 11.0346 24.9901C11.0663 25.0294 11.083 25.0894 11.087 25.1411C11.0963 25.2684 11.0846 25.3974 11.099 25.5237C11.1163 25.6747 11.0643 25.7514 10.9153 25.7994C10.7856 25.8414 10.7136 25.8257 10.627 25.7147C9.7733 24.6214 8.9133 23.5334 8.0553 22.4437C8.0353 22.4184 8.0193 22.3897 7.9873 22.3421Z" fill="#1A508C"/>
<path d="M23.9314 17.162C23.8574 16.9583 23.7877 16.7673 23.7188 16.5777C24.1641 16.3433 24.8304 16.476 25.1611 16.894C25.3041 17.075 25.3914 17.306 25.4771 17.525C25.6607 17.9943 25.8311 18.469 25.9997 18.9437C26.2257 19.58 25.8517 20.328 25.1874 20.545C25.1207 20.3667 25.0497 20.1883 24.9914 20.006C24.9827 19.9787 25.0248 19.913 25.0584 19.897C25.3794 19.7453 25.4484 19.3403 25.3421 19.0637C25.1574 18.5833 24.9834 18.0987 24.8061 17.615C24.6591 17.2143 24.4544 17.09 24.0294 17.1473C24.0024 17.151 23.9751 17.155 23.9311 17.1613L23.9314 17.162Z" fill="#1A508C"/>
<path d="M10.9703 21.2441C10.9783 21.3348 10.9866 21.3938 10.9883 21.4528C11.0126 22.4018 11.0373 23.3508 11.0573 24.2998C11.0583 24.3505 11.0206 24.4021 11.001 24.4531C10.957 24.4281 10.9013 24.4128 10.8706 24.3765C10.6983 24.1731 10.5276 23.9685 10.367 23.7561C10.3243 23.6998 10.3006 23.6155 10.299 23.5431C10.2833 22.9048 10.2736 22.2665 10.2666 21.6281C10.266 21.5801 10.287 21.5025 10.3193 21.4888C10.526 21.4018 10.7386 21.3291 10.9703 21.2441Z" fill="#1A508C"/>
<path d="M28.6938 17.7345C28.9008 17.7345 29.0945 17.7269 29.2865 17.7409C29.3258 17.7439 29.3808 17.8229 29.3921 17.8745C29.4975 18.3565 29.2288 18.9482 28.7955 19.1995C28.7158 19.2459 28.6298 19.2808 28.5325 19.3282C28.4545 19.1152 28.3831 18.9202 28.3135 18.7299C28.7865 18.3769 28.8291 18.2685 28.6938 17.7349V17.7345Z" fill="#1A508C"/>
<path d="M17.8213 22.0461C18 21.9388 18.17 21.8365 18.3583 21.7231C18.5516 22.1085 18.886 22.1575 19.2676 22.0918C19.3296 22.2611 19.393 22.4191 19.443 22.5815C19.454 22.6175 19.4283 22.6975 19.4013 22.7075C18.7133 22.9638 18.0153 22.6161 17.8213 22.0461Z" fill="#1A508C"/>
<path d="M19.4224 19.4907C19.2481 19.1321 18.9604 19.0544 18.6101 19.1011C18.5651 19.1071 18.4858 19.0621 18.4668 19.0204C18.3988 18.8701 18.3494 18.7114 18.2871 18.5391C18.5354 18.4174 18.7971 18.4044 19.0581 18.4544C19.4268 18.5254 19.7251 18.7127 19.9221 19.0441C19.9738 19.1307 19.9774 19.1907 19.8761 19.2421C19.7288 19.3167 19.5861 19.4004 19.4221 19.4907H19.4224Z" fill="#1A508C"/>
<path d="M28.1171 16.4661C27.9764 16.0651 27.7601 15.8104 27.2884 15.9364C27.2134 15.7354 27.1397 15.5378 27.0664 15.3411C27.6251 15.0998 28.3181 15.3591 28.5691 15.8841C28.6124 15.9748 28.6211 16.0424 28.5294 16.1128C28.3941 16.2168 28.2694 16.3344 28.1167 16.4661H28.1171Z" fill="#1A508C"/>
<path d="M14.3661 24.5101C14.2937 24.3144 14.2251 24.1284 14.1504 23.9271C14.5067 23.7778 14.6827 23.5051 14.6891 23.1174H15.2724C15.4021 23.6584 14.9681 24.3324 14.3661 24.5101Z" fill="#1A508C"/>
</g>
<path d="M59.346 19.1819C59.346 20.4508 59.1054 21.5303 58.6244 22.4205C58.1471 23.3107 57.4956 23.9906 56.6698 24.4603C55.8479 24.9262 54.9236 25.1591 53.8971 25.1591C52.863 25.1591 51.935 24.9243 51.113 24.4546C50.291 23.9849 49.6414 23.305 49.1642 22.4148C48.6869 21.5247 48.4482 20.447 48.4482 19.1819C48.4482 17.9129 48.6869 16.8334 49.1642 15.9432C49.6414 15.0531 50.291 14.375 51.113 13.9091C51.935 13.4394 52.863 13.2046 53.8971 13.2046C54.9236 13.2046 55.8479 13.4394 56.6698 13.9091C57.4956 14.375 58.1471 15.0531 58.6244 15.9432C59.1054 16.8334 59.346 17.9129 59.346 19.1819ZM56.8517 19.1819C56.8517 18.3599 56.7285 17.6667 56.4823 17.1023C56.2399 16.5379 55.8971 16.1099 55.4539 15.8182C55.0107 15.5266 54.4918 15.3807 53.8971 15.3807C53.3024 15.3807 52.7835 15.5266 52.3403 15.8182C51.8971 16.1099 51.5524 16.5379 51.3062 17.1023C51.0638 17.6667 50.9426 18.3599 50.9426 19.1819C50.9426 20.0038 51.0638 20.697 51.3062 21.2614C51.5524 21.8258 51.8971 22.2538 52.3403 22.5455C52.7835 22.8372 53.3024 22.983 53.8971 22.983C54.4918 22.983 55.0107 22.8372 55.4539 22.5455C55.8971 22.2538 56.2399 21.8258 56.4823 21.2614C56.7285 20.697 56.8517 20.0038 56.8517 19.1819Z" fill="white"/>
<path d="M69.2593 16.2728L66.2082 25H63.4809L60.4298 16.2728H62.9866L64.7991 22.5171H64.89L66.6968 16.2728H69.2593Z" fill="white"/>
<path d="M74.194 25.1705C73.2963 25.1705 72.5235 24.9887 71.8758 24.625C71.2319 24.2576 70.7356 23.7387 70.3872 23.0682C70.0387 22.394 69.8644 21.5966 69.8644 20.6762C69.8644 19.7785 70.0387 18.9906 70.3872 18.3125C70.7356 17.6345 71.2262 17.1061 71.8588 16.7273C72.4951 16.3485 73.2413 16.1591 74.0974 16.1591C74.6731 16.1591 75.2091 16.2519 75.7053 16.4375C76.2053 16.6194 76.641 16.894 77.0122 17.2614C77.3872 17.6288 77.6788 18.091 77.8872 18.6478C78.0955 19.2008 78.1997 19.8485 78.1997 20.591V21.2557H70.8303V19.7557H75.9213C75.9213 19.4072 75.8455 19.0985 75.694 18.8296C75.5425 18.5607 75.3322 18.3504 75.0633 18.1989C74.7981 18.0436 74.4894 17.966 74.1372 17.966C73.7697 17.966 73.444 18.0512 73.1599 18.2216C72.8796 18.3883 72.6599 18.6137 72.5008 18.8978C72.3417 19.1781 72.2603 19.4906 72.2565 19.8353V21.2614C72.2565 21.6932 72.336 22.0663 72.4951 22.3807C72.658 22.6951 72.8872 22.9375 73.1826 23.108C73.4781 23.2785 73.8285 23.3637 74.2338 23.3637C74.5027 23.3637 74.7489 23.3258 74.9724 23.25C75.1959 23.1743 75.3872 23.0607 75.5463 22.9091C75.7053 22.7576 75.8266 22.572 75.9099 22.3523L78.1485 22.5C78.0349 23.0379 77.8019 23.5076 77.4497 23.9091C77.1012 24.3069 76.6504 24.6175 76.0974 24.841C75.5481 25.0607 74.9137 25.1705 74.194 25.1705Z" fill="white"/>
<path d="M79.7792 25V16.2728H82.1258V17.7955H82.2167C82.3758 17.2538 82.6428 16.8447 83.0178 16.5682C83.3928 16.2879 83.8247 16.1478 84.3133 16.1478C84.4345 16.1478 84.5652 16.1553 84.7053 16.1705C84.8455 16.1857 84.9686 16.2065 85.0747 16.233V18.3807C84.961 18.3466 84.8038 18.3163 84.6031 18.2898C84.4023 18.2633 84.2186 18.25 84.0519 18.25C83.6959 18.25 83.3777 18.3277 83.0974 18.483C82.8209 18.6345 82.6012 18.8466 82.4383 19.1194C82.2792 19.3921 82.1997 19.7065 82.1997 20.0625V25H79.7792Z" fill="white"/>
<path d="M93.5874 18.7614L91.3715 18.8978C91.3337 18.7084 91.2522 18.5379 91.1272 18.3864C91.0022 18.2311 90.8374 18.108 90.6329 18.0171C90.4321 17.9224 90.1916 17.875 89.9113 17.875C89.5363 17.875 89.22 17.9546 88.9624 18.1137C88.7049 18.269 88.5761 18.4773 88.5761 18.7387C88.5761 18.947 88.6594 19.1232 88.8261 19.2671C88.9928 19.411 89.2787 19.5266 89.684 19.6137L91.2636 19.9319C92.1121 20.1061 92.7446 20.3864 93.1613 20.7728C93.578 21.1591 93.7863 21.6667 93.7863 22.2955C93.7863 22.8675 93.6178 23.3694 93.2806 23.8012C92.9473 24.233 92.489 24.5701 91.9056 24.8125C91.3261 25.0512 90.6575 25.1705 89.8999 25.1705C88.7446 25.1705 87.8242 24.93 87.1386 24.4489C86.4568 23.9641 86.0571 23.305 85.9397 22.4716L88.3204 22.3466C88.3924 22.6989 88.5666 22.9678 88.8431 23.1535C89.1196 23.3353 89.4738 23.4262 89.9056 23.4262C90.3299 23.4262 90.6708 23.3447 90.9284 23.1819C91.1897 23.0152 91.3223 22.8012 91.3261 22.5398C91.3223 22.3201 91.2295 22.1402 91.0477 22C90.8659 21.8561 90.5856 21.7463 90.2068 21.6705L88.6954 21.3694C87.8431 21.1989 87.2087 20.9035 86.792 20.483C86.3791 20.0625 86.1727 19.5266 86.1727 18.875C86.1727 18.3144 86.3242 17.8315 86.6272 17.4262C86.934 17.0209 87.364 16.7084 87.917 16.4887C88.4738 16.269 89.1253 16.1591 89.8715 16.1591C90.9738 16.1591 91.8412 16.3921 92.4738 16.858C93.1102 17.3239 93.4814 17.9584 93.5874 18.7614Z" fill="white"/>
<path d="M99.9525 16.2728V18.091H94.6968V16.2728H99.9525ZM95.89 14.1819H98.3105V22.3182C98.3105 22.5417 98.3446 22.716 98.4127 22.841C98.4809 22.9622 98.5756 23.0474 98.6968 23.0966C98.8218 23.1459 98.9658 23.1705 99.1286 23.1705C99.2423 23.1705 99.3559 23.161 99.4696 23.1421C99.5832 23.1194 99.6703 23.1023 99.7309 23.091L100.112 24.8921C99.9904 24.93 99.8199 24.9735 99.6002 25.0228C99.3805 25.0758 99.1135 25.108 98.7991 25.1194C98.2158 25.1421 97.7044 25.0644 97.265 24.8864C96.8294 24.7084 96.4904 24.4319 96.248 24.0569C96.0055 23.6819 95.8862 23.2084 95.89 22.6364V14.1819Z" fill="white"/>
<path d="M105.379 25.1705C104.496 25.1705 103.733 24.983 103.089 24.608C102.449 24.2292 101.954 23.7027 101.606 23.0285C101.257 22.3504 101.083 21.5644 101.083 20.6705C101.083 19.769 101.257 18.9811 101.606 18.3069C101.954 17.6288 102.449 17.1023 103.089 16.7273C103.733 16.3485 104.496 16.1591 105.379 16.1591C106.261 16.1591 107.023 16.3485 107.663 16.7273C108.307 17.1023 108.803 17.6288 109.151 18.3069C109.5 18.9811 109.674 19.769 109.674 20.6705C109.674 21.5644 109.5 22.3504 109.151 23.0285C108.803 23.7027 108.307 24.2292 107.663 24.608C107.023 24.983 106.261 25.1705 105.379 25.1705ZM105.39 23.2955C105.792 23.2955 106.127 23.1819 106.396 22.9546C106.665 22.7235 106.867 22.4091 107.004 22.0114C107.144 21.6137 107.214 21.161 107.214 20.6535C107.214 20.1459 107.144 19.6932 107.004 19.2955C106.867 18.8978 106.665 18.5834 106.396 18.3523C106.127 18.1213 105.792 18.0057 105.39 18.0057C104.985 18.0057 104.644 18.1213 104.367 18.3523C104.095 18.5834 103.888 18.8978 103.748 19.2955C103.612 19.6932 103.543 20.1459 103.543 20.6535C103.543 21.161 103.612 21.6137 103.748 22.0114C103.888 22.4091 104.095 22.7235 104.367 22.9546C104.644 23.1819 104.985 23.2955 105.39 23.2955Z" fill="white"/>
<path d="M115.191 25.1705C114.297 25.1705 113.528 24.9811 112.884 24.6023C112.244 24.2197 111.752 23.6894 111.407 23.0114C111.066 22.3334 110.896 21.5531 110.896 20.6705C110.896 19.7766 111.068 18.9925 111.413 18.3182C111.761 17.6402 112.256 17.1118 112.896 16.733C113.536 16.3504 114.297 16.1591 115.18 16.1591C115.941 16.1591 116.608 16.2974 117.18 16.5739C117.752 16.8504 118.204 17.2387 118.538 17.7387C118.871 18.2387 119.055 18.8258 119.089 19.5H116.805C116.74 19.0644 116.57 18.7141 116.293 18.4489C116.021 18.18 115.663 18.0455 115.22 18.0455C114.845 18.0455 114.517 18.1478 114.237 18.3523C113.96 18.5531 113.744 18.8466 113.589 19.233C113.434 19.6194 113.356 20.0872 113.356 20.6364C113.356 21.1932 113.432 21.6667 113.583 22.0569C113.738 22.447 113.956 22.7444 114.237 22.9489C114.517 23.1535 114.845 23.2557 115.22 23.2557C115.496 23.2557 115.744 23.1989 115.964 23.0853C116.187 22.9716 116.371 22.8069 116.515 22.591C116.663 22.3713 116.759 22.108 116.805 21.8012H119.089C119.051 22.4678 118.869 23.055 118.543 23.5625C118.221 24.0663 117.776 24.4603 117.208 24.7444C116.64 25.0285 115.968 25.1705 115.191 25.1705Z" fill="white"/>
<path d="M122.832 22.4887L122.837 19.5853H123.19L125.985 16.2728H128.764L125.008 20.6591H124.434L122.832 22.4887ZM120.639 25V13.3637H123.059V25H120.639ZM126.093 25L123.525 21.1989L125.139 19.4887L128.928 25H126.093Z" fill="white"/>
<defs>
<clipPath id="clip0_596_2416">
<rect width="28.9793" height="19.653" fill="white" transform="translate(4.33301 7.6001)"/>
</clipPath>
</defs>
</svg>
